<?xml version="1.0" encoding="UTF-8" standalone="no"?>
<svg
   xmlns:dc="http://purl.org/dc/elements/1.1/"
   xmlns:cc="http://creativecommons.org/ns#"
   xmlns:rdf="http://www.w3.org/1999/02/22-rdf-syntax-ns#"
   xmlns:svg="http://www.w3.org/2000/svg"
   xmlns="http://www.w3.org/2000/svg"
   xmlns:sodipodi="http://sodipodi.sourceforge.net/DTD/sodipodi-0.dtd"
   xmlns:inkscape="http://www.inkscape.org/namespaces/inkscape"
   viewBox="0 0 393.96999 251.07092"
   version="1.1"
   id="svg547"
   sodipodi:docname="52CAlogo.svg"
   width="393.97"
   height="251.07091"
   inkscape:version="0.92.3 (d244b95, 2018-08-02)">
  <metadata
     id="metadata551">
    <rdf:RDF>
      <cc:Work
         rdf:about="">
        <dc:format>image/svg+xml</dc:format>
        <dc:type
           rdf:resource="http://purl.org/dc/dcmitype/StillImage" />
        <dc:title>52 Climate Actions icons F</dc:title>
      </cc:Work>
    </rdf:RDF>
  </metadata>
  <sodipodi:namedview
     pagecolor="#ffffff"
     bordercolor="#666666"
     borderopacity="1"
     objecttolerance="10"
     gridtolerance="10"
     guidetolerance="10"
     inkscape:pageopacity="0"
     inkscape:pageshadow="2"
     inkscape:window-width="1863"
     inkscape:window-height="1059"
     id="namedview549"
     showgrid="false"
     fit-margin-top="0"
     fit-margin-left="0"
     fit-margin-right="0"
     fit-margin-bottom="0"
     inkscape:zoom="3.1396989"
     inkscape:cx="198.75001"
     inkscape:cy="120.43"
     inkscape:window-x="57"
     inkscape:window-y="21"
     inkscape:window-maximized="1"
     inkscape:current-layer="svg547" />
  <defs
     id="defs326">
    <style
       id="style318">.cls-1{fill:#00a45c;}.cls-2{isolation:isolate;}.cls-3{fill:#d8b840;}.cls-4{fill:#fff;}.cls-5{fill:#ffda00;}.cls-6{fill:#184f25;}.cls-7{fill:#3ba67b;}.cls-8{fill:#a2c636;}.cls-9{mix-blend-mode:multiply;}.cls-10{clip-path:url(#clip-path);}.cls-11{clip-path:url(#clip-path-2);}.cls-12{fill:#008d41;}</style>
    <clipPath
       id="clip-path">
      <path
         class="cls-1"
         d="m 251,199.82 -7.62,1.38 -7.31,2.59 -5.86,5.07 -4.95,5.93 -3.2,7.11 -1,7.75 1.15,7.7 3.28,7 4.56,6.21 6.14,4.67 7.14,2.88 7.63,1.15 7.65,-1.08 7.13,-2.95 6.14,-4.67 5,-5.94 2.47,-7.36 1.4,-7.61 -0.95,-7.73 -3.21,-7.07 -4.83,-6 -6.06,-4.74 -7,-3.28 z m 0,40 -7.48,-2.72 -2.69,-7.48 2.66,-7.52 7.52,-2.8 7.13,3.19 3,7.13 -2.87,7.26 z"
         id="path320"
         inkscape:connector-curvature="0"
         style="fill:#00a45c" />
    </clipPath>
    <clipPath
       id="clip-path-2">
      <polygon
         class="cls-1"
         points="47.09,246.13 50.39,252.74 53.77,259.28 60.38,259.46 67.03,259.55 73.56,259.25 70.56,253.46 67.55,247.54 64.48,241.65 61.75,235.58 58.93,229.55 55.61,223.79 52.65,217.84 49.64,211.92 46.7,205.95 43.77,200.27 40.73,205.89 37.54,211.72 34.6,217.68 31.7,223.66 28.77,229.63 25.79,235.57 22.88,241.54 19.84,247.45 16.65,253.28 13.85,259.34 20.51,259.4 27.15,259.18 33.79,259.32 37.22,252.79 40.48,246.16 43.77,239.84 "
         id="polygon323"
         style="fill:#00a45c" />
    </clipPath>
  </defs>
  <title
     id="title328">52 Climate Actions icons F</title>
  <g
     class="cls-2"
     id="g545"
     style="isolation:isolate"
     transform="translate(-13.85,-11.08909)">
    <g
       id="Layer_1"
       data-name="Layer 1">
      <path
         class="cls-3"
         d="m 381.76,95.48 a 18.85,18.85 0 0 1 2.12,-0.21 13.31,13.31 0 0 0 1.92,-1 c 0.69,-0.42 1.44,-0.86 2.13,-1.31 a 11.41,11.41 0 0 1 3.33,-1.96 5.89,5.89 0 0 1 -0.83,2.06 6.64,6.64 0 0 1 -1.48,2.14 22.7,22.7 0 0 1 -7.74,3.91 c -2.51,0.74 -5.05,1.36 -8.54,2.2 a 5.72,5.72 0 0 0 -1.71,0.92 12.59,12.59 0 0 1 -1.3,0.76 c -0.47,0.25 -1,0.51 -1.47,0.75 0,0 0.65,0 1.44,0 a 16.87,16.87 0 0 1 -2.42,0.89 28.1,28.1 0 0 1 -2.89,0.51 l -1.52,0.21 -1.53,0.09 c -1,0.06 -2,0.15 -2.94,0.26 a 7.61,7.61 0 0 1 1.28,0.4 11.41,11.41 0 0 0 -1.28,-0.33 c -0.47,-0.12 -1,-0.23 -1.52,-0.32 -0.52,-0.09 -1.11,-0.17 -1.7,-0.24 l -0.9,-0.09 -0.92,-0.16 -1.9,-0.3 a 17.69,17.69 0 0 1 -1.91,-0.33 c -1.25,-0.3 -2.49,-0.56 -3.59,-0.87 a 18.15,18.15 0 0 1 -1.92,-1.18 q -0.75,-0.23 -1.49,-0.48 c -0.48,-0.2 -0.95,-0.42 -1.42,-0.64 l -1.42,-0.68 a 12.52,12.52 0 0 1 -1.41,-0.74 c -0.93,-0.55 -1.88,-1.11 -2.88,-1.66 -1,-0.55 -2,-1.27 -3.06,-1.91 A 25.37,25.37 0 0 1 329.6,93.95 L 328.9,93.3 328.25,92.57 326.89,91 c -0.22,-0.26 -0.45,-0.52 -0.67,-0.79 l -0.61,-0.85 -1.25,-1.72 a 20.69,20.69 0 0 1 -1.17,-1.78 q -0.57,-0.9 -1.14,-1.79 a 39.86,39.86 0 0 1 -4.2,-14.13 l -0.23,-1.82 c -0.06,-0.61 -0.06,-1.21 -0.1,-1.82 l -0.11,-1.8 c 0,-0.3 -0.05,-0.6 -0.05,-0.89 v -0.89 c 0,-1.18 -0.05,-2.35 -0.06,-3.5 -0.01,-1.15 0,-2.29 0,-3.42 a 4.89,4.89 0 0 1 0.13,-1.33 16.26,16.26 0 0 1 0.41,-1.62 13.36,13.36 0 0 1 0.65,-1.75 15.82,15.82 0 0 1 1,-1.65 12.73,12.73 0 0 1 0.24,-2.36 c 0.2,-0.82 0.47,-1.68 0.79,-2.58 a 14,14 0 0 1 0.53,-1.36 q 0.33,-0.66 0.69,-1.35 0.36,-0.69 0.76,-1.37 l 0.4,-0.69 0.47,-0.65 a 36.81,36.81 0 0 1 8.94,-9 13.66,13.66 0 0 1 1.65,-1 q 0.39,-0.21 0.77,-0.37 a 7.1,7.1 0 0 1 0.75,-0.24 11.16,11.16 0 0 1 2.39,-0.39 c 0.36,-0.27 0.71,-0.57 1.1,-0.8 l 1.17,-0.72 c 0.79,-0.47 1.58,-1 2.41,-1.41 a 36.63,36.63 0 0 1 5.28,-2.22 l 1.38,-0.45 0.7,-0.22 0.71,-0.16 q 1.43,-0.31 2.87,-0.58 a 10.1,10.1 0 0 1 1.45,-0.19 l 1.46,-0.12 a 21,21 0 0 1 2.93,-0.1 39,39 0 0 1 14.78,2.81 36.83,36.83 0 0 1 13.06,8.82 c 0.26,0.27 0.61,0.58 1,0.9 0.39,0.32 0.76,0.73 1.17,1.09 0.8,0.75 1.66,1.46 2.25,1.95 l 0.81,1.89 c 0.47,0.64 1,1.23 1.42,1.88 l 1.3,1.92 0.65,1 c 0.21,0.32 0.38,0.66 0.57,1 l 1.1,2 a 15.12,15.12 0 0 1 1,2 q 0.43,1 0.82,2 a 13.74,13.74 0 0 1 0.61,2.06 c 0.17,0.69 0.31,1.38 0.44,2.07 l 0.11,0.69 v 0.66 q 0,0.64 0,1.22 a 17,17 0 0 1 -0.11,2 7,7 0 0 1 -0.94,2.65 5.13,5.13 0 0 1 -2.69,2 37.26,37.26 0 0 0 -4.15,-10.46 c -2,-3.41 -4,-6.86 -6.6,-11.28 a 7.85,7.85 0 0 0 -1.39,-1.89 12.75,12.75 0 0 0 -2,-1.84 c -0.75,-0.56 -1.48,-1.17 -2.28,-1.67 -0.8,-0.5 -1.6,-1 -2.34,-1.44 a 18.92,18.92 0 0 1 -2,-1.1 l -1,-0.63 c -0.32,-0.2 -0.66,-0.36 -1,-0.54 a 15.77,15.77 0 0 0 -2,-0.9 5.86,5.86 0 0 0 -2.09,-0.2 12.23,12.23 0 0 0 -1.34,-1 c -0.54,-0.31 -1.16,-0.63 -1.84,-1 l -1.06,-0.49 c -0.37,-0.16 -0.77,-0.26 -1.17,-0.39 -0.81,-0.24 -1.66,-0.5 -2.55,-0.71 a 23.88,23.88 0 0 0 -10.92,0.45 c -0.58,0 0,-0.32 -1,-0.25 a 50.39,50.39 0 0 0 -12.94,7.24 33.13,33.13 0 0 0 -9.75,12.06 c -0.48,1.25 -1.12,2.48 -1.54,3.85 -0.23,0.68 -0.52,1.35 -0.73,2.06 l -0.57,2.17 c -0.09,0.37 -0.21,0.73 -0.27,1.11 L 324.11,58 c -0.1,0.77 -0.24,1.55 -0.3,2.33 -0.06,0.78 0,1.59 0,2.4 a 10.21,10.21 0 0 0 0,1.21 l 0.17,1.21 a 11.28,11.28 0 0 1 0,2.13 20.54,20.54 0 0 0 0.33,3 l 0.18,0.43 0.22,0.42 0.44,0.83 0.42,1.68 c 0.14,0.57 0.4,1.1 0.59,1.66 l 0.62,1.65 c 0.24,0.53 0.51,1 0.75,1.56 0.24,0.56 0.49,1 0.71,1.52 0.22,0.52 0.53,0.93 0.77,1.39 0.24,0.46 0.46,0.89 0.65,1.32 0.19,0.43 0.43,0.8 0.6,1.19 0.17,0.39 0.49,0.85 0.74,1.26 a 8.08,8.08 0 0 0 0.81,1.17 c 0.59,0.73 1.19,1.43 1.78,2.12 1.31,1.25 2.54,2.49 3.85,3.61 l 0.75,0.67 0.4,0.34 0.45,0.3 c 0.61,0.41 1.26,0.83 1.93,1.25 l 0.51,0.32 0.55,0.27 1.11,0.54 a 18.67,18.67 0 0 0 2.27,1 c 0.78,0.29 1.54,0.59 2.29,0.89 0.75,0.3 1.52,0.46 2.23,0.71 l 1,0.38 c 0.34,0.14 0.68,0.2 1,0.31 a 15.27,15.27 0 0 1 1.78,0.67 c 0.53,0.31 2.4,0.25 3.6,0.34 a 12.77,12.77 0 0 0 1.7,0.51 c 1.23,0 2,-0.83 3.17,-0.89 A 40.84,40.84 0 0 0 374,96.83 l 1.34,-0.53 0.66,-0.3 0.62,-0.29 c 0.82,-0.38 1.61,-0.73 2.37,-1 a 16.33,16.33 0 0 1 3.87,-1.4 c -0.42,0.53 -2.38,2.34 -1.1,2.17 z"
         id="path330"
         inkscape:connector-curvature="0"
         style="fill:#d8b840" />
      <path
         class="cls-3"
         d="m 401.63,66.46 c 0.28,0.4 0.44,-1 0.43,-1.91 a 9.91,9.91 0 0 0 -1.11,2.82 l 0.22,-2.52 c -0.66,-1.35 -0.34,2.46 -0.56,1 0.15,-1.37 0.33,-2.46 0.67,-1.79 -0.2,0.23 -0.11,0.83 -0.22,1.66 0.49,0.16 0.76,-1.2 1.11,-2 l -0.25,4 z"
         id="path332"
         inkscape:connector-curvature="0"
         style="fill:#d8b840" />
      <path
         class="cls-3"
         d="m 399.32,75.05 0.28,-0.78 c -0.2,-0.43 -0.59,0.29 -1,1 1.34,-3.27 0.9,0.23 1.93,-1.7 -0.19,-0.14 -1.01,1.93 -1.21,1.48 z"
         id="path334"
         inkscape:connector-curvature="0"
         style="fill:#d8b840" />
      <path
         class="cls-3"
         d="m 399,70.32 a 5.91,5.91 0 0 0 0.69,-2 c 0.14,-0.6 0.17,-1.06 0.57,-1.2 -0.08,0.32 -0.15,0.65 -0.25,1 l -0.33,1 -0.68,1.8 z"
         id="path336"
         inkscape:connector-curvature="0"
         style="fill:#d8b840" />
      <path
         class="cls-3"
         d="m 387.58,93 c -0.7,0.95 -0.35,0.48 -1.81,1.69 0.68,-0.61 1.38,-1.2 2,-1.83 z"
         id="path338"
         inkscape:connector-curvature="0"
         style="fill:#d8b840" />
      <path
         class="cls-3"
         d="m 337.22,98.32 c 0.55,0.56 1,1.11 1.64,1.66 a 16.06,16.06 0 0 0 2.51,1.61 11.65,11.65 0 0 1 -2.83,-1.85 c -0.68,-0.68 -1.13,-1.23 -1.32,-1.42 z"
         id="path340"
         inkscape:connector-curvature="0"
         style="fill:#d8b840" />
      <path
         class="cls-3"
         d="m 323.72,79.7 c 0.25,-0.05 0,-0.74 0.54,0.14 0.09,0.48 -0.75,0.15 0.26,1.45 z"
         id="path342"
         inkscape:connector-curvature="0"
         style="fill:#d8b840" />
      <path
         class="cls-3"
         d="m 324.14,77.52 0.08,-1.08 c -0.07,0.02 -0.13,0.43 -0.08,1.08 z"
         id="path344"
         inkscape:connector-curvature="0"
         style="fill:#d8b840" />
      <path
         class="cls-3"
         d="m 376.45,102.79 h -0.21 l -0.32,0.26 z"
         id="path346"
         inkscape:connector-curvature="0"
         style="fill:#d8b840" />
      <path
         class="cls-3"
         d="m 372.7,103.86 c 0.9,-0.15 1.82,-0.27 2.72,-0.46 0.17,-0.16 0.33,-0.27 0.49,-0.4 a 3.67,3.67 0 0 1 -1.53,0.3 4.36,4.36 0 0 0 -1.68,0.56 z"
         id="path348"
         inkscape:connector-curvature="0"
         style="fill:#d8b840" />
      <path
         class="cls-3"
         d="m 375.87,102.65 0.37,0.09 a 8.23,8.23 0 0 1 2.71,-1.23 14.15,14.15 0 0 0 3.3,-1.75 33.74,33.74 0 0 0 -3.36,1.51 c -1.1,0.46 -2.13,0.93 -3.02,1.38 z"
         id="path350"
         inkscape:connector-curvature="0"
         style="fill:#d8b840" />
      <path
         class="cls-3"
         d="m 378.06,101 a 7.83,7.83 0 0 0 0.67,-0.69 c 0.73,-0.36 0.8,-0.11 0.83,0 l 1.42,-1 c 0.17,-0.39 -0.89,0.08 -2.14,0.71 -0.61,0.34 -1.33,0.59 -1.94,0.87 l -1.46,0.62 z"
         id="path352"
         inkscape:connector-curvature="0"
         style="fill:#d8b840" />
      <path
         class="cls-3"
         d="m 387.46,88.13 v 0.05 z"
         id="path354"
         inkscape:connector-curvature="0"
         style="fill:#d8b840" />
      <path
         class="cls-3"
         d="m 383.52,90.45 0.43,0.77 a 7.48,7.48 0 0 1 1,-0.81 c 0.29,-0.2 0.52,-0.4 0.78,-0.58 a 8.29,8.29 0 0 0 1.74,-1.65 v -0.05 a 3.28,3.28 0 0 0 -1.8,1 c -0.31,0.26 -0.64,0.54 -1,0.8 a 5.23,5.23 0 0 1 -1.15,0.52 z"
         id="path356"
         inkscape:connector-curvature="0"
         style="fill:#d8b840" />
      <path
         class="cls-3"
         d="m 369.46,103.92 c 0.54,-0.14 1,-0.25 1.5,-0.39 0.5,-0.14 0.86,-0.32 1.21,-0.48 a 3.46,3.46 0 0 0 1.46,-1 l -1.94,0.58 -1,0.29 -1,0.2 c 1.63,0.03 0.05,0.42 -0.23,0.8 z"
         id="path358"
         inkscape:connector-curvature="0"
         style="fill:#d8b840" />
      <path
         class="cls-3"
         d="m 365.83,103.08 a 13.82,13.82 0 0 0 1.82,-0.43 l -0.86,-0.07 c -0.04,0.13 -0.34,0.33 -0.96,0.5 z"
         id="path360"
         inkscape:connector-curvature="0"
         style="fill:#d8b840" />
      <path
         class="cls-3"
         d="m 366.79,102.58 c 0,-0.16 -0.23,-0.18 -0.92,-0.13 a 7.36,7.36 0 0 0 0.92,0.13 z"
         id="path362"
         inkscape:connector-curvature="0"
         style="fill:#d8b840" />
      <path
         class="cls-3"
         d="m 370.18,101 c -1.27,-0.24 -1,0.38 -3,0.74 -0.03,0.64 2.01,-0.47 3,-0.74 z"
         id="path364"
         inkscape:connector-curvature="0"
         style="fill:#d8b840" />
      <polygon
         class="cls-3"
         points="361.03,102.53 361.84,102.32 361.15,101.91 "
         id="polygon366"
         style="fill:#d8b840" />
      <path
         class="cls-3"
         d="m 346.12,103.24 c 1.08,0 0.82,-0.2 0.29,-0.46 -0.53,-0.26 -1.29,-0.68 -1.33,-0.85 z"
         id="path368"
         inkscape:connector-curvature="0"
         style="fill:#d8b840" />
      <path
         class="cls-3"
         d="m 359.58,101 0.63,0.53 0.31,-0.32 a 4,4 0 0 1 1.72,0.12 c 0.35,-0.64 -1.69,-0.2 -2.66,-0.33 z"
         id="path370"
         inkscape:connector-curvature="0"
         style="fill:#d8b840" />
      <path
         class="cls-3"
         d="m 351.8,101.92 a 14.14,14.14 0 0 1 -1.83,-0.76"
         id="path372"
         inkscape:connector-curvature="0"
         style="fill:#d8b840" />
      <path
         class="cls-3"
         d="m 363.74,98.63 c 0,-0.25 -2.64,-0.64 0.29,-0.85 -1.13,0.09 -2.71,0.37 -1.76,-0.26 -1.8,0.13 -0.07,0.64 -1.27,1 1,-0.36 1.81,0.1 2.74,0.11 z"
         id="path374"
         inkscape:connector-curvature="0"
         style="fill:#d8b840" />
      <path
         class="cls-3"
         d="m 359.18,98.46 -0.7,-0.07 -0.7,-0.12 a 2.39,2.39 0 0 0 -1.12,0 c 0.91,0.08 1.73,0.73 2.52,0.19 z"
         id="path376"
         inkscape:connector-curvature="0"
         style="fill:#d8b840" />
      <path
         class="cls-3"
         d="m 358.36,97.06 c 0.41,0.17 0.82,0.3 1.24,0.46 l -0.77,-0.59 c -0.16,0.07 -0.31,0.07 -0.47,0.13 z"
         id="path378"
         inkscape:connector-curvature="0"
         style="fill:#d8b840" />
      <line
         class="cls-3"
         x1="339.73999"
         y1="96.18"
         x2="339.39001"
         y2="96.900002"
         id="line380"
         style="fill:#d8b840" />
      <path
         class="cls-3"
         d="m 353.29,96.6 1.54,0.2 c 0.52,0.06 1,0 1.56,0.06 L 355,96.61 353.65,96.22 c -1.72,0.1 -1,0.43 0.22,0.83 -0.31,-0.14 -0.55,-0.29 -0.58,-0.45 z"
         id="path382"
         inkscape:connector-curvature="0"
         style="fill:#d8b840" />
      <path
         class="cls-3"
         d="m 356.52,98 1,-0.18 a 14.85,14.85 0 0 0 -2.61,-0.41 c 0.78,0.18 1.52,0.36 1.61,0.59 z"
         id="path384"
         inkscape:connector-curvature="0"
         style="fill:#d8b840" />
      <path
         class="cls-3"
         d="m 354.89,97.39 -1,-0.34 a 7.32,7.32 0 0 0 1,0.34 z"
         id="path386"
         inkscape:connector-curvature="0"
         style="fill:#d8b840" />
      <path
         class="cls-3"
         d="m 332.63,91.36 1.16,1.13 c 0.2,0.19 0.38,0.39 0.59,0.56 l 0.63,0.51 c -0.21,-0.22 -0.42,-0.43 -0.62,-0.62 -0.2,-0.19 -0.38,-0.4 -0.57,-0.59 a 11.56,11.56 0 0 0 -1.19,-0.99 z"
         id="path388"
         inkscape:connector-curvature="0"
         style="fill:#d8b840" />
      <path
         class="cls-3"
         d="m 351.21,95.48 -0.42,-0.12 -0.27,0.57 c 0.9,0.12 0.64,-0.33 0.69,-0.45 z"
         id="path390"
         inkscape:connector-curvature="0"
         style="fill:#d8b840" />
      <path
         class="cls-3"
         d="m 348.1,93.36 c -0.57,-0.62 -2.17,-0.74 -2.75,-1 0.65,0.88 1.71,1.14 2.82,1.72 -1.12,-0.6 -0.17,-0.51 -0.07,-0.72 z"
         id="path392"
         inkscape:connector-curvature="0"
         style="fill:#d8b840" />
      <path
         class="cls-3"
         d="m 345.14,91.26 a 16.27,16.27 0 0 0 2.21,1 c -0.09,-0.41 -0.42,-0.52 -0.83,-0.62 a 11.42,11.42 0 0 1 -1.38,-0.38 z"
         id="path394"
         inkscape:connector-curvature="0"
         style="fill:#d8b840" />
      <path
         class="cls-3"
         d="m 341.6,89.55 c -0.22,-0.06 -0.18,0.18 -0.62,0 0.17,0.4 1,0.75 1.45,1.13 z"
         id="path396"
         inkscape:connector-curvature="0"
         style="fill:#d8b840" />
      <path
         class="cls-3"
         d="m 362.35,100.63 -2.45,0.2 a 24.16,24.16 0 0 0 3.66,0.1 7.37,7.37 0 0 0 -1.21,-0.3 z"
         id="path398"
         inkscape:connector-curvature="0"
         style="fill:#d8b840" />
      <path
         class="cls-3"
         d="m 398.2,45.52 c -1.39,-1.8 -3.14,-4.39 -5.15,-6.78 L 391.56,37 c -0.48,-0.59 -1.05,-1.09 -1.55,-1.61 l -1.45,-1.47 c -0.47,-0.45 -1,-0.82 -1.37,-1.18 a 31.66,31.66 0 0 0 -10,-6.32 c -1,-0.37 -1.94,-0.8 -3,-1.11 l -3.05,-0.87 c -1,-0.27 -2.07,-0.42 -3.09,-0.64 -0.52,-0.09 -1,-0.22 -1.54,-0.29 l -1.51,-0.22 0.11,-0.23 c -0.8,-0.16 -1.62,-0.32 -2.48,-0.45 -0.86,-0.13 -1.75,-0.11 -2.66,-0.15 h -1.37 c -0.46,0 -0.92,0.05 -1.39,0.08 l -2.82,0.22 c -0.94,0.15 -1.88,0.34 -2.81,0.51 l -1.4,0.27 -1.36,0.39 c -0.9,0.27 -1.81,0.5 -2.68,0.79 l -2.54,1 0.48,0.18 c 1.13,-0.36 2.58,-0.88 1.86,-0.15 -1.51,0.4 -3.55,1 -4.06,1 l -0.89,1 c -0.51,0.1 -0.7,-0.19 -1.06,-0.31 -0.36,-0.12 -0.93,-0.12 -2,0.78 a 3.07,3.07 0 0 1 -1.25,1.2 c -0.29,0.17 -0.6,0.34 -0.92,0.49 -0.32,0.15 -0.62,0.35 -0.93,0.52 -1.21,0.68 -2.26,1.3 -1.86,1.88 -0.72,0 -1.41,0.64 -2.1,1.34 -0.69,0.7 -1.31,1.5 -1.76,2 0.37,-0.08 0.73,-0.16 1.1,-0.23 -1.09,0.91 -2.27,1.72 -3.28,2.47 a 10.25,10.25 0 0 0 -2.08,2.14 26.5,26.5 0 0 0 -1.51,2.49 23.38,23.38 0 0 0 -1.47,2.83 l -0.66,1.49 a 12.83,12.83 0 0 0 -0.59,1.5 c -0.32,1 -0.62,2 -0.87,3 -1,0.6 1.4,-3.85 -0.2,-1.74 -0.4,1.87 -0.72,3.9 -1.24,6 -0.16,1.07 -0.35,2.16 -0.55,3.28 l -0.15,0.84 -0.08,0.85 -0.17,1.73 A 30.84,30.84 0 0 0 318.9,76 c 0,-0.27 -0.14,-1.06 0.12,-0.53 a 3.82,3.82 0 0 0 0.2,1.43 c 0.15,0.5 0.34,1 0.56,1.56 0.22,0.56 0.42,1.14 0.72,1.73 a 19.29,19.29 0 0 1 0.8,1.94 5.68,5.68 0 0 0 -0.63,-2.4 l -0.93,-3 c 0.73,0.21 0.71,0.4 0.72,1 a 5.33,5.33 0 0 0 0.12,1.15 5,5 0 0 0 0.26,0.86 10.29,10.29 0 0 0 0.57,1.05 c -0.05,-0.26 -0.15,-0.77 0,-0.79 0.89,1.56 0.87,2 0.81,2.27 a 1.12,1.12 0 0 0 0,0.54 2.35,2.35 0 0 0 0.16,0.47 7,7 0 0 0 0.45,0.7 l -0.22,-0.75 c -0.06,-0.26 -0.11,-0.52 -0.16,-0.77 a 5.94,5.94 0 0 0 0.64,1.15 1.93,1.93 0 0 0 0.34,0.38 8.15,8.15 0 0 1 1.36,1.59 c -0.4,0 -0.52,0.37 -0.48,0.85 a 3.28,3.28 0 0 0 0.48,1.37 c 0.46,0.11 2,2.62 2.32,1.91 a 7.86,7.86 0 0 0 2.49,3.41 9,9 0 0 1 2.73,3 c 0.78,0.25 0.58,-0.1 0.25,-0.54 -0.33,-0.44 -0.74,-1.06 -0.53,-1.19 a 16.87,16.87 0 0 1 1.35,1.06 c 0.21,0.22 0.2,0.34 0.12,0.44 -0.08,0.1 -0.58,0.27 -0.12,0.75 1,0.59 5.06,3 6.74,4.24 l 0.34,-0.38 a 22,22 0 0 0 2.25,1.42 l 2.59,1.25 c 0.83,0.44 1.66,0.7 2.31,1 A 5.55,5.55 0 0 1 349,105 c 1.44,-0.39 -1,-1 -3.12,-1.58 -0.32,-0.45 1.91,-0.09 2.9,0.3 -0.53,-0.14 -0.63,-0.49 -1.28,-0.41 0,-0.46 1.41,0.19 2,0.22 0.9,0.29 1.27,0.34 1.33,0.4 0.06,0.06 -0.2,0 -0.52,0 -0.64,-0.05 -1.55,-0.2 -0.81,0.13 l 0.61,0.1 0.73,0.08 c 0.51,0.06 1,0.12 1.47,0.15 0.88,0.06 1.4,0 0.72,-0.42 1.47,0.23 1.75,0.38 1.85,0.6 0.1,0.22 0,0.46 0.78,0.63 a 7.14,7.14 0 0 0 -1.51,-0.21 10,10 0 0 0 -1.18,0 4.3,4.3 0 0 1 -2.22,-0.42 c -0.65,0.14 -0.47,0.36 0.27,0.67 1.28,0.1 3.1,0.58 4.64,0.62 1.54,0.04 2.73,0.14 2.69,-0.2 0.42,0.15 0.85,0.27 1.28,0.4 l 1.23,-0.54 0.53,0.1 a 12.36,12.36 0 0 0 -2.39,-0.74 6.82,6.82 0 0 1 -1.21,-0.39 4,4 0 0 1 -0.9,-0.47 c -0.08,-0.16 0.26,-0.18 0.73,-0.17 h 0.76 a 6.22,6.22 0 0 0 0.71,0 l 0.66,0.53 a 3.05,3.05 0 0 0 1.94,-0.53 3.52,3.52 0 0 1 0.89,-0.37 6,6 0 0 1 1.59,-0.29 c -0.83,0.49 0,0.64 1.3,0.69 1.3,0.05 3.09,-0.2 4.17,-0.18 0.93,-0.9 0.78,-1.11 0.61,-1.3 -0.17,-0.19 -0.35,-0.31 0.37,-1.14 1,-0.35 2.23,-0.84 3.49,-1.4 0.62,-0.31 1.25,-0.62 1.88,-0.89 0.63,-0.27 1.28,-0.49 1.86,-0.75 -0.64,0.41 -1.13,0.6 -1.42,0.78 -0.29,0.18 -0.43,0.27 -0.45,0.33 -0.02,0.06 0.38,0.06 0.85,0 a 2.89,2.89 0 0 1 1.1,-0.06 c 0.13,0.1 -0.11,0.4 -1.2,1 a 6.93,6.93 0 0 0 1.35,-0.63 c 0.4,-0.27 0.8,-0.56 1.26,-0.83 1.22,0.43 -1,1.5 0.66,1.41 l 0.05,-0.82 c 0.78,-0.18 1.48,-0.22 2.32,-0.42 a 11.89,11.89 0 0 0 3.06,-1.49 6.54,6.54 0 0 1 2.13,-2.49 1.38,1.38 0 0 0 1,-0.18 8.67,8.67 0 0 0 2,-1.81 c 1.38,-2.49 0.1,-1.71 -1.65,-0.42 a 25.21,25.21 0 0 1 -2.89,1.9 4.12,4.12 0 0 1 -2.13,0.82 13.12,13.12 0 0 1 -7.41,2.57 34.56,34.56 0 0 0 -3.64,0.29 22.3,22.3 0 0 0 -2.27,0.27 c -0.41,0.07 -0.84,0.16 -1.29,0.25 -0.45,0.09 -1,0.13 -1.47,0.22 -0.58,0.36 -0.76,0.55 -1.09,0.75 a 5,5 0 0 1 -0.68,0.33 12.74,12.74 0 0 1 -1.36,0.37 c -0.78,0.66 0.18,0.77 1.58,0.71 a 27.85,27.85 0 0 1 4.05,-0.38 4.62,4.62 0 0 1 -2.24,0.77 l 1,0.52 c -2.05,0.68 -2.68,0.58 -3.24,0.35 -0.56,-0.23 -1,-0.42 -2.85,0 l 0.79,-0.29 a 16.14,16.14 0 0 1 -2.08,0.46 l 0.5,0.11 c -1.3,0.11 -1.68,0.68 -3.71,0.5 l 1.67,-0.55 c -1.12,0.39 -1.42,-0.39 -3,-0.27 a 16.44,16.44 0 0 1 1.69,-0.61 c -2.31,-0.4 -4.34,-0.57 -6.28,-1 a 28.42,28.42 0 0 1 -5,-1 c -0.81,-0.22 -1.58,-0.56 -2.36,-0.84 l -1.16,-0.45 c -0.39,-0.15 -0.74,-0.37 -1.11,-0.55 l -2.18,-1.17 c -0.69,-0.44 -1.36,-0.93 -2,-1.39 l -1,-0.71 c -0.31,-0.26 -0.61,-0.54 -0.92,-0.8 L 335,92.11 c 0.15,0.25 0.36,0.52 0.46,0.66 a 4,4 0 0 1 -0.67,-0.43 3.59,3.59 0 0 1 -0.44,-0.51 5,5 0 0 1 -0.54,-1 l -1.18,-1.34 -1,-1.46 c -0.44,-0.46 -0.89,-0.88 -1.29,-1.33 l -1.14,-1.41 -0.58,-0.74 a 6,6 0 0 1 -0.56,-0.81 c -0.35,-0.58 -0.72,-1.2 -1.11,-1.89 0.25,-0.3 0.46,-0.19 0.68,0.12 -0.63,-0.92 -1.11,-1.45 -0.87,-0.31 -0.14,-0.2 -0.26,-0.39 -0.36,-0.58 -0.1,-0.19 -0.17,-0.38 -0.24,-0.55 -0.14,-0.35 -0.25,-0.68 -0.35,-1 a 18.76,18.76 0 0 0 -0.65,-1.83 c 0.65,0.91 1.32,1.79 2,2.66 -0.34,-1.34 -1,-0.94 -1.59,-2.72 -0.59,-1.32 -0.63,-1 -0.6,-0.29 v 0.55 c 0,0.18 0,0.36 0.06,0.52 0,0.32 0,0.55 -0.18,0.52 a 10.78,10.78 0 0 1 -0.42,-1.13 c -0.1,0.5 -0.11,1 -0.16,1.48 q -0.18,-0.47 -0.32,-0.89 c -0.08,-0.29 -0.12,-0.57 -0.17,-0.83 a 12.8,12.8 0 0 1 -0.16,-1.4 9.72,9.72 0 0 1 0.08,-2.07 v 0.47 l 0.09,0.46 0.19,0.92 c 0.52,0.18 0.28,-0.56 -0.06,-1.45 A 6.91,6.91 0 0 1 323.46,72 l 0.12,0.23 c -0.67,-2.78 -0.28,0.7 -0.85,-1.17 l 0.21,-3.49 -0.47,0.64 a 4.52,4.52 0 0 1 -0.19,-0.82 c 0,-0.3 0,-0.64 0,-1 0,-0.7 0,-1.48 0.1,-2.3 0.1,-0.82 0.28,-1.67 0.41,-2.51 l 0.2,-1.26 c 0.06,-0.42 0.19,-0.82 0.26,-1.22 a 11.93,11.93 0 0 0 0.24,-1.48 c 0.06,-0.53 0.08,-1.09 0.19,-1.65 l 0.28,-1.75 a 9.37,9.37 0 0 1 0.4,-1.77 c -0.13,0.19 -0.34,0.49 -0.46,0.71 -0.12,0.22 -0.25,0.36 -0.3,0.19 a 9.15,9.15 0 0 1 0.43,-1.24 c 0.18,-0.45 0.36,-0.9 0.54,-1.28 0.35,-0.75 0.66,-1.16 0.75,-0.53 l 0.07,-0.52 0.11,-0.5 0.23,-1 a 6,6 0 0 1 1,-1.49 l -0.47,0.38 a 19.6,19.6 0 0 1 1,-2.24 c 0.09,0.09 0.78,-0.54 0.19,0.51 a 8.45,8.45 0 0 0 1.29,-1.75 c 0.44,-0.62 0.86,-1.32 1.3,-2.07 a 15.19,15.19 0 0 1 1.57,-2.25 c 0.3,-0.38 0.62,-0.76 1,-1.14 a 10.54,10.54 0 0 1 1.18,-1 L 333,38.2 a 6.13,6.13 0 0 1 2,-1.75 10.45,10.45 0 0 0 2.27,-1.66 h -0.76 a 11.89,11.89 0 0 1 1.36,-1.06 10.72,10.72 0 0 1 1.62,-0.82 c 1,-0.44 1.8,-0.64 1.65,-0.34 -0.31,-1.14 1.13,-0.21 1.76,-1.6 l 1.49,0.4 c 1,-0.75 2.15,-1.29 1.17,-1.49 0.51,-0.07 1,-0.14 1.43,-0.24 0.43,-0.1 0.84,-0.22 1.23,-0.3 a 4,4 0 0 0 1.86,-1 v 0 0 0 a 8.13,8.13 0 0 1 1.22,-0.32 c 0.43,-0.09 0.69,-0.2 0.21,-0.36 4.59,-0.69 2.54,0.57 6.82,0.25 l 0.18,-0.73 a 24.18,24.18 0 0 0 2.5,0.12 c 0.41,0 0.82,0 1.23,0 l 1.2,0.05 c 0.79,0 1.57,0 2.31,0 l 2.1,0.16 0.17,0.69 c 0.87,0.14 0.83,0 0.91,-0.17 0.08,-0.17 0.3,-0.29 1.62,0.14 0.33,0.24 0.59,0.54 0.47,0.67 a 20.94,20.94 0 0 1 2,0.8 l 2.15,1.17 a 22.16,22.16 0 0 1 2.27,1.44 26.39,26.39 0 0 1 2.37,1.67 c -0.1,0.08 -0.58,-0.13 -0.82,-0.24 0.69,0.5 1.63,1.1 2.61,1.71 l 2.7,2 c 0.63,1 1.28,2.14 2,3.26 0.32,0.61 0.65,1.22 1,1.83 a 20.86,20.86 0 0 1 1,1.9 q 0.47,1 1,2 a 8,8 0 0 1 0.47,1 l 0.44,1 0.46,1 0.24,0.51 0.19,0.53 q 0.38,1.05 0.8,2.08 a 16.68,16.68 0 0 1 1,1.4 q 0.48,0.68 1,1.3 c 0.31,0.42 0.65,0.8 0.92,1.18 0.27,0.38 0.54,0.73 0.8,1.05 a 5.94,5.94 0 0 0 3,2.3 4.72,4.72 0 0 0 0.62,-1.79 18.55,18.55 0 0 0 0.34,-3.14 40.07,40.07 0 0 0 -0.29,-4.26 c -0.14,-0.78 -0.3,-1.59 -0.48,-2.45 l -0.29,-1.3 c -0.03,-0.4 -0.18,-0.79 -0.32,-1.27 z"
         id="path400"
         inkscape:connector-curvature="0"
         style="fill:#d8b840" />
      <circle
         class="cls-3"
         cx="359.57999"
         cy="65.260002"
         r="38.669998"
         id="circle402"
         style="fill:#d8b840" />
      <circle
         class="cls-4"
         cx="359.35999"
         cy="63.709999"
         r="36.18"
         transform="rotate(-18.09,359.28354,63.699634)"
         id="circle404"
         style="fill:#ffffff" />
      <path
         class="cls-5"
         d="m 140.13,72.42 a 57.22,57.22 0 0 0 28,6.78 11.33,11.33 0 0 0 7.15,-2 5.79,5.79 0 0 0 2.63,-4.54 8.47,8.47 0 0 0 -0.68,-3.81 6.34,6.34 0 0 0 -1.79,-2.15 10.05,10.05 0 0 0 -4.78,-1.92 53.6,53.6 0 0 0 -7.22,-0.39 81.69,81.69 0 0 0 -14.16,1.94 L 134,59.92 142.83,17.79 h 69.61 L 208,39 h -41.29 l -1.52,8.51 a 70.87,70.87 0 0 1 9.59,-0.68 74.91,74.91 0 0 1 9.25,0.58 53.23,53.23 0 0 1 9,1.89 34,34 0 0 1 15.18,8.88 q 5.67,6 5.67,16.42 A 24.46,24.46 0 0 1 207,92.12 q -11,11.56 -36.51,11.61 -18,0 -32.2,-5.41 a 49.42,49.42 0 0 1 -10.61,-5.57 z"
         id="path406"
         inkscape:connector-curvature="0"
         style="fill:#ffda00" />
      <path
         class="cls-5"
         d="m 226.39,86.61 32,-26.79 q 6.46,-5.41 6.46,-11.29 a 6.87,6.87 0 0 0 -7.09,-7.09 19,19 0 0 0 -6,1 q -10,3.26 -19.39,13.29 L 220,38 q 6.41,-10.61 19.12,-16.5 a 63.83,63.83 0 0 1 27.13,-5.88 q 14.42,0 24.25,6.78 a 23.72,23.72 0 0 1 10.82,20.65 q 0,10.51 -9,19.54 a 81.37,81.37 0 0 1 -9.56,8.33 q -4.89,3.6 -7.62,5.7 h 26.69 v 25.16 h -75.44 z"
         id="path408"
         inkscape:connector-curvature="0"
         style="fill:#ffda00" />
      <path
         class="cls-6"
         d="M 165.82,102.12 A 92.05,92.05 0 0 1 133.08,96.61 51.16,51.16 0 0 1 122.15,90.87 L 121,90.06 134.92,67.3 l 1.25,0.69 a 56,56 0 0 0 27.28,6.59 10,10 0 0 0 6.22,-1.73 4.36,4.36 0 0 0 2,-3.36 6.93,6.93 0 0 0 -0.51,-3.12 4.81,4.81 0 0 0 -1.36,-1.65 8.61,8.61 0 0 0 -4.08,-1.63 52.38,52.38 0 0 0 -7,-0.38 80.89,80.89 0 0 0 -13.87,1.91 l -0.45,0.09 -16.86,-7 9.33,-44.54 h 72.67 l -5,24.17 h -41.25 l -0.94,5.27 a 70.73,70.73 0 0 1 7.75,-0.44 76.78,76.78 0 0 1 9.43,0.59 55,55 0 0 1 9.21,1.94 35.67,35.67 0 0 1 15.84,9.3 c 4,4.26 6.08,10.13 6.08,17.45 A 26,26 0 0 1 203.42,90 c -7.62,8 -20.26,12.08 -37.6,12.12 z M 125,89.19 a 48.29,48.29 0 0 0 9.11,4.61 89.07,89.07 0 0 0 31.67,5.31 c 16.48,0 28.4,-3.78 35.43,-11.15 a 23.12,23.12 0 0 0 6.41,-16.54 c 0,-6.52 -1.77,-11.7 -5.26,-15.39 a 32.72,32.72 0 0 0 -14.53,-8.48 52,52 0 0 0 -8.71,-1.84 73.75,73.75 0 0 0 -9.06,-0.57 69.67,69.67 0 0 0 -9.38,0.67 l -2,0.28 2.11,-11.78 h 41.33 l 3.79,-18.17 h -66.56 l -8.35,39.75 13.72,5.7 a 80.07,80.07 0 0 1 14,-1.88 55.28,55.28 0 0 1 7.43,0.41 11.57,11.57 0 0 1 5.48,2.21 7.85,7.85 0 0 1 2.25,2.67 9.77,9.77 0 0 1 0.85,4.5 c 0,2.14 -1.08,4.07 -3.2,5.73 A 12.82,12.82 0 0 1 163.46,77.6 59.37,59.37 0 0 1 136,71.29 Z"
         id="path410"
         inkscape:connector-curvature="0"
         style="fill:#184f25" />
      <path
         class="cls-6"
         d="M 298.66,100.17 H 220.22 V 82.79 l 32.53,-27.24 c 3.93,-3.29 5.92,-6.7 5.92,-10.15 a 5.37,5.37 0 0 0 -1.58,-4 5.43,5.43 0 0 0 -4,-1.56 17.6,17.6 0 0 0 -5.57,0.92 c -6.39,2.09 -12.7,6.42 -18.77,12.89 l -1.27,1.35 -14,-20 0.5,-0.83 c 4.41,-7.3 11.06,-13 19.78,-17.08 a 65.62,65.62 0 0 1 27.76,-6 c 9.88,0 18.32,2.37 25.1,7 a 25.24,25.24 0 0 1 11.47,21.88 c 0,7.38 -3.17,14.31 -9.42,20.6 A 83.24,83.24 0 0 1 279,69 l -4,3 h 23.72 z m -75.44,-3 h 72.44 V 75 h -29.6 l 3.5,-2.69 c 1.83,-1.4 4.33,-3.28 7.64,-5.72 a 80.3,80.3 0 0 0 9.38,-8.17 c 5.67,-5.71 8.55,-11.93 8.55,-18.49 0,-8.34 -3.33,-14.69 -10.17,-19.41 C 278.7,16.21 270.82,14 261.57,14 a 62.64,62.64 0 0 0 -26.5,5.75 c -7.83,3.62 -13.86,8.7 -18,15.09 l 10.74,15.4 c 6,-6.11 12.32,-10.27 18.73,-12.36 a 20.58,20.58 0 0 1 6.51,-1.07 8.37,8.37 0 0 1 8.59,8.59 c 0,4.37 -2.35,8.56 -7,12.45 l -31.42,26.34 z"
         id="path412"
         inkscape:connector-curvature="0"
         style="fill:#184f25" />
      <path
         class="cls-3"
         d="m 46.34,93.93 a 18.85,18.85 0 0 0 -2.12,-0.21 13.31,13.31 0 0 1 -1.92,-1 C 41.61,92.3 40.86,91.86 40.17,91.41 a 11.41,11.41 0 0 0 -3.34,-1.94 5.89,5.89 0 0 0 0.83,2.06 6.64,6.64 0 0 0 1.48,2.14 22.7,22.7 0 0 0 7.74,3.91 c 2.51,0.74 5.05,1.36 8.54,2.2 a 5.72,5.72 0 0 1 1.71,0.92 12.59,12.59 0 0 0 1.3,0.76 c 0.47,0.25 1,0.51 1.47,0.75 0,0 -0.65,0 -1.44,0 a 16.87,16.87 0 0 0 2.42,0.89 28.1,28.1 0 0 0 2.89,0.51 l 1.52,0.21 1.53,0.09 c 1,0.06 2,0.15 2.94,0.26 a 7.61,7.61 0 0 0 -1.28,0.4 11.41,11.41 0 0 1 1.28,-0.33 c 0.47,-0.12 1,-0.23 1.52,-0.32 0.52,-0.09 1.11,-0.17 1.7,-0.24 l 0.9,-0.09 0.92,-0.16 1.9,-0.3 a 17.69,17.69 0 0 0 1.91,-0.33 c 1.25,-0.3 2.49,-0.56 3.59,-0.87 a 18.15,18.15 0 0 0 1.92,-1.18 q 0.75,-0.23 1.49,-0.48 c 0.48,-0.2 0.95,-0.42 1.42,-0.64 l 1.42,-0.68 a 12.52,12.52 0 0 0 1.41,-0.74 c 0.93,-0.55 1.88,-1.11 2.88,-1.66 1,-0.55 2,-1.27 3.06,-1.91 a 25.37,25.37 0 0 0 2.69,-2.22 l 0.7,-0.65 0.65,-0.73 1.33,-1.53 c 0.22,-0.26 0.45,-0.52 0.67,-0.79 l 0.61,-0.85 1.25,-1.72 a 20.69,20.69 0 0 0 1.17,-1.78 q 0.57,-0.9 1.14,-1.79 a 39.86,39.86 0 0 0 4.2,-14.13 l 0.23,-1.82 c 0.06,-0.61 0.06,-1.21 0.1,-1.82 l 0.11,-1.8 c 0,-0.3 0.05,-0.6 0.05,-0.89 v -0.89 c 0,-1.18 0.05,-2.35 0.06,-3.5 0.01,-1.15 0,-2.29 0,-3.42 a 4.89,4.89 0 0 0 -0.13,-1.33 16.26,16.26 0 0 0 -0.41,-1.62 13.36,13.36 0 0 0 -0.65,-1.75 15.82,15.82 0 0 0 -1,-1.65 12.73,12.73 0 0 0 -0.24,-2.36 c -0.2,-0.82 -0.47,-1.68 -0.79,-2.58 a 14,14 0 0 0 -0.53,-1.36 q -0.33,-0.66 -0.69,-1.35 -0.36,-0.69 -0.76,-1.37 l -0.4,-0.69 -0.47,-0.65 a 36.81,36.81 0 0 0 -8.94,-9 13.66,13.66 0 0 0 -1.65,-1 Q 93.71,27.39 93.33,27.23 A 7.1,7.1 0 0 0 92.58,26.99 11.16,11.16 0 0 0 90.19,26.6 c -0.36,-0.27 -0.71,-0.57 -1.1,-0.8 L 88,25 C 87.21,24.53 86.42,24 85.59,23.59 A 36.63,36.63 0 0 0 80.31,21.37 L 78.93,20.92 78.23,20.7 77.52,20.54 Q 76,20.2 74.6,19.93 A 10.1,10.1 0 0 0 73.15,19.74 L 71.69,19.62 A 21,21 0 0 0 68.76,19.52 39,39 0 0 0 54,22.32 36.83,36.83 0 0 0 40.94,31.14 c -0.26,0.27 -0.61,0.58 -1,0.9 -0.39,0.32 -0.76,0.73 -1.17,1.09 -0.8,0.75 -1.66,1.46 -2.25,1.95 L 35.69,37 c -0.47,0.64 -1,1.23 -1.42,1.88 l -1.27,1.91 -0.65,1 c -0.21,0.32 -0.38,0.66 -0.57,1 l -1.1,2 a 15.12,15.12 0 0 0 -1,2 q -0.43,1 -0.82,2 a 13.74,13.74 0 0 0 -0.61,2.06 c -0.17,0.69 -0.31,1.38 -0.44,2.07 l -0.11,0.69 v 0.66 q 0,0.64 0,1.22 a 17,17 0 0 0 0.11,2 7,7 0 0 0 0.94,2.65 5.13,5.13 0 0 0 2.69,2 37.26,37.26 0 0 1 4.15,-10.46 c 2,-3.41 4,-6.86 6.6,-11.28 a 7.85,7.85 0 0 1 1.39,-1.89 12.75,12.75 0 0 1 2,-1.84 c 0.75,-0.56 1.48,-1.17 2.28,-1.67 0.8,-0.5 1.6,-1 2.34,-1.44 a 18.92,18.92 0 0 0 2,-1.1 l 1,-0.63 c 0.32,-0.2 0.66,-0.36 1,-0.54 a 15.77,15.77 0 0 1 2,-0.9 5.86,5.86 0 0 1 2.09,-0.2 12.23,12.23 0 0 1 1.34,-1 c 0.54,-0.31 1.16,-0.63 1.84,-1 l 1.06,-0.49 c 0.37,-0.16 0.77,-0.26 1.17,-0.39 0.81,-0.24 1.66,-0.5 2.55,-0.71 A 23.88,23.88 0 0 1 77,27.06 c 0.58,0 0,-0.32 1,-0.25 a 50.39,50.39 0 0 1 13,7.24 33.13,33.13 0 0 1 9.75,12.06 c 0.48,1.25 1.12,2.48 1.54,3.85 0.23,0.68 0.52,1.35 0.73,2.06 l 0.57,2.17 c 0.09,0.37 0.21,0.73 0.27,1.11 l 0.17,1.15 c 0.1,0.77 0.24,1.55 0.3,2.33 0.06,0.78 0,1.59 0,2.4 a 10.21,10.21 0 0 1 0,1.21 l -0.17,1.21 a 11.28,11.28 0 0 0 0,2.13 20.54,20.54 0 0 1 -0.33,3 l -0.18,0.43 -0.22,0.42 -0.44,0.83 -0.42,1.68 c -0.14,0.57 -0.4,1.1 -0.59,1.66 l -0.62,1.65 c -0.24,0.53 -0.51,1 -0.75,1.56 -0.24,0.56 -0.49,1 -0.71,1.52 -0.22,0.52 -0.53,0.93 -0.77,1.39 -0.24,0.46 -0.46,0.89 -0.65,1.32 -0.19,0.43 -0.43,0.8 -0.6,1.19 -0.17,0.39 -0.49,0.85 -0.74,1.26 a 8.08,8.08 0 0 1 -0.81,1.17 c -0.59,0.73 -1.19,1.43 -1.78,2.12 -1.31,1.25 -2.54,2.49 -3.85,3.61 l -0.75,0.67 -0.4,0.34 -0.45,0.3 c -0.61,0.41 -1.26,0.83 -1.93,1.25 l -0.51,0.32 -0.55,0.27 -1.11,0.54 a 18.67,18.67 0 0 1 -2.27,1 c -0.78,0.29 -1.54,0.59 -2.29,0.89 -0.75,0.3 -1.52,0.46 -2.23,0.71 l -1,0.38 c -0.34,0.14 -0.68,0.2 -1,0.31 a 15.27,15.27 0 0 0 -1.78,0.67 c -0.53,0.31 -2.4,0.25 -3.6,0.34 A 12.77,12.77 0 0 1 69,99 c -1.23,0 -2,-0.83 -3.17,-0.89 A 40.84,40.84 0 0 1 54.08,95.23 L 52.74,94.7 52.08,94.45 51.46,94.16 c -0.82,-0.38 -1.61,-0.73 -2.37,-1 a 16.33,16.33 0 0 0 -3.87,-1.4 c 0.43,0.53 2.4,2.33 1.12,2.17 z"
         id="path414"
         inkscape:connector-curvature="0"
         style="fill:#d8b840" />
      <path
         class="cls-3"
         d="m 26.47,64.9 c -0.28,0.4 -0.44,-1 -0.43,-1.91 a 9.91,9.91 0 0 1 1.11,2.82 l -0.22,-2.52 c 0.66,-1.35 0.34,2.46 0.56,1 -0.15,-1.37 -0.33,-2.46 -0.67,-1.79 0.2,0.23 0.11,0.83 0.22,1.66 -0.49,0.16 -0.76,-1.2 -1.11,-2 l 0.25,4 z"
         id="path416"
         inkscape:connector-curvature="0"
         style="fill:#d8b840" />
      <path
         class="cls-3"
         d="m 28.77,73.49 -0.28,-0.78 c 0.2,-0.43 0.59,0.29 1,1 -1.34,-3.27 -0.9,0.23 -1.93,-1.7 0.19,-0.14 1.01,1.93 1.21,1.48 z"
         id="path418"
         inkscape:connector-curvature="0"
         style="fill:#d8b840" />
      <path
         class="cls-3"
         d="m 29.13,68.77 a 5.91,5.91 0 0 1 -0.69,-2 c -0.14,-0.6 -0.17,-1.06 -0.57,-1.2 0.08,0.32 0.15,0.65 0.25,1 l 0.33,1 0.66,1.88 z"
         id="path420"
         inkscape:connector-curvature="0"
         style="fill:#d8b840" />
      <path
         class="cls-3"
         d="m 40.51,91.48 c 0.7,0.95 0.35,0.48 1.81,1.69 -0.68,-0.61 -1.38,-1.2 -2,-1.83 z"
         id="path422"
         inkscape:connector-curvature="0"
         style="fill:#d8b840" />
      <path
         class="cls-3"
         d="m 90.87,96.76 c -0.55,0.56 -1,1.11 -1.64,1.66 a 16.06,16.06 0 0 1 -2.51,1.58 11.65,11.65 0 0 0 2.83,-1.85 c 0.69,-0.64 1.14,-1.2 1.32,-1.39 z"
         id="path424"
         inkscape:connector-curvature="0"
         style="fill:#d8b840" />
      <path
         class="cls-3"
         d="m 104.38,78.14 c -0.25,-0.05 0,-0.74 -0.54,0.14 -0.09,0.48 0.75,0.15 -0.26,1.45 z"
         id="path426"
         inkscape:connector-curvature="0"
         style="fill:#d8b840" />
      <path
         class="cls-3"
         d="m 104,76 -0.08,-1.08 C 103.94,74.9 104,75.32 104,76 Z"
         id="path428"
         inkscape:connector-curvature="0"
         style="fill:#d8b840" />
      <path
         class="cls-3"
         d="m 51.65,101.23 h 0.21 l 0.32,0.26 z"
         id="path430"
         inkscape:connector-curvature="0"
         style="fill:#d8b840" />
      <path
         class="cls-3"
         d="m 55.39,102.3 c -0.9,-0.15 -1.82,-0.27 -2.72,-0.46 -0.17,-0.16 -0.33,-0.27 -0.49,-0.4 a 3.67,3.67 0 0 0 1.53,0.3 4.36,4.36 0 0 1 1.68,0.56 z"
         id="path432"
         inkscape:connector-curvature="0"
         style="fill:#d8b840" />
      <path
         class="cls-3"
         d="m 52.23,101.09 -0.37,0.09 a 8.23,8.23 0 0 0 -2.71,-1.23 14.15,14.15 0 0 1 -3.3,-1.75 33.74,33.74 0 0 1 3.36,1.51 c 1.09,0.46 2.12,0.93 3.02,1.38 z"
         id="path434"
         inkscape:connector-curvature="0"
         style="fill:#d8b840" />
      <path
         class="cls-3"
         d="m 50,99.45 a 7.83,7.83 0 0 1 -0.67,-0.69 c -0.73,-0.36 -0.8,-0.11 -0.83,0 l -1.42,-1 c -0.17,-0.39 0.89,0.08 2.14,0.71 0.61,0.34 1.33,0.59 1.94,0.87 l 1.46,0.62 z"
         id="path436"
         inkscape:connector-curvature="0"
         style="fill:#d8b840" />
      <path
         class="cls-3"
         d="m 40.64,86.57 v 0.05 z"
         id="path438"
         inkscape:connector-curvature="0"
         style="fill:#d8b840" />
      <path
         class="cls-3"
         d="m 44.57,88.89 -0.43,0.77 a 7.48,7.48 0 0 0 -1,-0.81 c -0.29,-0.2 -0.52,-0.4 -0.78,-0.58 a 8.29,8.29 0 0 1 -1.74,-1.65 v -0.05 a 3.28,3.28 0 0 1 1.8,1 c 0.31,0.26 0.64,0.54 1,0.8 a 5.23,5.23 0 0 0 1.15,0.52 z"
         id="path440"
         inkscape:connector-curvature="0"
         style="fill:#d8b840" />
      <path
         class="cls-3"
         d="m 58.63,102.36 c -0.54,-0.14 -1,-0.25 -1.5,-0.39 -0.5,-0.14 -0.86,-0.32 -1.21,-0.48 a 3.46,3.46 0 0 1 -1.46,-1 l 1.94,0.58 1,0.29 1,0.2 c -1.63,0.03 -0.04,0.44 0.23,0.8 z"
         id="path442"
         inkscape:connector-curvature="0"
         style="fill:#d8b840" />
      <path
         class="cls-3"
         d="m 62.27,101.52 a 13.82,13.82 0 0 1 -1.82,-0.43 l 0.86,-0.07 c 0.04,0.13 0.34,0.34 0.96,0.5 z"
         id="path444"
         inkscape:connector-curvature="0"
         style="fill:#d8b840" />
      <path
         class="cls-3"
         d="m 61.3,101 c 0,-0.16 0.23,-0.18 0.92,-0.13 A 7.36,7.36 0 0 1 61.3,101 Z"
         id="path446"
         inkscape:connector-curvature="0"
         style="fill:#d8b840" />
      <path
         class="cls-3"
         d="m 57.91,99.45 c 1.27,-0.24 1,0.38 3,0.74 0.03,0.63 -2.01,-0.48 -3,-0.74 z"
         id="path448"
         inkscape:connector-curvature="0"
         style="fill:#d8b840" />
      <polygon
         class="cls-3"
         points="67.06,100.98 66.26,100.76 66.95,100.35 "
         id="polygon450"
         style="fill:#d8b840" />
      <path
         class="cls-3"
         d="m 82,101.68 c -1.08,0 -0.82,-0.2 -0.29,-0.46 0.53,-0.26 1.29,-0.68 1.33,-0.85 z"
         id="path452"
         inkscape:connector-curvature="0"
         style="fill:#d8b840" />
      <path
         class="cls-3"
         d="m 68.52,99.48 -0.63,0.53 -0.31,-0.32 a 4,4 0 0 0 -1.72,0.12 c -0.35,-0.68 1.69,-0.24 2.66,-0.33 z"
         id="path454"
         inkscape:connector-curvature="0"
         style="fill:#d8b840" />
      <path
         class="cls-3"
         d="M 76.29,100.36 A 14.14,14.14 0 0 0 78.12,99.6"
         id="path456"
         inkscape:connector-curvature="0"
         style="fill:#d8b840" />
      <path
         class="cls-3"
         d="m 64.36,97.07 c 0,-0.25 2.64,-0.64 -0.29,-0.85 1.13,0.09 2.71,0.37 1.76,-0.26 1.8,0.13 0.07,0.64 1.27,1 -0.99,-0.36 -1.82,0.11 -2.74,0.11 z"
         id="path458"
         inkscape:connector-curvature="0"
         style="fill:#d8b840" />
      <path
         class="cls-3"
         d="m 68.92,96.9 0.7,-0.07 0.7,-0.12 a 2.39,2.39 0 0 1 1.12,0 c -0.92,0.08 -1.73,0.69 -2.52,0.19 z"
         id="path460"
         inkscape:connector-curvature="0"
         style="fill:#d8b840" />
      <path
         class="cls-3"
         d="m 69.74,95.5 c -0.41,0.17 -0.82,0.3 -1.24,0.46 l 0.77,-0.59 c 0.15,0.04 0.31,0.1 0.47,0.13 z"
         id="path462"
         inkscape:connector-curvature="0"
         style="fill:#d8b840" />
      <line
         class="cls-3"
         x1="88.349998"
         y1="94.620003"
         x2="88.709999"
         y2="95.349998"
         id="line464"
         style="fill:#d8b840" />
      <path
         class="cls-3"
         d="m 74.81,95 -1.54,0.2 c -0.52,0.06 -1,0 -1.56,0.06 l 1.38,-0.25 1.35,-0.39 c 1.72,0.1 1,0.43 -0.22,0.83 0.32,-0.1 0.55,-0.25 0.59,-0.45 z"
         id="path466"
         inkscape:connector-curvature="0"
         style="fill:#d8b840" />
      <path
         class="cls-3"
         d="m 71.57,96.42 -1,-0.18 a 14.85,14.85 0 0 1 2.61,-0.41 c -0.77,0.17 -1.51,0.38 -1.61,0.59 z"
         id="path468"
         inkscape:connector-curvature="0"
         style="fill:#d8b840" />
      <path
         class="cls-3"
         d="m 73.21,95.83 1,-0.34 a 7.32,7.32 0 0 1 -1,0.34 z"
         id="path470"
         inkscape:connector-curvature="0"
         style="fill:#d8b840" />
      <path
         class="cls-3"
         d="m 95.46,89.8 -1.16,1.13 c -0.2,0.19 -0.38,0.39 -0.59,0.56 L 93.08,92 c 0.21,-0.22 0.42,-0.43 0.62,-0.62 0.2,-0.19 0.38,-0.4 0.57,-0.59 a 11.56,11.56 0 0 1 1.19,-0.99 z"
         id="path472"
         inkscape:connector-curvature="0"
         style="fill:#d8b840" />
      <path
         class="cls-3"
         d="m 76.88,93.92 0.42,-0.12 0.27,0.57 C 76.68,94.49 76.94,94 76.88,93.92 Z"
         id="path474"
         inkscape:connector-curvature="0"
         style="fill:#d8b840" />
      <path
         class="cls-3"
         d="m 80,91.8 c 0.57,-0.62 2.17,-0.74 2.75,-1 -0.65,0.88 -1.71,1.14 -2.82,1.72 C 81,91.92 80.12,92 80,91.8 Z"
         id="path476"
         inkscape:connector-curvature="0"
         style="fill:#d8b840" />
      <path
         class="cls-3"
         d="m 83,89.7 a 16.27,16.27 0 0 1 -2.21,1 c 0.09,-0.41 0.42,-0.52 0.83,-0.62 A 11.42,11.42 0 0 0 83,89.7 Z"
         id="path478"
         inkscape:connector-curvature="0"
         style="fill:#d8b840" />
      <path
         class="cls-3"
         d="m 86.49,88 c 0.22,-0.06 0.18,0.18 0.62,0 -0.17,0.4 -1,0.75 -1.45,1.13 z"
         id="path480"
         inkscape:connector-curvature="0"
         style="fill:#d8b840" />
      <path
         class="cls-3"
         d="m 65.75,99.07 2.45,0.2 a 24.16,24.16 0 0 1 -3.66,0.1 7.37,7.37 0 0 1 1.21,-0.3 z"
         id="path482"
         inkscape:connector-curvature="0"
         style="fill:#d8b840" />
      <path
         class="cls-3"
         d="m 29.89,44 c 1.39,-1.8 3.14,-4.39 5.15,-6.78 l 1.5,-1.77 c 0.48,-0.59 1.05,-1.09 1.55,-1.61 l 1.45,-1.47 c 0.47,-0.45 1,-0.82 1.37,-1.18 a 31.66,31.66 0 0 1 10,-6.32 c 1,-0.37 1.94,-0.8 3,-1.11 L 57,22.84 c 1,-0.27 2.07,-0.42 3.09,-0.64 0.52,-0.09 1,-0.22 1.54,-0.29 L 63.17,21.73 63,21.49 c 0.8,-0.16 1.62,-0.32 2.48,-0.45 0.86,-0.13 1.75,-0.11 2.66,-0.15 h 1.37 c 0.46,0 0.92,0.05 1.39,0.08 l 2.82,0.22 c 0.94,0.15 1.88,0.34 2.81,0.51 l 1.4,0.27 1.36,0.39 c 0.9,0.27 1.81,0.5 2.68,0.79 l 2.54,1 -0.48,0.18 c -1.13,-0.36 -2.58,-0.88 -1.86,-0.15 1.51,0.4 3.55,1 4.06,1 l 0.89,1 c 0.51,0.1 0.7,-0.19 1.06,-0.31 0.36,-0.12 0.93,-0.12 2,0.78 a 3.07,3.07 0 0 0 1.25,1.2 c 0.29,0.17 0.6,0.34 0.92,0.49 0.32,0.15 0.62,0.35 0.93,0.52 1.21,0.68 2.26,1.3 1.86,1.88 0.72,0 1.41,0.64 2.1,1.34 0.69,0.7 1.31,1.5 1.76,2 -0.37,-0.08 -0.73,-0.16 -1.1,-0.23 1.09,0.91 2.27,1.72 3.28,2.47 a 10.25,10.25 0 0 1 2.08,2.14 26.5,26.5 0 0 1 1.51,2.49 23.38,23.38 0 0 1 1.47,2.83 l 0.66,1.49 a 12.83,12.83 0 0 1 0.59,1.5 c 0.32,1 0.62,2 0.87,3 1,0.6 -1.4,-3.85 0.2,-1.74 0.4,1.87 0.72,3.9 1.24,6 0.16,1.07 0.35,2.16 0.55,3.28 l 0.15,0.84 0.08,0.85 0.17,1.73 a 30.84,30.84 0 0 1 -1.6,13.86 c 0,-0.27 0.14,-1.06 -0.12,-0.53 a 3.82,3.82 0 0 1 -0.2,1.43 c -0.15,0.5 -0.34,1 -0.56,1.56 -0.22,0.56 -0.42,1.14 -0.72,1.73 a 19.29,19.29 0 0 0 -0.8,1.94 5.68,5.68 0 0 1 0.63,-2.4 l 0.93,-3 c -0.73,0.21 -0.71,0.4 -0.72,1 a 5.33,5.33 0 0 1 -0.12,1.15 5,5 0 0 1 -0.26,0.86 10.29,10.29 0 0 1 -0.57,1.05 c 0.05,-0.26 0.15,-0.77 0,-0.79 -0.89,1.56 -0.87,2 -0.81,2.27 a 1.12,1.12 0 0 1 0,0.54 2.35,2.35 0 0 1 -0.16,0.47 7,7 0 0 1 -0.45,0.7 l 0.22,-0.75 c 0.06,-0.26 0.11,-0.52 0.16,-0.77 a 5.94,5.94 0 0 1 -0.64,1.15 1.93,1.93 0 0 1 -0.34,0.38 8.15,8.15 0 0 0 -1.26,1.42 c 0.4,0 0.52,0.37 0.48,0.85 a 3.28,3.28 0 0 1 -0.48,1.37 c -0.46,0.11 -2,2.62 -2.32,1.91 a 7.86,7.86 0 0 1 -2.49,3.41 9,9 0 0 0 -2.73,3 c -0.78,0.25 -0.58,-0.1 -0.25,-0.54 0.33,-0.44 0.74,-1.06 0.53,-1.19 a 16.87,16.87 0 0 0 -1.35,1.06 c -0.21,0.22 -0.2,0.34 -0.12,0.44 0.08,0.1 0.58,0.27 0.12,0.75 -1,0.59 -5.06,3 -6.74,4.24 l -0.34,-0.38 a 22,22 0 0 1 -2.25,1.42 l -2.59,1.25 c -0.83,0.44 -1.66,0.7 -2.31,1 a 5.55,5.55 0 0 0 -1.42,0.81 c -1.44,-0.39 1,-1 3.12,-1.58 0.32,-0.45 -1.91,-0.09 -2.9,0.3 0.53,-0.14 0.63,-0.49 1.28,-0.41 0,-0.46 -1.41,0.19 -2,0.22 -0.9,0.29 -1.27,0.34 -1.33,0.4 -0.06,0.06 0.2,0 0.52,0 0.64,-0.05 1.55,-0.2 0.81,0.13 l -0.61,0.1 -0.73,0.08 c -0.51,0.06 -1,0.12 -1.47,0.15 -0.88,0.06 -1.4,0 -0.72,-0.42 -1.47,0.23 -1.75,0.38 -1.85,0.6 -0.1,0.22 0,0.46 -0.78,0.63 a 7.14,7.14 0 0 1 1.51,-0.21 10,10 0 0 1 1.18,0 4.3,4.3 0 0 0 2.22,-0.42 c 0.65,0.14 0.47,0.36 -0.27,0.67 -1.28,0.1 -3.1,0.58 -4.64,0.62 -1.54,0.04 -2.73,0.14 -2.69,-0.2 -0.42,0.15 -0.85,0.27 -1.28,0.4 l -1.21,-0.46 -0.53,0.1 a 12.36,12.36 0 0 1 2.39,-0.74 6.82,6.82 0 0 0 1.21,-0.39 4,4 0 0 0 0.9,-0.47 c 0.08,-0.16 -0.26,-0.18 -0.73,-0.17 h -0.76 a 6.22,6.22 0 0 1 -0.71,0 l -0.66,0.53 a 3.05,3.05 0 0 1 -1.94,-0.53 3.52,3.52 0 0 0 -0.89,-0.37 6,6 0 0 0 -1.59,-0.29 c 0.83,0.49 0,0.64 -1.3,0.69 -1.3,0.05 -3.09,-0.2 -4.17,-0.18 -0.93,-0.9 -0.78,-1.11 -0.61,-1.3 0.17,-0.19 0.35,-0.31 -0.37,-1.14 -1,-0.35 -2.23,-0.84 -3.49,-1.4 -0.62,-0.31 -1.25,-0.62 -1.88,-0.89 -0.63,-0.27 -1.28,-0.49 -1.86,-0.75 0.64,0.41 1.13,0.6 1.42,0.78 0.29,0.18 0.43,0.27 0.45,0.33 0.02,0.06 -0.38,0.06 -0.85,0 a 2.89,2.89 0 0 0 -1.1,-0.06 c -0.13,0.1 0.11,0.4 1.2,1 A 6.93,6.93 0 0 1 50,98.11 c -0.4,-0.27 -0.8,-0.56 -1.26,-0.83 -1.22,0.43 1,1.5 -0.66,1.41 L 48.03,97.87 C 47.25,97.69 46.55,97.65 45.71,97.45 A 11.89,11.89 0 0 1 42.68,96 a 6.54,6.54 0 0 0 -2.15,-2.55 1.38,1.38 0 0 1 -1,-0.18 8.67,8.67 0 0 1 -2,-1.81 c -1.38,-2.49 -0.1,-1.71 1.65,-0.42 a 25.21,25.21 0 0 0 2.89,1.9 4.12,4.12 0 0 0 2.13,0.82 13.12,13.12 0 0 0 7.41,2.57 34.56,34.56 0 0 1 3.64,0.29 22.3,22.3 0 0 1 2.27,0.27 c 0.41,0.07 0.84,0.16 1.29,0.25 0.45,0.09 1,0.13 1.47,0.22 0.58,0.36 0.76,0.55 1.09,0.75 a 5,5 0 0 0 0.68,0.33 12.74,12.74 0 0 0 1.36,0.37 c 0.78,0.66 -0.18,0.77 -1.58,0.71 a 27.85,27.85 0 0 0 -4.05,-0.38 4.62,4.62 0 0 0 2.24,0.77 l -1,0.52 c 2.05,0.68 2.68,0.58 3.24,0.35 0.56,-0.23 1,-0.42 2.85,0 l -0.79,-0.29 a 16.14,16.14 0 0 0 2.08,0.46 l -0.5,0.11 c 1.3,0.11 1.68,0.68 3.71,0.5 L 67.94,101 c 1.12,0.39 1.42,-0.39 3,-0.27 a 16.44,16.44 0 0 0 -1.69,-0.61 c 2.31,-0.4 4.34,-0.57 6.28,-1 a 28.42,28.42 0 0 0 5,-1 c 0.81,-0.22 1.58,-0.56 2.36,-0.84 L 84,96.79 c 0.39,-0.15 0.74,-0.37 1.11,-0.55 l 2.18,-1.17 c 0.69,-0.44 1.36,-0.93 2,-1.39 l 1,-0.71 c 0.31,-0.26 0.61,-0.54 0.92,-0.8 l 1.8,-1.62 c -0.15,0.25 -0.36,0.52 -0.46,0.66 a 4,4 0 0 0 0.67,-0.43 3.59,3.59 0 0 0 0.44,-0.51 5,5 0 0 0 0.54,-1 l 1.18,-1.34 1,-1.46 c 0.44,-0.46 0.89,-0.88 1.29,-1.33 l 1.14,-1.41 0.58,-0.74 a 6,6 0 0 0 0.56,-0.81 c 0.35,-0.58 0.72,-1.2 1.11,-1.89 -0.25,-0.3 -0.46,-0.19 -0.68,0.12 0.63,-0.92 1.11,-1.45 0.87,-0.31 0.14,-0.2 0.26,-0.39 0.36,-0.58 0.1,-0.19 0.17,-0.38 0.24,-0.55 0.14,-0.35 0.25,-0.68 0.35,-1 a 18.76,18.76 0 0 1 0.65,-1.83 c -0.65,0.91 -1.32,1.79 -2,2.66 0.34,-1.34 1,-0.94 1.59,-2.72 0.59,-1.32 0.63,-1 0.6,-0.29 v 0.55 c 0,0.18 0,0.36 -0.06,0.52 0,0.32 0,0.55 0.18,0.52 a 10.78,10.78 0 0 0 0.42,-1.13 c 0.1,0.5 0.11,1 0.16,1.48 q 0.18,-0.47 0.32,-0.89 c 0.08,-0.29 0.12,-0.57 0.17,-0.83 a 12.8,12.8 0 0 0 0.16,-1.4 9.72,9.72 0 0 0 -0.08,-2.07 v 0.47 l -0.09,0.46 -0.19,0.92 c -0.52,0.18 -0.28,-0.56 0.06,-1.45 a 6.91,6.91 0 0 0 0.46,-2.5 l -0.12,0.23 c 0.67,-2.78 0.28,0.7 0.85,-1.17 l -0.21,-3.49 0.47,0.64 a 4.52,4.52 0 0 0 0.19,-0.82 c 0,-0.3 0,-0.64 0,-1 0,-0.7 0,-1.48 -0.1,-2.3 -0.1,-0.82 -0.28,-1.67 -0.41,-2.51 l -0.2,-1.26 c -0.06,-0.42 -0.19,-0.82 -0.26,-1.22 A 11.93,11.93 0 0 1 104.6,56 c -0.06,-0.53 -0.08,-1.09 -0.19,-1.65 l -0.28,-1.75 a 9.37,9.37 0 0 0 -0.4,-1.77 c 0.13,0.19 0.34,0.49 0.46,0.71 0.12,0.22 0.25,0.36 0.3,0.19 a 9.15,9.15 0 0 0 -0.43,-1.24 c -0.18,-0.45 -0.36,-0.9 -0.54,-1.28 -0.35,-0.75 -0.66,-1.16 -0.75,-0.53 l -0.07,-0.52 -0.11,-0.5 -0.23,-1 a 6,6 0 0 0 -1,-1.49 l 0.47,0.38 a 19.6,19.6 0 0 0 -1,-2.24 c -0.09,0.09 -0.78,-0.54 -0.19,0.51 A 8.45,8.45 0 0 1 99.35,42.07 C 98.91,41.45 98.49,40.75 98.05,40 a 15.19,15.19 0 0 0 -1.57,-2.25 c -0.3,-0.38 -0.62,-0.76 -1,-1.14 a 10.54,10.54 0 0 0 -1.18,-1 l 0.74,1.06 a 6.13,6.13 0 0 0 -2,-1.75 10.45,10.45 0 0 1 -2.27,-1.66 h 0.76 A 11.89,11.89 0 0 0 90.17,32.2 10.72,10.72 0 0 0 88.55,31.38 c -1,-0.44 -1.8,-0.64 -1.65,-0.34 0.31,-1.14 -1.13,-0.21 -1.76,-1.6 l -1.49,0.4 c -1,-0.75 -2.15,-1.29 -1.17,-1.49 -0.51,-0.07 -1,-0.14 -1.43,-0.24 -0.43,-0.1 -0.84,-0.22 -1.23,-0.3 a 4,4 0 0 1 -1.86,-1 v 0 0 0 a 8.13,8.13 0 0 0 -1.22,-0.32 c -0.43,-0.09 -0.69,-0.2 -0.21,-0.36 -4.59,-0.69 -2.54,0.57 -6.82,0.25 l -0.18,-0.73 a 24.18,24.18 0 0 1 -2.5,0.12 c -0.41,0 -0.82,0 -1.23,0 l -1.2,0.05 c -0.79,0 -1.57,0 -2.31,0 l -2.1,0.16 -0.17,0.69 c -0.87,0.14 -0.83,0 -0.91,-0.17 -0.08,-0.17 -0.3,-0.29 -1.62,0.14 -0.33,0.24 -0.59,0.54 -0.47,0.67 a 20.94,20.94 0 0 0 -2,0.8 l -2.15,1.17 a 22.16,22.16 0 0 0 -2.27,1.44 26.39,26.39 0 0 0 -2.37,1.67 c 0.1,0.08 0.58,-0.13 0.82,-0.24 -0.69,0.5 -1.63,1.1 -2.61,1.71 l -2.7,2 c -0.63,1 -1.28,2.14 -2,3.26 -0.32,0.61 -0.65,1.22 -1,1.83 a 20.86,20.86 0 0 0 -1,1.9 q -0.47,1 -1,2 a 8,8 0 0 0 -0.47,1 l -0.44,1 -0.46,1 -0.24,0.51 -0.19,0.53 q -0.38,1.05 -0.8,2.08 a 16.68,16.68 0 0 0 -1,1.4 q -0.48,0.68 -1,1.3 c -0.31,0.42 -0.65,0.8 -0.92,1.18 -0.27,0.38 -0.54,0.73 -0.8,1.05 a 5.94,5.94 0 0 1 -3,2.3 A 4.72,4.72 0 0 1 28.8,56.41 18.55,18.55 0 0 1 28.46,53.27 40.07,40.07 0 0 1 28.71,49 c 0.14,-0.78 0.3,-1.59 0.48,-2.45 l 0.29,-1.3 C 29.6,44.84 29.75,44.4 29.89,44 Z"
         id="path484"
         inkscape:connector-curvature="0"
         style="fill:#d8b840" />
      <circle
         class="cls-3"
         cx="68.519997"
         cy="63.700001"
         r="38.669998"
         id="circle486"
         style="fill:#d8b840" />
      <circle
         class="cls-4"
         cx="68.5"
         cy="62.150002"
         r="36.18"
         transform="rotate(-71.91,68.506834,62.146653)"
         id="circle488"
         style="fill:#ffffff" />
      <path
         class="cls-6"
         d="m 71.21,173.89 q -2.65,2.89 -8.47,4.71 A 38.84,38.84 0 0 1 51.12,180.42 26.85,26.85 0 0 1 31.87,173 Q 24.1,165.6 24.1,153.62 a 34.61,34.61 0 0 1 2.64,-12.9 25.84,25.84 0 0 1 8.68,-11.16 q 6,-4.55 16.2,-4.55 a 31.21,31.21 0 0 1 11.82,2 24.74,24.74 0 0 1 7.56,4.47 l 1.29,12.52 -9,0.83 -1.16,-7.11 a 16.67,16.67 0 0 0 -5.21,-2.15 24.52,24.52 0 0 0 -5.79,-0.74 14,14 0 0 0 -11,4.63 Q 36,144.05 36,152.9 q 0,9.34 4.46,13.56 a 16,16 0 0 0 11.41,4.22 q 6.53,0 10.25,-2.23 l 1.16,-8 9,0.83 z"
         id="path490"
         inkscape:connector-curvature="0"
         style="fill:#184f25" />
      <path
         class="cls-6"
         d="M 123,179.6 H 82.7 v -9.42 h 5.79 V 135.29 H 82.7 v -9.42 h 24.39 v 9.42 h -7.52 v 34.89 h 14.05 l 1.65,-10.42 9.42,0.83 z"
         id="path492"
         inkscape:connector-curvature="0"
         style="fill:#184f25" />
      <path
         class="cls-6"
         d="M 155.62,179.6 H 133 v -9.42 h 5.79 V 135.29 H 133 v -9.42 h 22.65 v 9.42 h -5.79 v 34.89 h 5.79 z"
         id="path494"
         inkscape:connector-curvature="0"
         style="fill:#184f25" />
      <path
         class="cls-6"
         d="m 234.81,135.29 h -6.61 v 34.89 h 5.8 v 9.42 h -21.59 v -9.42 h 4.71 v -20.5 h -0.33 l -14.14,25.54 H 198 l -15.21,-26.54 h -0.33 v 21.49 h 5.13 v 9.42 h -21.23 v -9.42 h 5.79 v -34.88 h -6.61 v -9.42 h 15.87 l 19.1,33.31 h 0.33 l 17.94,-33.31 h 16 z"
         id="path496"
         inkscape:connector-curvature="0"
         style="fill:#184f25" />
      <path
         class="cls-6"
         d="m 298.3,179.6 h -21.41 v -9.42 h 4.3 l -2,-5.46 h -18.26 l -2.23,5.46 h 5 v 9.42 h -21.12 v -9.42 h 4.88 l 15.38,-34.89 h -7.44 v -9.42 h 18.43 l 19.34,44.31 h 5.13 z m -22.07,-22.82 -5.62,-15.13 h -0.5 l -6,15.13 z"
         id="path498"
         inkscape:connector-curvature="0"
         style="fill:#184f25" />
      <path
         class="cls-6"
         d="m 349.22,144 -9.42,0.83 -1.65,-9.59 h -8.51 v 34.89 h 8.76 v 9.42 h -28.11 v -9.42 h 8.27 V 135.29 H 310 l -1.65,9.59 -9.35,-0.88 1.65,-18.19 h 47 z"
         id="path500"
         inkscape:connector-curvature="0"
         style="fill:#184f25" />
      <path
         class="cls-6"
         d="M 399.89,179.6 H 358.4 v -9.42 h 5.79 v -34.89 h -5.79 v -9.42 h 41 l 1.65,15.71 -9.42,0.83 -1.63,-7.12 h -14.74 v 12.65 h 22.65 v 9.34 h -22.65 v 12.9 h 15.21 l 1.65,-7.11 9.42,0.83 z"
         id="path502"
         inkscape:connector-curvature="0"
         style="fill:#184f25" />
      <polygon
         class="cls-1"
         points="390.67,220.68 385.22,216.43 385.75,215.12 386.82,214.59 393.7,217.77 396.06,219.01 401.96,212.69 407.65,206.23 405.37,203.97 397,198.74 387.25,197.11 379.09,198.52 371.99,202.76 367.57,209.55 366,217.52 368.05,225.57 372.8,231.75 381.27,235.87 388.44,240.64 387.38,242.33 385.47,243.34 377.73,238.84 374.04,236.33 369.02,243.47 362.69,250.69 364.94,253.01 373.98,259.54 384.74,262.16 393.41,260.49 400.9,255.83 406.06,249.03 407.82,240.71 405.56,231.68 399.68,225.31 "
         id="polygon504"
         style="fill:#00a45c" />
      <polyline
         class="cls-7"
         points="367.37 218.85 367.38 218.9 367.37 218.85"
         id="polyline506"
         style="fill:#3ba67b" />
      <polygon
         class="cls-8"
         points="93.21,229.66 96.04,222.19 103.5,219.51 111.63,223.2 116.44,218.96 121.22,214.63 125.55,209.97 119.31,204.8 111.86,200.93 103.5,199.97 95.84,201.05 88.62,203.87 82.38,208.53 77.57,214.68 74.6,221.91 73.96,229.66 74.63,237.39 77.73,244.54 82.4,250.76 88.73,255.25 95.85,258.22 103.5,259.17 111.27,258.47 118.31,255.13 124.79,250.44 119.78,246.24 115.22,241.67 110.34,237.57 103.5,239.85 96.33,236.83 "
         id="polygon508"
         style="fill:#a2c636" />
      <g
         class="cls-9"
         id="g514"
         style="mix-blend-mode:multiply">
        <polygon
           class="cls-1"
           points="168.2,214.79 168.05,222.19 168.4,229.59 167.94,237 167.95,244.41 168.25,251.81 168.2,259.28 161.21,259.04 154.27,259.48 147.22,259.33 147.13,251.82 147.41,244.42 147.54,237.02 147.06,229.61 147.26,222.21 147.18,214.8 147.3,207.4 147.29,199.94 154.27,200.16 161.2,200.09 168.09,200.03 168.28,207.39 "
           id="polygon510"
           style="fill:#00a45c" />
        <polygon
           class="cls-3"
           points="168.62,221.2 161.37,221.24 154.12,221.17 146.87,221.46 139.61,221.02 132.33,221.25 132.55,214.15 132.42,207.07 132.47,200.11 139.6,199.88 146.85,200.1 154.1,199.73 161.35,199.92 168.61,199.82 175.87,200.19 183.22,199.89 183.26,207.06 183.09,214.15 183.05,221.15 175.88,221.33 "
           id="polygon512"
           style="fill:#d8b840" />
      </g>
      <polygon
         class="cls-8"
         points="214.09,214.79 214.01,222.19 214.16,229.59 214.35,237 213.91,244.41 213.95,251.81 214.2,259.31 207.18,259.44 200.25,259.44 193.26,259.28 193.51,251.82 193.61,244.42 193.03,237.02 193.56,229.61 193.26,222.21 193.49,214.8 193.06,207.4 193.38,200.04 200.25,199.9 207.18,200 214.02,200.07 213.98,207.39 "
         id="polygon516"
         style="fill:#a2c636" />
      <polygon
         class="cls-1"
         points="340.26,252.98 333.92,249.9 327.79,246.46 321.64,243.03 315.68,239.28 309.31,236.25 303.18,232.8 297.17,229.12 290.68,225.98 290.96,219.1 290.75,212.37 290.98,205.64 290.89,199.03 296.87,202.5 303.21,205.57 309.23,209.21 315.49,212.43 321.66,215.81 327.64,219.53 333.8,222.92 340.09,226.09 346.22,229.56 352.2,233.13 352.29,239.76 352.27,246.49 352.3,253.22 352.44,259.92 346.32,256.55 "
         id="polygon518"
         style="fill:#00a45c" />
      <g
         class="cls-9"
         id="g522"
         style="mix-blend-mode:multiply">
        <polygon
           class="cls-5"
           points="311.5,224.37 311.62,231.34 311.47,238.31 311.4,245.29 311.55,252.27 311.31,259.14 304.56,259.53 297.69,259.42 290.64,259.42 290.96,251.71 291.11,244.17 290.7,236.63 290.78,229.09 290.8,221.54 290.57,214 290.81,206.45 290.87,198.99 297.68,202.76 304.54,206.62 311.33,210.48 311.4,217.39 "
           id="polygon520"
           style="fill:#ffda00" />
      </g>
      <polygon
         class="cls-3"
         points="331.58,234.51 331.6,227.54 331.91,220.57 331.79,213.6 331.68,206.62 331.76,199.54 338.73,199.49 345.6,199.74 352.31,199.78 352.29,207.18 352.28,214.71 352.16,222.25 352.26,229.79 352.68,237.33 352.36,244.87 352.67,252.41 352.35,259.75 345.5,256.29 338.71,252.32 331.78,248.5 331.84,241.47 "
         id="polygon524"
         style="fill:#d8b840" />
      <path
         class="cls-1"
         d="m 251,199.82 -7.62,1.38 -7.31,2.59 -5.86,5.07 -4.95,5.93 -3.2,7.11 -1,7.75 1.15,7.7 3.28,7 4.56,6.21 6.14,4.67 7.14,2.88 7.63,1.15 7.65,-1.08 7.13,-2.95 6.14,-4.67 5,-5.94 2.47,-7.36 1.4,-7.61 -0.95,-7.73 -3.21,-7.07 -4.83,-6 -6.06,-4.74 -7,-3.28 z m 0,40 -7.48,-2.72 -2.69,-7.48 2.66,-7.52 7.52,-2.8 7.13,3.19 3,7.13 -2.87,7.26 z"
         id="path526"
         inkscape:connector-curvature="0"
         style="fill:#00a45c" />
      <g
         class="cls-10"
         clip-path="url(#clip-path)"
         id="g532">
        <g
           class="cls-9"
           id="g530"
           style="mix-blend-mode:multiply">
          <polygon
             class="cls-8"
             points="235.06,268.9 227.06,268.38 219.07,268.56 219.15,261.23 218.68,253.88 219.46,246.53 218.81,239.18 218.91,231.83 219.31,224.48 218.74,217.13 218.78,209.78 218.72,202.43 218.91,195.07 219.11,187.76 227.06,188.08 235.05,187.73 243.05,188.07 251.23,187.51 250.96,195.06 250.74,202.41 250.87,209.76 251.35,217.11 251.17,224.46 251.2,231.81 251.17,239.16 250.7,246.5 251.04,253.86 250.87,261.22 251.17,268.71 243.05,268.2 "
             id="polygon528"
             style="fill:#a2c636" />
        </g>
      </g>
      <polygon
         class="cls-1"
         points="50.39,252.74 53.77,259.28 60.38,259.46 67.03,259.55 73.56,259.25 70.56,253.46 67.55,247.54 64.48,241.65 61.75,235.58 58.93,229.55 55.61,223.79 52.65,217.84 49.64,211.92 46.7,205.95 43.77,200.27 40.73,205.89 37.54,211.72 34.6,217.68 31.7,223.66 28.77,229.63 25.79,235.57 22.88,241.54 19.84,247.45 16.65,253.28 13.85,259.34 20.51,259.4 27.15,259.18 33.79,259.32 37.22,252.79 40.48,246.16 43.77,239.84 47.09,246.13 "
         id="polygon534"
         style="fill:#00a45c" />
      <g
         class="cls-11"
         clip-path="url(#clip-path-2)"
         id="g538">
        <polygon
           class="cls-5"
           points="30.5,272.56 23.87,272.67 17.23,272.76 10.38,272.9 10.63,265.31 10.62,257.92 10.71,250.52 10.95,243.12 10.31,235.73 10.57,228.33 10.85,220.93 10.28,213.53 10.53,206.13 10.36,198.72 10.37,191.13 17.22,191.65 23.85,191.66 30.49,191.41 37.13,191.27 43.78,191.31 44.17,198.72 43.48,206.12 43.77,213.51 43.87,220.91 43.73,228.31 43.59,235.7 43.92,243.1 43.53,250.5 43.55,257.9 44.07,265.3 43.92,272.85 37.13,272.73 "
           id="polygon536"
           style="fill:#ffda00" />
      </g>
      <path
         class="cls-12"
         d="m 383.83,38.46 a 40.45,40.45 0 0 1 -8.05,3.92 c -4.08,1.27 -8.56,-0.3 -12.73,-0.62 -3.3,-0.25 -6.06,0.36 -9.32,0.86 -3.93,0.6 -7.59,-0.33 -11.42,-0.16 -2.69,0.12 -4.86,1.19 -4.54,4.2 0.35,3.31 4.94,3.81 7.68,4.07 1.06,0.1 7.9,-0.29 8.14,0.34 0.65,1.65 -4.59,5.72 -5.77,6.66 -4.77,3.81 -10.92,5.62 -15.55,9.7 -1.44,1.27 -3,3.12 -0.77,4.68 2.23,1.56 5.89,-1.38 7.94,-2.39 3.08,-1.52 6,-3.41 9,-5 0.79,-0.39 2,-1.27 2,-0.72 0,0.81 -2.11,2.68 -2.51,3.15 -3.45,4.05 -8.33,8.3 -10.5,13.24 -0.6,1.36 -1,2.86 0.78,3.35 2.62,0.71 7.59,-5.32 9,-6.6 A 64,64 0 0 0 354,70.53 c 0.81,-1 1.08,-1.81 0,-0.29 -0.85,1.25 -1.56,2.65 -2.31,4 -1.17,2 -2.33,4.08 -3.39,6.17 -0.67,1.33 -2.57,4.18 -2.28,5.84 0.24,1.39 0.93,1.85 2.48,1.78 4.33,-0.21 6.63,-7.35 8.67,-10.27 0.78,-1.12 1.39,-2.45 2.2,-3.53 0.81,-1.08 0.14,-1.06 1.93,-2 2.13,-1.13 1.63,-0.29 2,1.84 0.53,2.81 -0.09,6.52 0.78,9.12 0.87,2.6 3.77,3.24 5.09,0.59 1.16,-2.33 1,-5.64 1.33,-8.17 0.59,-4.42 2.47,-7.78 4.63,-11.57 1.42,-2.49 2.46,-5.7 4.6,-7.63 3,-2.67 7.4,-4.2 11,-5.82 a 0.75,0.75 0 0 0 -0.6,-1.37 c -3.94,1.78 -9,3.5 -12.11,6.72 a 13.66,13.66 0 0 0 -2.24,3.8 c -1.37,2.76 -3.16,5.28 -4.56,8 a 22.76,22.76 0 0 0 -2.13,7 c -0.18,1.16 -0.25,8 -1.3,8.44 -3.09,1.43 -2.43,-5.38 -2.63,-6.95 -0.18,-1.4 -0.21,-5 -1.34,-6.11 -5.23,-5.17 -11.11,17.1 -15.24,16.39 -2.12,-0.36 0.08,-3.51 0.82,-5 1.24,-2.51 2.64,-4.93 4,-7.35 0.6,-1 3.84,-4.6 2.2,-5.9 -1.64,-1.3 -4.38,2.91 -5.24,3.77 -2.37,2.37 -4.82,4.66 -7.35,6.86 -0.81,0.7 -4.31,4.25 -4.58,2.86 -0.22,-1.11 3.06,-4.65 3.69,-5.43 1.71,-2.15 3.53,-4.22 5.33,-6.3 0.89,-1 5.46,-4.84 4.61,-6.78 -2,-4.53 -19,11.17 -20.36,6.77 -0.69,-2.15 13,-8.41 14.54,-9.35 3,-1.83 6.78,-4.92 8.38,-8.13 1.2,-2.4 0.14,-3 -2.29,-3.19 -3.15,-0.19 -9.35,1 -12,-1.39 -4.7,-4.33 3.78,-3.64 5.72,-3.52 a 50.48,50.48 0 0 0 10.53,-0.84 c 4.46,-0.64 8.42,0 12.83,0.56 5.77,0.69 9.9,-1.39 14.87,-4.29 0.82,-0.48 0.23,-1.86 -0.6,-1.37 z"
         id="path540"
         inkscape:connector-curvature="0"
         style="fill:#008d41" />
      <path
         class="cls-12"
         d="m 43.52,38.93 c 3.84,2.09 8.14,4.55 12.65,4.17 3.3,-0.27 6.52,-1.23 9.83,-1.45 4,-0.27 7.79,0.82 11.76,1.32 2.63,0.33 5.61,0 8.16,0.5 0.86,0.18 2.52,0.28 2.56,1.7 0.09,2.75 -5.34,2.54 -6.88,2.5 -1.7,0 -7.79,-1.44 -8.66,0.95 -0.76,2.08 3.71,4.82 4.87,5.66 4.72,3.41 10.23,5.43 14.86,9 1.25,1 5.93,4.18 2.7,4.83 -2,0.41 -6.65,-2.49 -8.43,-3.4 -1.78,-0.91 -7.63,-5.44 -9.84,-4.09 -3.74,2.27 9.32,11.78 10.9,13.13 1.25,1.11 5.11,6 2.38,5.82 -2.24,-0.15 -5.48,-3.67 -7,-5 -2.36,-2 -4.62,-4.16 -6.86,-6.31 -0.61,-0.59 -1.73,-2.27 -2.83,-2.06 -3.34,0.64 7.1,14.2 7.51,16.72 0.59,3.68 -4.5,-1 -5.54,-2.7 -1.15,-1.89 -2.24,-3.73 -3.56,-5.5 -1.11,-1.49 -3.67,-6.6 -5.73,-6.78 -3.85,-0.33 -3.19,7.42 -3.24,9.44 0,0.87 0.45,4.3 -0.81,4.59 -1.26,0.29 -1.81,-3.51 -1.9,-4 C 59.91,75.12 60.13,71.85 59.1,69.11 58.37,67.18 56.86,65.42 55.77,63.68 54.24,61.24 53.07,58.3 51.4,55.98 48.46,52 42.21,50.18 38,48.43 a 0.75,0.75 0 0 0 -0.56,1.39 67.1,67.1 0 0 1 9.48,4.42 c 3,1.87 3.92,4.24 5.67,7.2 1.26,2.13 2.71,4.15 3.93,6.29 1.84,3.22 1.78,6.78 2.33,10.42 0.29,1.9 1.35,6.91 4.49,5.14 1,-0.55 0.84,-0.91 1.08,-1.94 0.39,-1.66 -0.9,-11.69 2.47,-11 0.73,0.15 2.47,3.3 2.91,3.89 1.63,2.18 3.07,4.39 4.48,6.72 1.41,2.33 4,7.08 7.41,4.78 1.93,-1.3 1.09,-2.82 0.29,-4.61 a 84.15,84.15 0 0 0 -4.34,-8 q -0.72,-1.22 -1.45,-2.42 c -0.47,-0.77 -0.93,-1.61 -1.45,-2.33 -0.41,-0.56 -1.3,-1.09 -0.73,-0.47 4.08,4.39 9.33,9.89 14.77,12.51 1.18,0.57 2.2,1.12 3.27,0.26 2.3,-1.85 -0.07,-5.12 -1.43,-6.56 -1.36,-1.44 -13.78,-11 -12.72,-12.35 0.91,-1.16 19.66,13 20.55,5.9 0.3,-2.43 -4.41,-5.38 -5.93,-6.46 -5.13,-3.68 -11.65,-5.61 -16.21,-10.07 -2.48,-2.43 -0.94,-2.29 1.89,-2.22 1.54,0 3.07,0.21 4.61,0.21 1.94,0 4.62,-0.07 6.11,-1.56 1.82,-1.83 2.07,-5.07 -0.74,-5.72 -2.81,-0.65 -6.48,0 -9.46,-0.34 -3.51,-0.41 -7,-1.45 -10.5,-1.52 -4.66,-0.09 -9.47,2.12 -14.08,1.64 -3.47,-0.36 -7.08,-2.53 -10.06,-4.15 -0.85,-0.46 -1.4,0.94 -0.56,1.39 z"
         id="path542"
         inkscape:connector-curvature="0"
         style="fill:#008d41" />
    </g>
  </g>
</svg>
