<?xml version="1.0" encoding="UTF-8" standalone="no"?>
<svg
   xmlns:dc="http://purl.org/dc/elements/1.1/"
   xmlns:cc="http://creativecommons.org/ns#"
   xmlns:rdf="http://www.w3.org/1999/02/22-rdf-syntax-ns#"
   xmlns:svg="http://www.w3.org/2000/svg"
   xmlns="http://www.w3.org/2000/svg"
   xmlns:sodipodi="http://sodipodi.sourceforge.net/DTD/sodipodi-0.dtd"
   xmlns:inkscape="http://www.inkscape.org/namespaces/inkscape"
   id="Layer_1"
   data-name="Layer 1"
   viewBox="0 0 165.21565 165.22157"
   version="1.1"
   sodipodi:docname="fareshare.svg"
   width="165.21565"
   height="165.22157"
   inkscape:version="0.92.3 (5aff6ba, 2018-11-25)">
  <metadata
     id="metadata4417">
    <rdf:RDF>
      <cc:Work
         rdf:about="">
        <dc:format>image/svg+xml</dc:format>
        <dc:type
           rdf:resource="http://purl.org/dc/dcmitype/StillImage" />
        <dc:title>fare share</dc:title>
      </cc:Work>
    </rdf:RDF>
  </metadata>
  <sodipodi:namedview
     pagecolor="#ffffff"
     bordercolor="#666666"
     borderopacity="1"
     objecttolerance="10"
     gridtolerance="10"
     guidetolerance="10"
     inkscape:pageopacity="0"
     inkscape:pageshadow="2"
     inkscape:window-width="1863"
     inkscape:window-height="1059"
     id="namedview4415"
     showgrid="false"
     fit-margin-top="0"
     fit-margin-left="0"
     fit-margin-right="0"
     fit-margin-bottom="0"
     inkscape:zoom="4.9118046"
     inkscape:cx="82.150649"
     inkscape:cy="83.085"
     inkscape:window-x="57"
     inkscape:window-y="21"
     inkscape:window-maximized="1"
     inkscape:current-layer="Layer_1" />
  <defs
     id="defs4308">
    <style
       id="style4306">.cls-1{fill:#00a45c;}.cls-2{fill:#fff;}</style>
  </defs>
  <title
     id="title4310">fare share</title>
  <path
     class="cls-1"
     d="m 125.55565,144.64158 a 36.63,36.63 0 0 1 4.12,-0.41 25.87,25.87 0 0 0 3.73,-2 c 1.33,-0.82 2.79,-1.67 4.13,-2.55 2.58,-1.86 5,-3.51 6.49,-3.76 0.18,0.25 -0.6,2.09 -1.61,4 -1.01,1.91 -2.24,3.86 -2.88,4.16 a 44.1,44.1 0 0 1 -15,7.6 c -4.88,1.43 -9.82,2.65 -16.59,4.28 a 11.11,11.11 0 0 0 -3.33,1.8 24.47,24.47 0 0 1 -2.59,1.45 c -0.92,0.49 -1.88,1 -2.860001,1.47 0,0 1.270001,0 2.790001,-0.07 a 32.77,32.77 0 0 1 -4.690001,1.72 54.6,54.6 0 0 1 -5.62,1 l -2.95,0.41 -3,0.17 c -2,0.11 -3.89,0.29 -5.71,0.5 a 14.78,14.78 0 0 1 2.49,0.78 22.16,22.16 0 0 0 -2.49,-0.63 c -0.91,-0.24 -1.9,-0.45 -3,-0.62 -1.1,-0.17 -2.16,-0.33 -3.31,-0.46 l -1.65,-0.2 -1.81,-0.27 -3.69,-0.58 a 34.37,34.37 0 0 1 -3.71,-0.64 c -2.43,-0.58 -4.83,-1.08 -7,-1.7 a 35.26,35.26 0 0 1 -3.72,-2.3 q -1.46,-0.44 -2.9,-0.93 c -0.93,-0.38 -1.85,-0.82 -2.77,-1.24 l -2.76,-1.31 a 24.33,24.33 0 0 1 -2.74,-1.44 c -1.8,-1.07 -3.65,-2.15 -5.6,-3.22 -1.85,-1.23 -3.81,-2.48 -5.95,-3.72 a 49.28,49.28 0 0 1 -5.22,-4.32 l -1.36,-1.26 -1.27,-1.42 -2.59,-3 c -0.43,-0.51 -0.88,-1 -1.31,-1.54 l -1.19,-1.66 -2.41,-3.39 a 40.19,40.19 0 0 1 -2.28,-3.47 q -1.1,-1.76 -2.2199999,-3.47 c -4.48,-8.29 -7.06,-18 -8.17,-27.46 l -0.45,-3.54 c -0.11,-1.18 -0.12,-2.36 -0.19,-3.53 l -0.21,-3.49 c 0,-0.58 -0.11,-1.16 -0.11,-1.73 v -1.72 c 0,-2.29 -0.1,-4.56 -0.12,-6.8 -0.02,-2.24 0.09,-4.44 0,-6.64 a 9.49,9.49 0 0 1 0.25,-2.58 31.59,31.59 0 0 1 0.8,-3.15 26,26 0 0 1 1.27,-3.39 30.74,30.74 0 0 1 2,-3.21 24.73,24.73 0 0 1 0.43,-4.58 c 0.39,-1.59 0.91,-3.27 1.53,-5 a 27.22,27.22 0 0 1 1,-2.64 q 0.64,-1.29 1.35,-2.61 0.71,-1.32 1.4699999,-2.66 l 0.78,-1.34 0.96,-1.32 c 4.6,-7 11.38,-13 17.37,-17.42 a 26.55,26.55 0 0 1 3.2,-2 q 0.77,-0.41 1.49,-0.73 a 13.8,13.8 0 0 1 1.46,-0.47 21.69,21.69 0 0 1 4.65,-0.77 c 0.71,-0.52 1.38,-1.1 2.14,-1.56 l 2.27,-1.4 c 1.54,-0.9099997 3.06,-1.9299997 4.69,-2.7499997 a 71.18,71.18 0 0 1 10.25,-4.3 l 2.69,-0.88 1.35,-0.43 1.35,-0.29 q 2.77,-0.6 5.58,-1.12999996 a 19.62,19.62 0 0 1 2.82,-0.37 l 2.84,-0.23 a 40.84,40.84 0 0 1 5.76,-0.27 75.8,75.8 0 0 1 28.730001,5.44999996 71.56,71.56 0 0 1 25.37,17.1399997 c 0.51,0.52 1.18,1.12 1.93,1.76 0.75,0.64 1.48,1.42 2.27,2.13 1.56,1.46 3.23,2.84 4.37,3.79 l 1.54,3.73 c 0.91,1.24 1.94,2.38 2.76,3.66 l 2.52,3.74 1.26,1.85 c 0.41,0.62 0.74,1.28 1.11,1.91 l 2.14,3.84 a 29.37,29.37 0 0 1 1.85,3.9 q 0.83,2 1.58,3.95 a 26.69,26.69 0 0 1 1.18,4 c 0.32,1.35 0.61,2.69 0.85,4 l 0.22,1.34 0.07,1.29 q 0.06,1.25 0.05,2.36 a 33.09,33.09 0 0 1 -0.22,3.92 13.67,13.67 0 0 1 -1.83,5.15 c -1.53,2.44 -3.46,3.2 -5.23,4 -1.43,-7.13 -4.45,-13.69 -8.07,-20.32 -3.8,-6.63 -7.85,-13.33 -12.82,-21.92 a 15.25,15.25 0 0 0 -2.69,-3.67 24.77,24.77 0 0 0 -3.8,-3.58 c -1.46,-1.08 -2.87,-2.28 -4.43,-3.24 -1.56,-0.96 -3.11,-1.88 -4.54,-2.8 a 36.77,36.77 0 0 1 -3.84,-2.13 l -1.85,-1.25 c -0.62,-0.39 -1.29,-0.7 -1.93,-1 a 30.64,30.64 0 0 0 -3.89,-1.74 11.39,11.39 0 0 0 -4.06,-0.39 23.76,23.76 0 0 0 -2.6,-2 c -1.050001,-0.6 -2.250001,-1.22 -3.570001,-1.86 l -2.07,-1 c -0.72,-0.31 -1.49,-0.5 -2.27,-0.76 -1.57,-0.47 -3.23,-1 -5,-1.37 a 46.4,46.4 0 0 0 -21.22,0.88 c -1.12,0 0,-0.62 -1.91,-0.48 a 97.92,97.92 0 0 0 -25.11,14.02 c -7.74,6.15 -14.71,14 -19,23.43 -0.93,2.42 -2.17,4.81 -3,7.48 -0.45,1.32 -1,2.62 -1.42,4 l -1.11,4.22 c -0.17,0.72 -0.41,1.42 -0.53,2.16 l -0.33,2.23 c -0.2,1.5 -0.47,3 -0.57,4.54 -0.1,1.54 0,3.1 0,4.66 a 19.83,19.83 0 0 0 0.11,2.33 l 0.34,2.34 a 21.91,21.91 0 0 1 0,4.15 39.9,39.9 0 0 0 0.63,5.79 l 0.34,0.84 0.43,0.81 0.85,1.61 0.81,3.26 c 0.28,1.1 0.77,2.14 1.15,3.22 l 1.21,3.2 c 0.46,1 1,2 1.47,3 0.47,1 0.94,2 1.38,2.95 0.44,0.95 1,1.81 1.49,2.69 0.49,0.88 0.9,1.79 1.3,2.62 0.4,0.83 0.84,1.56 1.17,2.32 0.33,0.76 0.94,1.65 1.43,2.45 a 15.7,15.7 0 0 0 1.57,2.28 c 1.15,1.42 2.31,2.79 3.45,4.12 2.54,2.43 4.93,4.84 7.48,7 q 0.69,0.64 1.46,1.31 l 0.78,0.67 0.87,0.59 c 1.19,0.79 2.45,1.61 3.76,2.43 l 1,0.62 1.06,0.52 2.15,1 a 36.27,36.27 0 0 0 4.42,2 c 1.51,0.57 3,1.14 4.45,1.73 1.45,0.59 2.95,0.9 4.33,1.39 q 1,0.36 2,0.73 c 0.65,0.26 1.32,0.39 1.94,0.61 a 29.66,29.66 0 0 1 3.46,1.31 c 1,0.61 4.66,0.49 7,0.65 a 24.82,24.82 0 0 0 3.31,1 c 2.39,-0.1 3.85,-1.61 6.15,-1.74 a 79.35,79.35 0 0 0 22.830001,-5.6 l 2.61,-1 1.28,-0.49 1.2,-0.57 c 1.59,-0.75 3.13,-1.42 4.6,-2 a 31.74,31.74 0 0 1 7.53,-2.72 c -0.83,1 -4.69,4.51 -2.16,4.19 z"
     id="path4312"
     inkscape:connector-curvature="0"
     style="fill:#00a45c" />
  <path
     class="cls-1"
     d="m 164.16565,88.24158 c 0.55,0.77 0.85,-2 0.83,-3.71 a 19.26,19.26 0 0 0 -2.15,5.48 l 0.44,-4.89 c -1.28,-2.61 -0.66,4.79 -1.08,1.88 0.29,-2.67 0.65,-4.79 1.3,-3.49 -0.38,0.45 -0.21,1.61 -0.44,3.22 0.94,0.32 1.47,-2.32 2.15,-3.85 l -0.49,7.85 z"
     id="path4314"
     inkscape:connector-curvature="0"
     style="fill:#00a45c" />
  <path
     class="cls-1"
     d="m 159.68565,104.94158 0.54,-1.52 c -0.4,-0.83 -1.14,0.56 -1.89,1.92 2.6,-6.35 1.75,0.45 3.76,-3.31 -0.43,-0.24 -2.07,3.77 -2.41,2.91 z"
     id="path4316"
     inkscape:connector-curvature="0"
     style="fill:#00a45c" />
  <path
     class="cls-1"
     d="m 159.02565,95.75158 a 11.49,11.49 0 0 0 1.35,-3.91 c 0.27,-1.16 0.33,-2.06 1.1,-2.34 -0.16,0.63 -0.29,1.26 -0.48,1.89 l -0.64,1.86 -1.33,3.65 z"
     id="path4318"
     inkscape:connector-curvature="0"
     style="fill:#00a45c" />
  <path
     class="cls-1"
     d="m 136.87565,139.89158 c -1.35,1.84 -0.68,0.93 -3.53,3.28 1.33,-1.18 2.68,-2.34 4,-3.55 a 4.16,4.16 0 0 1 -0.47,0.27 z"
     id="path4320"
     inkscape:connector-curvature="0"
     style="fill:#00a45c" />
  <path
     class="cls-1"
     d="m 39.025649,150.15158 c 1.06,1.08 2,2.15 3.19,3.23 a 31.2,31.2 0 0 0 4.88,3.13 22.63,22.63 0 0 1 -5.49,-3.6 c -1.34,-1.31 -2.22,-2.4 -2.58,-2.76 z"
     id="path4322"
     inkscape:connector-curvature="0"
     style="fill:#00a45c" />
  <path
     class="cls-1"
     d="m 12.795649,114.01158 c 0.48,-0.1 0,-1.45 1.05,0.27 0.17,0.93 -1.45,0.3 0.51,2.82 z"
     id="path4324"
     inkscape:connector-curvature="0"
     style="fill:#00a45c" />
  <path
     class="cls-1"
     d="m 13.615649,109.74158 0.16,-2.09 c -0.14,0.02 -0.27,0.83 -0.16,2.09 z"
     id="path4326"
     inkscape:connector-curvature="0"
     style="fill:#00a45c" />
  <path
     class="cls-1"
     d="m 115.23565,158.84158 -0.41,-0.1 -0.62,0.5 c 0.32,-0.11 0.62,-0.23 1.03,-0.4 z"
     id="path4328"
     inkscape:connector-curvature="0"
     style="fill:#00a45c" />
  <path
     class="cls-1"
     d="m 107.96565,160.90158 c 1.74,-0.28 3.53,-0.53 5.29,-0.89 0.34,-0.31 0.64,-0.52 1,-0.77 a 7.14,7.14 0 0 1 -3,0.58 8.46,8.46 0 0 0 -3.29,1.08 z"
     id="path4330"
     inkscape:connector-curvature="0"
     style="fill:#00a45c" />
  <path
     class="cls-1"
     d="m 114.11565,158.56158 0.71,0.18 a 16,16 0 0 1 5.26,-2.4 27.49,27.49 0 0 0 6.42,-3.4 65.55,65.55 0 0 0 -6.52,2.93 c -2.14,0.91 -4.13,1.82 -5.87,2.69 z"
     id="path4332"
     inkscape:connector-curvature="0"
     style="fill:#00a45c" />
  <path
     class="cls-1"
     d="m 118.38565,155.38158 a 15.22,15.22 0 0 0 1.3,-1.34 c 1.42,-0.69 1.55,-0.21 1.61,0 l 2.75,-1.9 c 0.32,-0.75 -1.74,0.16 -4.15,1.38 -1.18,0.66 -2.59,1.15 -3.78,1.68 l -2.85,1.21 z"
     id="path4334"
     inkscape:connector-curvature="0"
     style="fill:#00a45c" />
  <path
     class="cls-1"
     d="m 136.63565,130.34158 -0.07,0.1 0.09,-0.11 z"
     id="path4336"
     inkscape:connector-curvature="0"
     style="fill:#00a45c" />
  <path
     class="cls-1"
     d="m 129.02565,134.86158 0.84,1.5 a 14.54,14.54 0 0 1 1.85,-1.58 c 0.56,-0.4 1,-0.78 1.52,-1.13 a 16.1,16.1 0 0 0 3.38,-3.21 l 0.07,-0.1 c -1.16,0 -2.29,0.88 -3.5,1.89 -0.61,0.51 -1.24,1.05 -1.9,1.55 a 10.16,10.16 0 0 1 -2.26,1.08 z"
     id="path4338"
     inkscape:connector-curvature="0"
     style="fill:#00a45c" />
  <path
     class="cls-1"
     d="m 101.66565,161.01158 c 1,-0.26 2,-0.48 2.92,-0.75 0.92,-0.27 1.67,-0.62 2.36,-0.93 a 6.72,6.72 0 0 0 2.83,-1.88 l -3.75,1.16 -1.88,0.56 -1.93,0.39 c 3.07,-0.03 -0.02,0.73 -0.55,1.45 z"
     id="path4340"
     inkscape:connector-curvature="0"
     style="fill:#00a45c" />
  <path
     class="cls-1"
     d="m 94.605649,159.39158 a 26.85,26.85 0 0 0 3.54,-0.84 l -1.66,-0.14 c -0.1,0.27 -0.67,0.67 -1.88,0.98 z"
     id="path4342"
     inkscape:connector-curvature="0"
     style="fill:#00a45c" />
  <path
     class="cls-1"
     d="m 96.475649,158.42158 c 0.09,-0.31 -0.45,-0.34 -1.79,-0.25 a 14.29,14.29 0 0 0 1.79,0.25 z"
     id="path4344"
     inkscape:connector-curvature="0"
     style="fill:#00a45c" />
  <path
     class="cls-1"
     d="m 103.02565,155.37158 c -2.47,-0.47 -1.94,0.73 -5.860001,1.44 0.01,1.2 3.980001,-0.93 5.860001,-1.44 z"
     id="path4346"
     inkscape:connector-curvature="0"
     style="fill:#00a45c" />
  <polygon
     class="cls-1"
     points="95.26,168.33 96.83,167.91 95.49,167.12 "
     id="polygon4348"
     style="fill:#00a45c"
     transform="translate(-9.9743509,-9.9884197)" />
  <path
     class="cls-1"
     d="m 56.305649,159.70158 c 2.09,0 1.59,-0.4 0.57,-0.9 -1.02,-0.5 -2.5,-1.32 -2.58,-1.66 z"
     id="path4350"
     inkscape:connector-curvature="0"
     style="fill:#00a45c" />
  <path
     class="cls-1"
     d="m 82.465649,155.44158 1.22,1 0.6,-0.62 a 7.78,7.78 0 0 1 3.34,0.24 c 0.68,-1.31 -3.28,-0.45 -5.16,-0.62 z"
     id="path4352"
     inkscape:connector-curvature="0"
     style="fill:#00a45c" />
  <path
     class="cls-1"
     d="m 67.355649,157.14158 a 27.47,27.47 0 0 1 -3.56,-1.48"
     id="path4354"
     inkscape:connector-curvature="0"
     style="fill:#00a45c" />
  <path
     class="cls-1"
     d="m 90.545649,150.75158 c 0,-0.49 -5.13,-1.23 0.56,-1.65 -2.2,0.17 -5.27,0.73 -3.41,-0.5 -3.51,0.25 -0.14,1.24 -2.46,1.95 1.9,-0.71 3.51,0.19 5.31,0.2 z"
     id="path4356"
     inkscape:connector-curvature="0"
     style="fill:#00a45c" />
  <path
     class="cls-1"
     d="m 81.685649,150.42158 -1.36,-0.14 c -0.46,-0.08 -0.92,-0.17 -1.36,-0.23 a 4.65,4.65 0 0 0 -2.17,0.06 c 1.77,0.09 3.36,1.29 4.89,0.31 z"
     id="path4358"
     inkscape:connector-curvature="0"
     style="fill:#00a45c" />
  <path
     class="cls-1"
     d="m 80.095649,147.70158 c 0.79,0.33 1.59,0.59 2.4,0.89 l -1.47,-1.14 c -0.32,0.08 -0.63,0.2 -0.93,0.25 z"
     id="path4360"
     inkscape:connector-curvature="0"
     style="fill:#00a45c" />
  <line
     class="cls-1"
     x1="43.925652"
     y1="146.00159"
     x2="43.225651"
     y2="147.40158"
     id="line4362"
     style="fill:#00a45c" />
  <path
     class="cls-1"
     d="m 70.245649,146.80158 3,0.39 c 1,0.11 2,0.07 3,0.12 l -2.68,-0.48 -2.62,-0.76 c -3.35,0.2 -1.88,0.84 0.42,1.62 -0.6,-0.28 -1.06,-0.57 -1.12,-0.89 z"
     id="path4364"
     inkscape:connector-curvature="0"
     style="fill:#00a45c" />
  <path
     class="cls-1"
     d="m 76.525649,149.49158 1.89,-0.35 c 0.07,-0.29 -2.71,-0.4 -5.07,-0.8 1.56,0.39 3,0.73 3.18,1.15 z"
     id="path4366"
     inkscape:connector-curvature="0"
     style="fill:#00a45c" />
  <path
     class="cls-1"
     d="m 73.345649,148.34158 -2,-0.65 a 14.23,14.23 0 0 0 2,0.65 z"
     id="path4368"
     inkscape:connector-curvature="0"
     style="fill:#00a45c" />
  <path
     class="cls-1"
     d="m 30.105649,136.62158 2.26,2.2 c 0.38,0.36 0.74,0.75 1.15,1.09 l 1.23,1 c -0.41,-0.43 -0.81,-0.83 -1.21,-1.2 -0.4,-0.37 -0.74,-0.78 -1.11,-1.14 a 22.46,22.46 0 0 0 -2.32,-1.95 z"
     id="path4370"
     inkscape:connector-curvature="0"
     style="fill:#00a45c" />
  <path
     class="cls-1"
     d="m 66.205649,144.64158 -0.81,-0.23 -0.53,1.1 c 1.75,0.23 1.23,-0.65 1.34,-0.87 z"
     id="path4372"
     inkscape:connector-curvature="0"
     style="fill:#00a45c" />
  <path
     class="cls-1"
     d="m 60.165649,140.51158 c -1.11,-1.21 -4.22,-1.43 -5.34,-2 1.27,1.71 3.33,2.21 5.48,3.34 -2.18,-1.1 -0.39,-0.92 -0.14,-1.34 z"
     id="path4374"
     inkscape:connector-curvature="0"
     style="fill:#00a45c" />
  <path
     class="cls-1"
     d="m 54.415649,136.43158 a 31.61,31.61 0 0 0 4.29,2 c -0.18,-0.79 -0.81,-1 -1.61,-1.21 a 22.2,22.2 0 0 1 -2.68,-0.79 z"
     id="path4376"
     inkscape:connector-curvature="0"
     style="fill:#00a45c" />
  <path
     class="cls-1"
     d="m 47.535649,133.10158 c -0.43,-0.13 -0.35,0.35 -1.21,0.09 0.33,0.78 1.88,1.46 2.82,2.2 z"
     id="path4378"
     inkscape:connector-curvature="0"
     style="fill:#00a45c" />
  <path
     class="cls-1"
     d="m 87.845649,154.63158 -4.82,0.38 a 47,47 0 0 0 7.11,0.2 14.32,14.32 0 0 0 -2.29,-0.58 z"
     id="path4380"
     inkscape:connector-curvature="0"
     style="fill:#00a45c" />
  <path
     class="cls-1"
     d="m 157.50565,47.56158 c -2.7,-3.5 -6.1,-8.54 -10,-13.18 l -2.91,-3.45 c -0.94,-1.15 -2,-2.12 -3,-3.14 l -2.82,-2.85 c -0.92,-0.87 -1.86,-1.6 -2.67,-2.3 -5,-5 -12,-9.14 -19.48,-12.28 -1.91,-0.7199997 -3.78,-1.5599997 -5.75,-2.1499997 l -5.93,-1.7 c -2,-0.53 -4,-0.82 -6.000001,-1.25 -1,-0.18 -2,-0.43 -3,-0.57 l -3,-0.35 0.21,-0.45 c -1.55,-0.31 -3.16,-0.63 -4.82,-0.88 -1.66,-0.25 -3.4,-0.22 -5.16,-0.29 l -2.66,-0.1 c -0.89,0 -1.8,0.1 -2.7,0.16 l -5.48,0.43 c -1.82,0.28 -3.65,0.65 -5.46,1 l -2.72,0.52 -2.65,0.76 c -1.76,0.52 -3.51,1 -5.21,1.53 l -4.93,1.87 0.94,0.34 c 2.2,-0.7 5,-1.71 3.62,-0.28 -2.9,0.77 -6.9,1.8499997 -7.9,1.9099997 l -1.72,1.86 c -1,0.19 -1.35,-0.36 -2.06,-0.6 -0.71,-0.24 -1.8,-0.24 -4,1.51 a 6,6 0 0 1 -2.4,2.38 c -0.56,0.34 -1.16,0.65 -1.79,1 -0.63,0.35 -1.2,0.69 -1.8,1 -2.35,1.33 -4.39,2.53 -3.61,3.66 -1.4,0 -2.75,1.25 -4.07,2.61 -1.32,1.36 -2.55,2.85 -3.42,3.86 0.72,-0.15 1.41,-0.32 2.13,-0.44 -2.11,1.77 -4.4,3.35 -6.37,4.79 a 19.91,19.91 0 0 0 -4,4.16 51.49,51.49 0 0 0 -2.93,4.84 45.43,45.43 0 0 0 -2.9099999,5.52 l -1.27,2.9 a 24.93,24.93 0 0 0 -1.15,2.92 c -0.63,2 -1.2,3.91 -1.7,5.73 -2,1.16 2.72,-7.48 -0.38,-3.39 -0.78,3.64 -1.39,7.58 -2.4,11.66 -0.31,2.08 -0.68,4.2 -1.07,6.36 l -0.3,1.63 -0.16,1.66 -0.33,3.36 c -0.81,9 -0.16,18.73 3.11,26.94 0,-0.52 -0.26,-2.07 0.24,-1 a 7.42,7.42 0 0 0 0.4,2.79 c 0.28,1 0.67,2 1.09,3 0.42,1 0.82,2.22 1.39,3.37 a 37.47,37.47 0 0 1 1.55,3.77 c 0.26,-0.58 -0.39,-2.55 -1.22,-4.67 l -1.85,-5.82 c 1.41,0.42 1.38,0.78 1.39,1.86 a 10.35,10.35 0 0 0 0.24,2.24 9.72,9.72 0 0 0 0.51,1.67 20,20 0 0 0 1.11,2 c -0.1,-0.5 -0.29,-1.49 0,-1.53 1.7299999,3 1.69,3.79 1.57,4.41 a 2.17,2.17 0 0 0 -0.05,1.05 4.56,4.56 0 0 0 0.3199999,0.92 13.64,13.64 0 0 0 0.88,1.36 l -0.43,-1.46 c -0.12,-0.5 -0.21,-1 -0.32,-1.5 a 11.54,11.54 0 0 0 1.24,2.24 3.75,3.75 0 0 0 0.66,0.75 15.83,15.83 0 0 1 2.64,3.09 c -0.77,0 -1,0.72 -0.94,1.65 a 6.37,6.37 0 0 0 0.93,2.66 c 0.9,0.22 4,5.08 4.5,3.71 a 15.27,15.27 0 0 0 4.81,6.67 17.53,17.53 0 0 1 5.3,5.86 c 1.51,0.49 1.13,-0.19 0.48,-1.05 -0.65,-0.86 -1.43,-2.05 -1,-2.31 a 32.77,32.77 0 0 1 2.63,2.06 c 0.4,0.42 0.39,0.67 0.24,0.86 -0.29,0.38 -1.14,0.53 -0.23,1.45 2,1.14 9.84,5.8 13.1,8.25 l 0.66,-0.74 a 42.68,42.68 0 0 0 4.38,2.77 l 5,2.43 c 1.61,0.85 3.22,1.36 4.49,2 a 10.78,10.78 0 0 1 2.76,1.57 c 2.8,-0.76 -2,-1.85 -6.07,-3.07 -0.62,-0.88 3.72,-0.17 5.64,0.59 -1,-0.27 -1.22,-1 -2.49,-0.8 -0.06,-0.89 2.74,0.37 3.88,0.43 1.74,0.57 2.47,0.67 2.58,0.79 0.11,0.12 -0.38,0.09 -1,0.08 -1.24,-0.1 -3,-0.39 -1.58,0.25 0.34,0 0.75,0.12 1.19,0.2 l 1.42,0.16 c 1,0.11 2,0.22 2.86,0.28 1.71,0.12 2.72,0 1.4,-0.82 2.86,0.45 3.41,0.73 3.59,1.16 0.18,0.43 0,0.89 1.52,1.23 a 13.87,13.87 0 0 0 -2.93,-0.42 19.34,19.34 0 0 0 -2.29,-0.08 8.36,8.36 0 0 1 -4.32,-0.82 c -1.27,0.27 -0.92,0.7 0.52,1.3 2.49,0.2 6,1.12 9,1.21 3,0.09 5.31,0.27 5.22,-0.39 0.82,0.3 1.65,0.52 2.49,0.78 l 2.39,-1 1,0.2 a 24,24 0 0 0 -4.64,-1.44 13.26,13.26 0 0 1 -2.35,-0.75 7.83,7.83 0 0 1 -1.74,-0.92 c -0.17,-0.31 0.51,-0.36 1.42,-0.33 l 1.47,0.07 a 12.09,12.09 0 0 0 1.38,-0.07 l 1.29,1 a 5.93,5.93 0 0 0 3.77,-1 6.85,6.85 0 0 1 1.72,-0.72 11.75,11.75 0 0 1 3.09,-0.56 c -1.62,0.95 0,1.25 2.52,1.35 2.52,0.1 6,-0.39 8.100001,-0.36 1.81,-1.74 1.51,-2.16 1.19,-2.53 -0.32,-0.37 -0.67,-0.6 0.71,-2.21 1.91,-0.69 4.33,-1.63 6.78,-2.72 1.2,-0.6 2.43,-1.2 3.66,-1.73 1.23,-0.53 2.49,-1 3.61,-1.46 -1.24,0.8 -2.19,1.16 -2.75,1.52 -0.56,0.36 -0.84,0.53 -0.87,0.65 -0.03,0.12 0.74,0.11 1.65,0 a 5.62,5.62 0 0 1 2.1,-0.2 c 0.26,0.2 -0.22,0.77 -2.33,2 a 13.47,13.47 0 0 0 2.63,-1.22 c 0.78,-0.52 1.55,-1.08 2.46,-1.61 2.38,0.83 -1.9,2.92 1.28,2.73 l 0.11,-1.59 c 1.52,-0.35 2.88,-0.43 4.51,-0.82 a 23.11,23.11 0 0 0 6,-2.89 12.71,12.71 0 0 1 4.17,-4.95 2.68,2.68 0 0 0 1.93,-0.35 c 0.86,-0.42 2,-1.46 3.87,-3.51 2.69,-4.84 0.19,-3.32 -3.2,-0.81 a 49,49 0 0 1 -5.61,3.68 c -1.82,1.05 -3.34,1.78 -4.14,1.59 -5.94,4.21 -10.14,4.59 -14.4,5 a 67.14,67.14 0 0 0 -7.07,0.56 43.33,43.33 0 0 0 -4.4,0.53 c -0.8,0.13 -1.63,0.31 -2.51,0.49 -0.88,0.18 -1.850001,0.25 -2.850001,0.42 -1.13,0.7 -1.48,1.07 -2.12,1.45 a 9.73,9.73 0 0 1 -1.31,0.64 24.76,24.76 0 0 1 -2.64,0.72 c -1.52,1.29 0.34,1.49 3.06,1.38 a 54.11,54.11 0 0 1 7.870001,-0.75 9,9 0 0 1 -4.360001,1.49 l 2.000001,1 c -4.000001,1.32 -5.210001,1.12 -6.300001,0.67 -1.09,-0.45 -2,-0.81 -5.53,0 l 1.53,-0.57 a 31.36,31.36 0 0 1 -4,0.89 l 1,0.2 c -2.52,0.21 -3.27,1.33 -7.2,1 l 3.24,-1.07 c -2.17,0.77 -2.76,-0.75 -5.85,-0.53 1.74,-0.49 2.24,-1.07 3.29,-1.18 -4.49,-0.78 -8.44,-1.1 -12.21,-2 a 55.22,55.22 0 0 1 -9.65,-1.86 c -1.57,-0.44 -3.07,-1.08 -4.59,-1.64 l -2.26,-0.88 c -0.75,-0.29 -1.44,-0.72 -2.17,-1.07 l -4.23,-2.27 c -1.35,-0.85 -2.64,-1.8 -3.94,-2.7 l -2.08,-1.39 c -0.61,-0.5 -1.19,-1 -1.79,-1.56 l -3.49,-3.15 c 0.29,0.48 0.69,1 0.89,1.28 a 7.85,7.85 0 0 1 -1.29,-0.84 7,7 0 0 1 -0.85,-1 9.71,9.71 0 0 1 -1.05,-2 l -2.28,-2.61 -2,-2.83 c -0.86,-0.9 -1.74,-1.71 -2.51,-2.59 l -2.21,-2.75 -1.13,-1.44 a 11.7,11.7 0 0 1 -1.1,-1.57 c -0.68,-1.13 -1.4,-2.33 -2.15,-3.67 0.48,-0.59 0.9,-0.37 1.33,0.23 -1.23,-1.78 -2.15,-2.81 -1.69,-0.6 -0.26,-0.4 -0.51,-0.76 -0.71,-1.13 -0.2,-0.37 -0.33,-0.73 -0.47,-1.08 -0.28,-0.69 -0.49,-1.31 -0.69,-1.91 a 36.46,36.46 0 0 0 -1.25,-3.56 c 1.26,1.77 2.57,3.47 3.82,5.16 -0.67,-2.59 -2,-1.84 -3.1,-5.28 -1.14,-2.56 -1.22,-1.88 -1.16,-0.56 l 0.06,1.07 c 0,0.36 0.09,0.71 0.11,1 0,0.62 0,1.07 -0.35,1 a 21,21 0 0 1 -0.82,-2.19 c -0.2,1 -0.21,1.9 -0.32,2.87 q -0.35,-0.92 -0.62,-1.74 c -0.15,-0.56 -0.24,-1.11 -0.32,-1.61 a 24.87,24.87 0 0 1 -0.3,-2.73 18.88,18.88 0 0 1 0.15,-4 l 0.1,0.92 0.18,0.89 0.37,1.79 c 1,0.35 0.55,-1.08 -0.13,-2.83 -0.49,-1.8 -1.16,-4 -0.88,-4.85 l 0.23,0.44 c -1.3,-5.39 -0.54,1.36 -1.65,-2.28 l 0.41,-6.78 -0.92,1.24 a 8.78,8.78 0 0 1 -0.42,-1.61 c 0,-0.59 0,-1.23 0,-1.92 0,-1.36 0.08,-2.88 0.19,-4.47 0.11,-1.59 0.54,-3.24 0.79,-4.88 l 0.39,-2.45 c 0.12,-0.81 0.37,-1.6 0.51,-2.38 a 23.18,23.18 0 0 0 0.47,-2.87 c 0.11,-1 0.15,-2.12 0.38,-3.21 l 0.55,-3.4 a 18.21,18.21 0 0 1 0.72,-3.44 c -0.26,0.37 -0.65,0.95 -0.9,1.38 -0.25,0.43 -0.49,0.69 -0.58,0.38 a 17.79,17.79 0 0 1 0.84,-2.4 c 0.34,-0.87 0.71,-1.76 1.05,-2.49 0.69,-1.46 1.28,-2.26 1.46,-1 l 0.13,-1 0.22,-1 0.45,-2 a 11.73,11.73 0 0 1 1.86,-2.9 l -0.91,0.74 a 38.09,38.09 0 0 1 2,-4.36 c 0.18,0.17 1.51,-1.06 0.37,1 a 16.42,16.42 0 0 0 2.5,-3.39 c 0.86,-1.21 1.67,-2.56 2.53,-4 a 29.51,29.51 0 0 1 3.05,-4.38 c 0.59,-0.73 1.21,-1.47 1.87,-2.21 a 20.48,20.48 0 0 1 2.29,-2 l -1.44,2.06 a 11.91,11.91 0 0 1 3.88,-3.39 20.3,20.3 0 0 0 4.41,-3.23 h -1.47 a 23.1,23.1 0 0 1 2.64,-2.06 20.83,20.83 0 0 1 3.14,-1.6 c 2,-0.86 3.5,-1.25 3.2,-0.66 -0.61,-2.22 2.2,-0.42 3.43,-3.11 q 1.47,0.38 2.89,0.78 c 2,-1.47 4.17,-2.51 2.28,-2.9 1,-0.13 1.92,-0.28 2.77,-0.47 0.85,-0.19 1.64,-0.43 2.39,-0.59 a 7.86,7.86 0 0 0 3.65,-1.87 c 0,0 0,-0.05 0.09,-0.07 l 0.07,-0.06 v 0 a 15.8,15.8 0 0 1 2.37,-0.63 c 0.83,-0.17 1.34,-0.38 0.42,-0.7 8.92,-1.35 4.93,1.1 13.25,0.48 l 0.35,-1.42 a 47,47 0 0 0 4.86,0.24 c 0.8,0 1.6,0 2.39,0 0.79,0 1.56,0.08 2.33,0.11 1.54,0 3,0 4.5,0 l 4.08,0.31 0.32,1.33 c 1.690001,0.28 1.620001,-0.05 1.780001,-0.32 0.16,-0.27 0.57,-0.57 3.15,0.27 0.64,0.46 1.14,1 0.91,1.31 a 40.68,40.68 0 0 1 3.9,1.55 l 4.18,2.27 a 43.07,43.07 0 0 1 4.41,2.79 51.28,51.28 0 0 1 4.6,3.25 c -0.19,0.16 -1.12,-0.26 -1.59,-0.47 1.35,1 3.16,2.14 5.08,3.33 l 5.25,3.9 c 1.22,2 2.48,4.15 3.93,6.33 0.62,1.18 1.27,2.37 1.95,3.57 a 40.53,40.53 0 0 1 2,3.69 q 0.92,1.92 1.92,3.84 a 15.51,15.51 0 0 1 0.9,2 l 0.85,2 0.89,2 0.46,1 0.37,1 q 0.74,2 1.55,4 a 32.41,32.41 0 0 1 2,2.71 q 0.93,1.32 1.86,2.53 c 0.6,0.81 1.27,1.56 1.79,2.29 0.52,0.73 1,1.42 1.56,2 2.05,2.52 4.1,4.17 5.81,4.47 a 9.17,9.17 0 0 0 1.2,-3.48 36,36 0 0 0 0.65,-6.11 77.85,77.85 0 0 0 -0.57,-8.27 c -0.27,-1.51 -0.59,-3.1 -0.94,-4.75 l -0.56,-2.53 c -0.27,-0.74 -0.56,-1.58 -0.84,-2.44 z"
     id="path4382"
     inkscape:connector-curvature="0"
     style="fill:#00a45c" />
  <circle
     class="cls-1"
     cx="82.465652"
     cy="85.921585"
     r="75.139999"
     id="circle4384"
     style="fill:#00a45c" />
  <path
     class="cls-2"
     d="m 73.385649,133.95158 a 2,2 0 0 1 -2,-2 v -25.94 c 0,-15 -24,-25.2 -24.22,-25.3 a 2,2 0 0 1 -1.21,-1.52 c -1.21,-7.17 -5.11,-26.78 -8.54,-31.38 -1.24,-1.67 -1.89,-1.77 -1.9,-1.77 -0.48,0.24 -1.26,2.33 -1.26,3.54 v 39 c 0,1.81 0.36,7 2,9.29 1.64,2.29 13.53,14.86 18,19.52 a 2,2 0 0 1 0.56,1.39 v 13.1 a 2,2 0 1 1 -4,0 v -12.23 c -3.17,-3.32 -15.92,-16.71 -17.82,-19.4 -2.63,-3.73 -2.71,-10.82 -2.71,-11.62 v -39 c 0,-1.19 0.73,-6.26 4.08,-7.37 2.11,-0.7 4.24,0.38 6.34,3.2 4.25,5.71 8.13,26.56 9.09,32 5,2.27 25.67,12.66 25.67,28.57 v 25.88 a 2,2 0 0 1 -2.08,2.04 z"
     id="path4386"
     inkscape:connector-curvature="0"
     style="fill:#ffffff" />
  <path
     class="cls-2"
     d="m 54.605649,106.01158 a 2,2 0 0 1 -2,-2 v -5.24 c -8.81,-9.22 -13.41,-14.86 -13.67,-16.76 a 3.05,3.05 0 0 1 0.66,-2.35 c 1.62,-2 6.25,-2.65 8.16,-2.81 a 2.0076417,2.0076417 0 0 1 0.35,4 18.75,18.75 0 0 0 -4.86,1 c 1.57,2.5 7.53,9.16 12.78,14.75 a 2,2 0 0 1 0.6,1.41 v 6 a 2,2 0 0 1 -2.02,2 z"
     id="path4388"
     inkscape:connector-curvature="0"
     style="fill:#ffffff" />
  <path
     class="cls-2"
     d="m 110.61565,133.95158 a 2,2 0 0 1 -2,-2 v -13.1 a 2,2 0 0 1 0.56,-1.39 c 4.47,-4.67 16.41,-17.28 18,-19.52 1.59,-2.24 2,-7.48 2,-9.3 v -39 c 0,-1.21 -0.78,-3.29 -1.32,-3.55 0,0 -0.64,0.17 -1.84,1.78 -3.43,4.61 -7.33,24.21 -8.54,31.38 a 2,2 0 0 1 -1.21,1.52 c -0.24,0.09 -24.240001,10.24 -24.240001,25.24 v 25.88 a 2,2 0 1 1 -4,0 v -25.88 c 0,-15.9 20.700001,-26.3 25.670001,-28.57 1,-5.48 4.84,-26.33 9.1,-32 2.1,-2.82 4.24,-3.9 6.34,-3.2 3.35,1.11 4.08,6.18 4.08,7.37 v 39 c 0,0.8 -0.08,7.89 -2.71,11.62 -1.9,2.69 -14.65,16.08 -17.82,19.4 v 12.29 a 2,2 0 0 1 -2.07,2.03 z"
     id="path4390"
     inkscape:connector-curvature="0"
     style="fill:#ffffff" />
  <path
     class="cls-2"
     d="m 108.76565,106.01158 a 2,2 0 0 1 -2,-2 v -6 a 2,2 0 0 1 0.56,-1.39 c 5.29,-5.54 11.25,-12.25 12.83,-14.66 a 18.71,18.71 0 0 0 -4.86,-1 2.0076417,2.0076417 0 0 1 0.35,-4 c 1.91,0.17 6.54,0.77 8.16,2.81 a 3.06,3.06 0 0 1 0.66,2.34 c -0.27,1.86 -4.86,7.5 -13.66,16.75 v 5.15 a 2,2 0 0 1 -2.04,2 z m 11.89,-23.82 z"
     id="path4392"
     inkscape:connector-curvature="0"
     style="fill:#ffffff" />
  <path
     class="cls-2"
     d="m 74.495649,14.95158 c 12,20.55 13.29,46.21 5.2,68.45 -0.44,1.21 -2.38,0.71 -2,-0.54 7.68,-22.31 5.72,-46.15 -3.67,-67.63 -0.14,-0.33 0.3,-0.61 0.49,-0.29 z"
     id="path4394"
     inkscape:connector-curvature="0"
     style="fill:#ffffff" />
  <path
     class="cls-2"
     d="m 81.525649,32.01158 c 1.83,-1.91 3.73,-4.28 4,-7 l 4.32,2.48 a 16.26,16.26 0 0 0 -2.82,2.64 c -0.87,1 -1.35,2.35 -2.3,3.33 -1.58,1.62 -4.89,0.48 -4.7,-1.95 0.28,-3.7 3.81,-7.26 6.92,-8.94 a 2.91,2.91 0 0 1 4.22,3.24 c -1,4.05 -4,7.95 -8.32,8.54 a 1.39,1.39 0 0 1 -1.32,-2.34 z"
     id="path4396"
     inkscape:connector-curvature="0"
     style="fill:#ffffff" />
  <path
     class="cls-2"
     d="m 79.245649,33.78158 c -2.13,-1.05 -5,-3 -7.25,-1.25 v -4.69 a 8.33,8.33 0 0 0 6.33,1.9 2.86,2.86 0 1 1 0.76,5.65 13.7,13.7 0 0 1 -10.39,-3.28 2.73,2.73 0 0 1 0.55,-4.27 c 4.74,-2.37 8.88,0.59 11.27,4.67 a 0.94,0.94 0 0 1 -1.28,1.28 z"
     id="path4398"
     inkscape:connector-curvature="0"
     style="fill:#ffffff" />
  <path
     class="cls-2"
     d="m 77.745649,22.15158 a 8.89,8.89 0 0 0 -6,-7.6 l 2.41,-1.84 a 9.08,9.08 0 0 0 1.16,4.09 40,40 0 0 0 2.53,3.21 c 1.14,1.59 -1,3.12 -2.44,2.44 -3.37,-1.59 -4.92,-6.29 -5.07,-9.73 a 1.92,1.92 0 0 1 2.41,-1.84 c 4.41,1.82 7,6.8 5.07,11.29 0,0 -0.08,0 -0.08,0 z"
     id="path4400"
     inkscape:connector-curvature="0"
     style="fill:#ffffff" />
  <path
     class="cls-2"
     d="m 83.545649,49.07158 c 0.9,-4.89 6.19,-7.86 10.93,-7.4 a 2.14,2.14 0 0 1 1.49,3.6 c -2.43,2.47 -6.79,6.23 -10.51,5.46 a 2.13,2.13 0 0 1 -0.93,-3.52 c 1.12,-1.2 2.8,-1.46 4.24,-2.19 a 22,22 0 0 0 4.26,-2.73 l 0.93,3.52 c -3.39,-0.67 -6.41,1.45 -8.22,4.16 a 1.18,1.18 0 0 1 -2.15,-0.91 z"
     id="path4402"
     inkscape:connector-curvature="0"
     style="fill:#ffffff" />
  <path
     class="cls-2"
     d="m 82.655649,49.34158 a 20.47,20.47 0 0 1 -4.08,-1.19 q -1.25,-0.41 -2.52,-0.71 a 8.67,8.67 0 0 1 -2.22,-0.43 q -1.26,0.16 -0.28,-1.12 0,-1.64 1,-0.72 a 14.38,14.38 0 0 1 2,0.71 13.34,13.34 0 0 0 4.86,0.18 c 3.3,-0.42 3.27,4.77 0,5.19 a 14.82,14.82 0 0 1 -8.72,-1.56 c -2.1,-1.08 -4.52,-3.36 -2.82,-5.86 1.55,-2.27 4.26,-1.34 6.32,-0.46 2.53,1.09 5.6,2.41 7.19,4.76 a 0.81,0.81 0 0 1 -0.7,1.22 z"
     id="path4404"
     inkscape:connector-curvature="0"
     style="fill:#ffffff" />
  <path
     class="cls-2"
     d="m 83.105649,63.38158 c 2.41,-4.66 8.64,-4.6 12.7,-2.24 a 1.74,1.74 0 0 1 -0.41,3.14 c -4.08,1.54 -8.65,1.89 -12.62,-0.2 -1.91,-1 -0.56,-4.41 1.5,-3.55 3.17,1.32 6.52,2.15 9.8,0.61 v 3 c -3.24,-1.56 -6.82,-0.53 -10,0.46 a 0.82,0.82 0 0 1 -0.92,-1.19 z"
     id="path4406"
     inkscape:connector-curvature="0"
     style="fill:#ffffff" />
  <path
     class="cls-2"
     d="m 82.445649,64.01158 a 10.4,10.4 0 0 0 -8.82,-1.7 l 0.77,-2.91 a 7.66,7.66 0 0 0 7,1.62 c 2.53,-0.63 3.53,3.45 1.06,3.83 a 12.69,12.69 0 0 1 -10.54,-3 1.76,1.76 0 0 1 0.79,-2.84 c 4.08,-1.36 8.85,-0.1 11,3.84 0.4,0.74 -0.44,1.74 -1.22,1.22 z"
     id="path4408"
     inkscape:connector-curvature="0"
     style="fill:#ffffff" />
  <path
     class="cls-2"
     d="m 81.585649,73.80158 a 7,7 0 0 1 6.72,-1 2.16,2.16 0 0 1 0,4.13 c -2.3,0.86 -5.3,0.8 -7.25,-0.8 a 2.12,2.12 0 0 1 -0.33,-2.55 2.21,2.21 0 0 1 2.38,-1 c 0.69,0.1 1.32,0.41 2,0.47 a 5.17,5.17 0 0 0 2,-0.28 l -0.51,3.91 a 6.82,6.82 0 0 0 -4.29,-1 c -0.89,0 -1.54,-1.28 -0.78,-1.88 z"
     id="path4410"
     inkscape:connector-curvature="0"
     style="fill:#ffffff" />
  <path
     class="cls-2"
     d="m 81.165649,75.64158 a 13.85,13.85 0 0 0 -5.45,-2.42 l 0.95,-2.28 a 6.26,6.26 0 0 0 3.6,1.61 2,2 0 1 1 -1,3.78 14.81,14.81 0 0 1 -4.47,-3.49 c -0.73,-0.74 -0.27,-2.44 0.95,-2.28 2.7,0.34 5.28,1.72 6.28,4.45 a 0.57,0.57 0 0 1 -0.83,0.64 z"
     id="path4412"
     inkscape:connector-curvature="0"
     style="fill:#ffffff" />
</svg>
