<svg id="Layer_1" data-name="Layer 1" xmlns="http://www.w3.org/2000/svg" viewBox="0 0 184.25 184.25"><defs><style>.cls-1{fill:#a2c636;}.cls-2{fill:#ffda00;}.cls-3{fill:#fff;}.cls-4{fill:#184f25;}.cls-5{fill:#fbec4d;}.cls-6{fill:#d9d8da;}.cls-7{fill:#008d41;}</style></defs><title>52 Climate Actions icons F</title><path class="cls-1" d="M115.05,53.59c.32-2.33-4.69-4-7.26-4.13a43.74,43.74,0,0,0-9.38,1.32c2,1.61,6.52.22,9.66.41,3.57.22,6.7,1.79,6,3.35a9.32,9.32,0,0,1-.93,2.31A4.69,4.69,0,0,0,115.05,53.59Z"/><path class="cls-2" d="M172.81,94.53c0,.5,0,1.07-.14,1.75,0,0,.05,0,.08,0l.14-1.61Z"/><path class="cls-2" d="M172.75,96.27l-.29,3.29a19.28,19.28,0,0,1,2.15-5.49c0,1.72-.28,4.48-.83,3.71l.55,2.5.5-7.85C174.16,93.91,173.64,96.42,172.75,96.27Z"/><path class="cls-2" d="M171.81,96.54c.41,2.85-.16-4.14,1-2a2.74,2.74,0,0,1,.3-1.48C172.46,91.75,172.1,93.87,171.81,96.54Z"/><path class="cls-2" d="M170.78,112.75c.22-.09.51-.41.92-1.17C171.53,111.49,171.18,112.07,170.78,112.75Z"/><path class="cls-2" d="M167.94,114.9c.75-1.36,1.5-2.75,1.89-1.92l-.54,1.52c.23.52.9-.72,1.49-1.74C169.9,113.12,170,109.82,167.94,114.9Z"/><path class="cls-2" d="M168.6,105.3l0,1.15,1.28-3.66.64-1.86c.19-.62.32-1.26.48-1.89-.77.28-.83,1.18-1.1,2.34A11.5,11.5,0,0,1,168.6,105.3Z"/><path class="cls-2" d="M124.8,168.46l-.41-.1-.62.5C124.08,168.75,124.39,168.63,124.8,168.46Z"/><path class="cls-2" d="M117.51,170.52c1.75-.28,3.53-.53,5.29-.89.34-.31.64-.52,1-.77a7.15,7.15,0,0,1-3,.58A8.48,8.48,0,0,0,117.51,170.52Z"/><path class="cls-2" d="M123.68,168.18l.71.18a16,16,0,0,1,5.26-2.4,27.51,27.51,0,0,0,6.42-3.4,65.62,65.62,0,0,0-6.53,2.94C127.41,166.39,125.41,167.31,123.68,168.18Z"/><path class="cls-2" d="M167.21,95.45c0-1.53-.06-3-.15-4.54a8.32,8.32,0,0,0,2.33-2.47,13.69,13.69,0,0,0,1.83-5.16,33.11,33.11,0,0,0,.22-3.92q0-1.11-.05-2.37l-.07-1.29-.22-1.34q-.36-2-.85-4c-.23-.91-.47-1.83-.75-2.74,0-.24,0-.47-.08-.71-.27-1.51-.59-3.1-.94-4.76l-.56-2.53c-.24-.84-.53-1.68-.81-2.54-2.7-3.5-6.11-8.55-10-13.19l-2.23-2.64-.61-1.42c-1-.87-2.54-2.11-4-3.43l-1.93-1.95c-.92-.87-1.86-1.6-2.67-2.3A71.64,71.64,0,0,0,120.29,15,75.89,75.89,0,0,0,91.53,9.5a40.88,40.88,0,0,0-5.69.2L83,9.93a19.66,19.66,0,0,0-2.83.37q-2.81.54-5.59,1.14l-1.39.3-1.36.43-2.69.88a71.27,71.27,0,0,0-10.27,4.31c-1.63.82-3.16,1.84-4.7,2.75l-2.27,1.4c-.75.46-1.43,1-2.14,1.56a21.71,21.71,0,0,0-4.65.77,13.83,13.83,0,0,0-1.46.47q-.72.32-1.49.73a26.59,26.59,0,0,0-3.21,2c-6,4.43-12.79,10.39-17.39,17.44l-.91,1.27-.78,1.34q-.76,1.34-1.47,2.66T17,52.42a27.24,27.24,0,0,0-1,2.64c-.62,1.75-1.14,3.43-1.53,5A24.76,24.76,0,0,0,14,64.66a30.77,30.77,0,0,0-2,3.21,26,26,0,0,0-1.27,3.39,31.67,31.67,0,0,0-.8,3.15A9.51,9.51,0,0,0,9.73,77c.08,2.2.07,4.42,0,6.65,0,1.63.07,3.29.1,5l-.07.76c-.81,9-.16,18.75,3.12,27,0-.17,0-.43,0-.69A69.64,69.64,0,0,0,19,132q1.13,1.71,2.23,3.47a40.21,40.21,0,0,0,2.28,3.47l2.42,3.35,1.2,1.66c.42.53.88,1,1.31,1.54l2.59,3,1.27,1.43,1.36,1.26a49.32,49.32,0,0,0,5.22,4.33c2.14,1.24,4.1,2.49,6,3.72,2,1.08,3.81,2.16,5.61,3.23a17.15,17.15,0,0,0,1.62.9A21.66,21.66,0,0,0,54,164.68l.09.07h0a25.94,25.94,0,0,0,2.51,1.39c-.94-.5-1.74-1-2.47-1.43l.23-.26,1.59.76,2.08.94c.37.22.71.45,1.09.65l5,2.43c1.62.85,3.22,1.36,4.5,2a10.79,10.79,0,0,1,2.77,1.58c2.8-.76-2-1.85-6.08-3.07,2.15.61,4.56,1.12,7,1.7A34.44,34.44,0,0,0,76,172l3.69.58.88.15c-.52,0-1,0-1.5,0a8.37,8.37,0,0,1-4.33-.82c-1.27.27-.92.7.52,1.31,2.5.2,6,1.12,9,1.21,2.74.21,4.91.25,5.18-.26h0a22.17,22.17,0,0,1,2.49.63l2.39-1,1,.2a9.11,9.11,0,0,0-.9-.38l.7-.05,3-.17,3-.41a54.69,54.69,0,0,0,5.63-1,32.83,32.83,0,0,0,4.7-1.72,10,10,0,0,0,1-1c1.75.11-.78.79-1.26,1.47,1-.26,2-.48,2.92-.75s1.67-.62,2.36-.93a6.72,6.72,0,0,0,2.83-1.88l-3.78,1.13-1.88.56-1,.21a1.23,1.23,0,0,0,.32-.91c.39-.22.77-.46,1.12-.7a74.62,74.62,0,0,0,8-2.95c3.32-.81,6.21-1.55,9-2.3-.08.14-.16.28-.24.41l-1.26.62c-1.18.66-2.6,1.15-3.78,1.69l-2.85,1.21,5.12-1.06a15.24,15.24,0,0,0,1.3-1.35,2.15,2.15,0,0,1,1.26-.33.45.45,0,0,0,.24.13.62.62,0,0,1,.11.23l.26-.18a5,5,0,0,0,.55,0l0-.39,1.92-1.32c0-.1,0-.16,0-.21.85-.13,1.72-.27,2.67-.49a23.13,23.13,0,0,0,6-2.9c0-.06.06-.14.09-.21a42.49,42.49,0,0,0,6.78-4.33c.62-.28,1.79-2.09,2.76-3.92l.35-.36a7.53,7.53,0,0,0,1.13-2.73c.23-.6.35-1,.27-1.14-1.46.25-3.91,1.91-6.5,3.77l-.87.55.65-.58a4.2,4.2,0,0,1-.45.27l-.26.35c-1.07.67-2.17,1.34-3.21,2a33.75,33.75,0,0,1-3.37,1.86A75.07,75.07,0,0,0,167.21,95.45Z"/><path class="cls-2" d="M131.77,162.06v-.16h0l.62-.11Z"/><circle class="cls-3" cx="91.56" cy="92.43" r="70.38"/><rect class="cls-2" x="87" y="87.03" width="3.8" height="3.51" transform="translate(-36.75 88.88) rotate(-45)"/><rect class="cls-2" x="93.97" y="80.06" width="3.8" height="3.51" transform="translate(-29.78 91.77) rotate(-45)"/><rect class="cls-2" x="89.35" y="83.55" width="6.06" height="3.51" transform="translate(-33.26 90.32) rotate(-45)"/><path class="cls-1" d="M118.83,121.4a6.83,6.83,0,0,0,9.66-9.65L104.58,87.84l-9.66,9.65Z"/><polygon class="cls-1" points="90.7 89.47 94.92 97.49 104.58 87.84 96.55 83.63 90.7 89.47"/><path class="cls-4" d="M120.27,117h0a1.23,1.23,0,0,1-1.73,0L97,95.44l1.73-1.73,21.56,21.56A1.23,1.23,0,0,1,120.27,117Z"/><path class="cls-4" d="M124.08,113.19h0a1.23,1.23,0,0,1-1.73,0L100.79,91.63l1.73-1.73,21.56,21.56A1.23,1.23,0,0,1,124.08,113.19Z"/><rect class="cls-4" x="75.87" y="51.02" width="3.16" height="38.71" transform="translate(-27.08 75.35) rotate(-44.98)"/><polygon class="cls-4" points="62.91 50.81 57.88 55.84 62.65 57.81 64.89 55.58 62.91 50.81"/><polygon class="cls-4" points="62.91 50.81 57.88 55.84 52.94 48.1 55.17 45.87 62.91 50.81"/><path class="cls-5" d="M69.55,98.45a.48.48,0,0,0,.63.33.59.59,0,0,0,.45-.64.48.48,0,0,0-.64-.33.59.59,0,0,0-.45.64Z"/><path class="cls-1" d="M117.5,49.25c1.23.56.39,2.4,1.56,3.68s5.14,3.68,5.75,5a12.67,12.67,0,0,0,2,3.35c.78.78,3.46,3.24,4.13,3.91.33.33,1.4-.5.56-1.34a35.31,35.31,0,0,1-4.13-4.8,4,4,0,0,1,.5-4.1c-.62-.68-3.11-2.95-5.74-5.17-2.85-2.4-8.15-3.46-13.57-3.85-4-.29-7.84,1.72-9.69,3a25.49,25.49,0,0,1,6.51-1.62C109.35,47,116.27,48.69,117.5,49.25Z"/><path class="cls-6" d="M133,68.51c-2.29,2.4-2.34,3.68-2.34,3.68s1.73.17,4-2.07,1.9-3.8,1.9-3.8S135.25,66.11,133,68.51Z"/><path class="cls-1" d="M121,61.2c2.07-1.4,4.41-.5,6.09,2.18s3.35,3.57,4.08,2.85c.45-.45,1.1-.89.7-1.72,0,.54-.63.9-.87.66-.67-.67-3.35-3.13-4.13-3.91a12.67,12.67,0,0,1-2-3.35c-.61-1.28-4.58-3.68-5.75-5s-.33-3.13-1.56-3.68-8.15-2.23-12.11-2a25.49,25.49,0,0,0-6.51,1.62,4.31,4.31,0,0,0-1.14,1,2.4,2.4,0,0,0,.67.87,43.74,43.74,0,0,1,9.38-1.32c2.57.11,7.59,1.79,7.26,4.13a4.69,4.69,0,0,1-1.89,3.27c-1,1.3-2.14,2.54-2.14,2.54l5.19,5.19S118.89,62.59,121,61.2Z"/><path class="cls-1" d="M123.86,63.32,126,65.5c1.23,1.23,1,3.13,1.56,3.68l3,3s.06-1.28,2.34-3.68,3.52-2.18,3.52-2.18c0-.61-2.07-2.4-3-3.29s-2.07-1.28-3.74-2.74-1.45-4.8-1.79-5.25l-.12-.14a4,4,0,0,0-.5,4.1,35.31,35.31,0,0,0,4.13,4.8.92.92,0,0,1,.31.68c.4.83-.26,1.28-.7,1.72-.73.73-2.4-.17-4.08-2.85S123,59.8,121,61.2s-4.75,3.41-4.75,3.41,2.46-1.12,3.52-1.73A4.6,4.6,0,0,1,123.86,63.32Z"/><path class="cls-2" d="M67.51,116.13c4.8-4.8,15.07-15.3,19.51-20.46s8.63-11,8.63-11l-2.22-2.22-.24-.24L91,80s-5.86,4.19-11,8.63S64.3,103.31,59.5,108.11s-5.87,3.73-6.08,4.64c-.1,3.07,2.55,5.73,3.15,6.29s3.23,3.26,6.29,3.15C63.78,122,62.71,120.93,67.51,116.13Z"/><path class="cls-7" d="M66.24,117.92c10.58-10.61,21.1-21.27,30-33.33a1.09,1.09,0,0,0-.17-1.31l-4.54-4.54a1.09,1.09,0,0,0-1.31-.17A219,219,0,0,0,69.34,96.48c-3.78,3.62-7.49,7.31-11.23,11-1.68,1.64-6.42,3.9-7.37,5.83-1.76,3.58,2.08,8.29,5.14,10,6.08,3.44,6.53-1.3,10.36-5.37,1-1-.57-2.55-1.53-1.53-3.49,3.71-4.54,8.57-9.67,3.43-4.52-4.52-1.8-5.08,1.49-7.85,8.66-7.29,16.06-16.1,24.69-23.47,2.12-1.81,6.18-6.38,8.81-7.05,1.7-.43.16-.89,2.18,1,3.36,3.12-.72,5-3.89,8.89-7.28,8.86-15.51,17-23.6,25.08A1.08,1.08,0,0,0,66.24,117.92Z"/><polygon class="cls-4" points="109.97 61.67 113.95 65.66 95.64 84.63 90.99 79.98 109.97 61.67"/><path class="cls-4" d="M133,68.51c-2.29,2.4-2.34,3.68-2.34,3.68s1.73.17,4-2.07,1.9-3.8,1.9-3.8S135.25,66.11,133,68.51Z"/><rect class="cls-7" x="92.81" y="78.56" width="7.34" height="1.17" rx="0.27" ry="0.27" transform="translate(84.22 -45.04) rotate(45)"/><rect class="cls-7" x="107.1" y="64.27" width="7.34" height="1.17" rx="0.27" ry="0.27" transform="translate(78.3 -59.33) rotate(45)"/><circle class="cls-4" cx="58.57" cy="116.15" r="1.99"/></svg>