<svg id="Layer_1" data-name="Layer 1" xmlns="http://www.w3.org/2000/svg" viewBox="0 0 283.46 283.46"><defs><style>.cls-1{fill:#00a45c;}.cls-2{fill:#fff;}.cls-3{fill:none;}.cls-4{fill:#d8b840;}.cls-5{fill:#184f25;}.cls-6{fill:#008d41;}.cls-7{fill:#a2c636;}.cls-8{fill:#495e6e;}</style></defs><title>52 Climate Actions icons F</title><path class="cls-1" d="M222.42,140.8c0,.5,0,1.07-.14,1.75,0,0,.05,0,.08,0l.14-1.61Z"/><path class="cls-1" d="M222.35,142.55l-.29,3.29a19.28,19.28,0,0,1,2.15-5.49c0,1.72-.28,4.48-.83,3.71l.55,2.5.5-7.85C223.77,140.18,223.25,142.69,222.35,142.55Z"/><path class="cls-1" d="M221.42,142.81c.41,2.85-.16-4.14,1-2a2.74,2.74,0,0,1,.3-1.48C222.06,138,221.71,140.14,221.42,142.81Z"/><path class="cls-1" d="M220.39,159c.22-.09.51-.41.92-1.17C221.14,157.76,220.78,158.35,220.39,159Z"/><path class="cls-1" d="M217.55,161.17c.75-1.36,1.5-2.75,1.89-1.92l-.54,1.52c.23.52.9-.72,1.49-1.74C219.5,159.39,219.62,156.1,217.55,161.17Z"/><path class="cls-1" d="M218.2,151.58l0,1.15,1.28-3.66.64-1.86c.19-.62.32-1.26.48-1.89-.77.28-.83,1.18-1.1,2.34A11.5,11.5,0,0,1,218.2,151.58Z"/><path class="cls-1" d="M174.4,214.73l-.41-.1-.62.5C173.69,215,174,214.9,174.4,214.73Z"/><path class="cls-1" d="M167.12,216.8c1.75-.28,3.53-.53,5.29-.89.34-.31.64-.52,1-.77a7.15,7.15,0,0,1-3,.58A8.48,8.48,0,0,0,167.12,216.8Z"/><path class="cls-1" d="M173.28,214.45l.71.18a16,16,0,0,1,5.26-2.4,27.51,27.51,0,0,0,6.42-3.4,65.62,65.62,0,0,0-6.53,2.94C177,212.66,175,213.58,173.28,214.45Z"/><path class="cls-1" d="M216.81,141.73c0-1.53-.06-3-.15-4.54a8.32,8.32,0,0,0,2.33-2.47,13.69,13.69,0,0,0,1.83-5.16,33.11,33.11,0,0,0,.22-3.92q0-1.11-.05-2.37l-.07-1.29-.22-1.34q-.36-2-.85-4c-.23-.91-.47-1.83-.75-2.74,0-.24,0-.47-.08-.71-.27-1.51-.59-3.1-.94-4.76l-.56-2.53c-.24-.84-.53-1.68-.81-2.54-2.7-3.5-6.11-8.55-10-13.19l-2.23-2.64-.61-1.42c-1-.87-2.54-2.11-4-3.43L198,80.7c-.92-.87-1.86-1.6-2.67-2.3a71.64,71.64,0,0,0-25.4-17.16,75.89,75.89,0,0,0-28.76-5.46,40.88,40.88,0,0,0-5.69.2l-2.84.23a19.66,19.66,0,0,0-2.83.37q-2.81.54-5.59,1.14l-1.39.3-1.36.43-2.69.88a71.27,71.27,0,0,0-10.27,4.31c-1.63.82-3.16,1.84-4.7,2.75l-2.27,1.4c-.75.46-1.43,1-2.14,1.56a21.71,21.71,0,0,0-4.65.77,13.83,13.83,0,0,0-1.46.47q-.72.32-1.49.73a26.59,26.59,0,0,0-3.21,2c-6,4.43-12.79,10.39-17.39,17.44l-.91,1.27-.78,1.34q-.76,1.34-1.47,2.66t-1.35,2.62a27.24,27.24,0,0,0-1,2.64c-.62,1.75-1.14,3.43-1.53,5a24.76,24.76,0,0,0-.47,4.58,30.77,30.77,0,0,0-2,3.21,26,26,0,0,0-1.27,3.39,31.67,31.67,0,0,0-.8,3.15,9.51,9.51,0,0,0-.25,2.58c.08,2.2.07,4.42,0,6.65,0,1.63.07,3.29.1,5l-.07.76c-.81,9-.16,18.75,3.12,27,0-.17,0-.43,0-.69a69.64,69.64,0,0,0,6.16,16.35q1.13,1.71,2.23,3.47a40.21,40.21,0,0,0,2.28,3.47l2.42,3.35,1.2,1.66c.42.53.88,1,1.31,1.54l2.59,3,1.27,1.43,1.36,1.26a49.32,49.32,0,0,0,5.22,4.33c2.14,1.24,4.1,2.49,6,3.72,2,1.08,3.81,2.16,5.61,3.23a17.15,17.15,0,0,0,1.62.9,21.66,21.66,0,0,0,1.93,1.35l.09.07h0a25.94,25.94,0,0,0,2.51,1.39c-.94-.5-1.74-1-2.47-1.43l.23-.26,1.59.76,2.08.94c.37.22.71.45,1.09.65l5,2.43c1.62.85,3.22,1.36,4.5,2A10.79,10.79,0,0,1,121,219c2.8-.76-2-1.85-6.08-3.07,2.15.61,4.56,1.12,7,1.7a34.44,34.44,0,0,0,3.72.64l3.69.58.88.15c-.52,0-1,0-1.5,0a8.37,8.37,0,0,1-4.33-.82c-1.27.27-.92.7.52,1.31,2.5.2,6,1.12,9,1.21,2.74.21,4.91.25,5.18-.26h0a22.17,22.17,0,0,1,2.49.63l2.39-1,1,.2a9.11,9.11,0,0,0-.9-.38l.7-.05,3-.17,3-.41a54.69,54.69,0,0,0,5.63-1,32.83,32.83,0,0,0,4.7-1.72,10,10,0,0,0,1-1c1.75.11-.78.79-1.26,1.47,1-.26,2-.48,2.92-.75s1.67-.62,2.36-.93a6.72,6.72,0,0,0,2.83-1.88l-3.78,1.13-1.88.56-1,.21a1.23,1.23,0,0,0,.32-.91c.39-.22.77-.46,1.12-.7a74.62,74.62,0,0,0,8-2.95c3.32-.81,6.21-1.55,9-2.3-.08.14-.16.28-.24.41l-1.26.62c-1.18.66-2.6,1.15-3.78,1.69l-2.85,1.21,5.12-1.06a15.24,15.24,0,0,0,1.3-1.35,2.15,2.15,0,0,1,1.26-.33.45.45,0,0,0,.24.13.62.62,0,0,1,.11.23l.26-.18a5,5,0,0,0,.55,0l0-.39,1.92-1.32c0-.1,0-.16,0-.21.85-.13,1.72-.27,2.67-.49a23.13,23.13,0,0,0,6-2.9c0-.06.06-.14.09-.21a42.49,42.49,0,0,0,6.78-4.33c.62-.28,1.79-2.09,2.76-3.92l.35-.36A7.53,7.53,0,0,0,203,192.9c.23-.6.35-1,.27-1.14-1.46.25-3.91,1.91-6.5,3.77l-.87.55.65-.58a4.2,4.2,0,0,1-.45.27l-.26.35c-1.07.67-2.17,1.34-3.21,2a33.75,33.75,0,0,1-3.37,1.86A75.07,75.07,0,0,0,216.81,141.73Z"/><path class="cls-1" d="M181.37,208.33v-.16h0l.62-.11Z"/><circle class="cls-2" cx="141.73" cy="138.4" r="70.38"/><rect class="cls-3" x="126.89" y="121.76" width="35.76" height="23.31"/><path class="cls-4" d="M133,106l-15.23-3.62a4.81,4.81,0,0,0-4.51,1.28L109,108h-1.84a4.81,4.81,0,0,0-4.81,4.81s-.24,5.9,0,7.84c.29,2.31,2.29,9,2.29,9h32.49l6.09-24.09a1.33,1.33,0,0,0-2.12-1.37h0A9.39,9.39,0,0,1,133,106Z"/><path class="cls-5" d="M158,101.75h8a5,5,0,0,1,4.58,3l.51,1.19h2.42a7.44,7.44,0,0,1,7.44,7.44v27.38a5.29,5.29,0,0,1-5.29,5.29H149a5.29,5.29,0,0,1-5.29-5.29V116A14.29,14.29,0,0,1,158,101.75Z"/><path class="cls-2" d="M177.35,125.68h-1.08v-7a12.31,12.31,0,0,0-2.2-7,31.12,31.12,0,0,1-25.59,6.48c0,.18,0,.37,0,.56v7h-1.08a3.25,3.25,0,0,0-3.25,3.25v1.54a3.25,3.25,0,0,0,3.25,3.25h1.1a13.87,13.87,0,0,0,8.67,12.11V152c0,2.88,5.22,5.79,5.22,5.79s5.22-2.91,5.22-5.79v-6.13a14,14,0,0,0,8.67-12.16h1.1a3.25,3.25,0,0,0,3.25-3.25v-1.54A3.25,3.25,0,0,0,177.35,125.68Z"/><path class="cls-6" d="M177.35,124.93c-.88,0-.22.56-.33.36a4,4,0,0,1,0-1.31c.1-1.43,0-3,0-4.39a15.48,15.48,0,0,0-2.31-8.37.75.75,0,0,0-1-.27,31.46,31.46,0,0,1-25,6.41.76.76,0,0,0-.95.72c-.05,2.13.39,4.58,0,6.66-.28,1.44.69-.21-.53.23-1,.37-1.87.35-2.69,1.22a6.06,6.06,0,0,0-.83,5.75c.93,2.18,3.21,1.79,4.24,2.84.59.6.71,3.33,1.15,4.29a14.34,14.34,0,0,0,1.92,3.07,13,13,0,0,0,3.49,3.14c1.94,1.07,1.94.47,1.94,2.73,0,5.08.84,7.69,5.59,10.44a.76.76,0,0,0,.76,0c2.83-1.64,5.32-3.7,5.59-7.07.09-1.09-.17-2.25,0-3.33v-1.52q-.23-.84.78-.53c1.69-1.84,4-2.68,5.46-4.94a14.51,14.51,0,0,0,1.58-3.1c.18-.49.36-3.2.64-3.48.87-.86,2.85-.31,3.84-1.84a5,5,0,0,0-3.09-7.67c-.94-.19-1.35,1.26-.4,1.45,4.88,1,2.44,6.56-.9,6.56a.77.77,0,0,0-.75.75,13.76,13.76,0,0,1-8.29,11.51.74.74,0,0,0-.37.65,41.21,41.21,0,0,1,0,4.8c-.25,2-2.55,6.36-4.47,6.36-1.67,0-4.24-4.14-4.47-6a44.8,44.8,0,0,1,0-5.19.74.74,0,0,0-.37-.65,13.68,13.68,0,0,1-8.29-11.46.77.77,0,0,0-.75-.75c-6,0-3.38-6.53,0-6.53a.76.76,0,0,0,.75-.75c0-1.1-.72-6.44,0-7-.12.1,5.55.74,6,.73a32.31,32.31,0,0,0,7.43-1.06A31.49,31.49,0,0,0,168.7,116c.88-.44,3.42-2.48,4.26-2.6,2.57-.36,2.45,3.29,2.56,5.25.13,2.33,0,4.71,0,7a.76.76,0,0,0,.75.75h1.08A.75.75,0,0,0,177.35,124.93Z"/><path class="cls-2" d="M135.82,125.68h-1.08v-5.3a37.27,37.27,0,0,1-4.25,1c-13.87,2.52-18.61-5.93-18.61-5.93,0,3.68-1.21,4.82-4.94,5.07v5.11h-1.08a3.25,3.25,0,0,0-3.25,3.25v1.54a3.25,3.25,0,0,0,3.25,3.25H107a13.87,13.87,0,0,0,8.67,12.11V152a5.22,5.22,0,1,0,10.43,0v-6.19a13.54,13.54,0,0,0,6.28-5h0a13.85,13.85,0,0,0,2.38-7.08h1.1a3.25,3.25,0,0,0,3.25-3.25v-1.54A3.25,3.25,0,0,0,135.82,125.68Z"/><path class="cls-6" d="M135.82,124.93c-.36,0-.86.12-.33.52-.22-.16,0-1.66,0-1.93,0-1,0-2.09,0-3.13a.76.76,0,0,0-.95-.72c-6.89,2-17.69,2.85-22-4.54a.76.76,0,0,0-1.4.38c-.14,3-1,4-4.19,4.32a.77.77,0,0,0-.75.75c0,1.22.41,3.19,0,4.31-.47,1.28.92-.57-.43.06-1,.48-1.65.21-2.57,1-1.67,1.5-1.8,4.82-.62,6.64.91,1.4,2.3,1,3.29,1.84.82.71,1,3.18,1.71,4.69a14.74,14.74,0,0,0,3.67,4.83c.84.73,2.11,1.17,2.82,1.94.3.33.57-.12.82.31s-.06,1,0,1.35c.55,2.91-.72,5.65,1.37,8.22a6.05,6.05,0,0,0,8.39.81c2.64-2.14,2.17-5.59,2.17-8.61,0-2.66,1.14-2,3.23-3.62a14,14,0,0,0,3.32-3.79c1-1.72,1.46-5.26,2.47-6.11,1.25-1.06,2.74-.45,3.64-2.35A5,5,0,0,0,136,125c-.94-.19-1.35,1.26-.4,1.45,4.88,1,2.45,6.56-.9,6.56a.77.77,0,0,0-.75.75,13.46,13.46,0,0,1-8.29,11.45.74.74,0,0,0-.37.65c0,2,1,12.47-4.47,10.66-.84-.28-4.25-4.17-4.47-4.87a7,7,0,0,1,0-1.77v-4a.74.74,0,0,0-.37-.65,13.68,13.68,0,0,1-8.29-11.46A.77.77,0,0,0,107,133c-6,0-3.38-6.53,0-6.53a.76.76,0,0,0,.75-.75,17.92,17.92,0,0,1,0-3.49c.39-1.82-.12-.8,1.88-1.31,2.52-.65,2.95-3.16,3.05-5.38l-1.4.38c1.75,3,5.18,5,8.41,6a23.35,23.35,0,0,0,10.24.44c1.17-.18,2.41-.68,3.59-.75,1.34-.08.06-1.54.53.11.31,1.11,0,2.86,0,4a.76.76,0,0,0,.75.75h1.08A.75.75,0,0,0,135.82,124.93Z"/><path class="cls-7" d="M171.71,150.18H110.22v9.73h41.7v15.14H173v-9.32a1.18,1.18,0,0,1,2.35,0v9.32H180V158.84A8.47,8.47,0,0,0,171.71,150.18Z"/><path class="cls-8" d="M162.37,138.8a6.8,6.8,0,0,1-6.31-4.25,1.18,1.18,0,1,1,2.18-.88,4.46,4.46,0,0,0,8.25,0,1.18,1.18,0,0,1,2.18.88A6.78,6.78,0,0,1,162.37,138.8Z"/><path class="cls-8" d="M120.84,138.8a6.8,6.8,0,0,1-6.31-4.25,1.18,1.18,0,1,1,2.18-.88,4.46,4.46,0,0,0,8.25,0,1.18,1.18,0,0,1,2.18.88A6.78,6.78,0,0,1,120.84,138.8Z"/><path class="cls-1" d="M129.79,150.18h-17.9a8.66,8.66,0,0,0-8.66,8.66v16.21h4.64v-9.32a1.18,1.18,0,0,1,2.35,0v9.32h21.23v-9.32a1.18,1.18,0,1,1,2.35,0v9.32h4.64V158.84A8.66,8.66,0,0,0,129.79,150.18Z"/><circle class="cls-5" cx="116.44" cy="126.92" r="1.99"/><circle class="cls-5" cx="125.24" cy="126.92" r="1.99"/><circle class="cls-5" cx="157.97" cy="126.07" r="1.99"/><circle class="cls-5" cx="166.77" cy="126.07" r="1.99"/></svg>