<svg id="Layer_1" data-name="Layer 1" xmlns="http://www.w3.org/2000/svg" viewBox="0 0 184.25 184.25"><defs><style>.cls-1{fill:#ffda00;}.cls-2{fill:#fff;}.cls-3{fill:#184f25;}.cls-4{fill:#008d41;}</style></defs><title>52 Climate Actions icons F</title><path class="cls-1" d="M172.81,94.53c0,.5,0,1.07-.14,1.75,0,0,.05,0,.08,0l.14-1.61Z"/><path class="cls-1" d="M172.75,96.27l-.29,3.29a19.28,19.28,0,0,1,2.15-5.49c0,1.72-.28,4.48-.83,3.71l.55,2.5.5-7.85C174.16,93.91,173.64,96.42,172.75,96.27Z"/><path class="cls-1" d="M171.81,96.54c.41,2.85-.16-4.14,1-2a2.74,2.74,0,0,1,.3-1.48C172.46,91.75,172.1,93.87,171.81,96.54Z"/><path class="cls-1" d="M170.78,112.75c.22-.09.51-.41.92-1.17C171.53,111.49,171.18,112.07,170.78,112.75Z"/><path class="cls-1" d="M167.94,114.9c.75-1.36,1.5-2.75,1.89-1.92l-.54,1.52c.23.52.9-.72,1.49-1.74C169.9,113.12,170,109.82,167.94,114.9Z"/><path class="cls-1" d="M168.6,105.3l0,1.15,1.28-3.66.64-1.86c.19-.62.32-1.26.48-1.89-.77.28-.83,1.18-1.1,2.34A11.5,11.5,0,0,1,168.6,105.3Z"/><path class="cls-1" d="M124.8,168.46l-.41-.1-.62.5C124.08,168.75,124.39,168.63,124.8,168.46Z"/><path class="cls-1" d="M117.51,170.52c1.75-.28,3.53-.53,5.29-.89.34-.31.64-.52,1-.77a7.15,7.15,0,0,1-3,.58A8.48,8.48,0,0,0,117.51,170.52Z"/><path class="cls-1" d="M123.68,168.18l.71.18a16,16,0,0,1,5.26-2.4,27.51,27.51,0,0,0,6.42-3.4,65.62,65.62,0,0,0-6.53,2.94C127.41,166.39,125.41,167.31,123.68,168.18Z"/><path class="cls-1" d="M167.21,95.45c0-1.53-.06-3-.15-4.54a8.32,8.32,0,0,0,2.33-2.47,13.69,13.69,0,0,0,1.83-5.16,33.11,33.11,0,0,0,.22-3.92q0-1.11-.05-2.37l-.07-1.29-.22-1.34q-.36-2-.85-4c-.23-.91-.47-1.83-.75-2.74,0-.24,0-.47-.08-.71-.27-1.51-.59-3.1-.94-4.76l-.56-2.53c-.24-.84-.53-1.68-.81-2.54-2.7-3.5-6.11-8.55-10-13.19l-2.23-2.64-.61-1.42c-1-.87-2.54-2.11-4-3.43l-1.93-1.95c-.92-.87-1.86-1.6-2.67-2.3A71.64,71.64,0,0,0,120.29,15,75.89,75.89,0,0,0,91.53,9.5a40.88,40.88,0,0,0-5.69.2L83,9.93a19.66,19.66,0,0,0-2.83.37q-2.81.54-5.59,1.14l-1.39.3-1.36.43-2.69.88a71.27,71.27,0,0,0-10.27,4.31c-1.63.82-3.16,1.84-4.7,2.75l-2.27,1.4c-.75.46-1.43,1-2.14,1.56a21.71,21.71,0,0,0-4.65.77,13.83,13.83,0,0,0-1.46.47q-.72.32-1.49.73a26.59,26.59,0,0,0-3.21,2c-6,4.43-12.79,10.39-17.39,17.44l-.91,1.27-.78,1.34q-.76,1.34-1.47,2.66T17,52.42a27.24,27.24,0,0,0-1,2.64c-.62,1.75-1.14,3.43-1.53,5A24.76,24.76,0,0,0,14,64.66a30.77,30.77,0,0,0-2,3.21,26,26,0,0,0-1.27,3.39,31.67,31.67,0,0,0-.8,3.15A9.51,9.51,0,0,0,9.73,77c.08,2.2.07,4.42,0,6.65,0,1.63.07,3.29.1,5l-.07.76c-.81,9-.16,18.75,3.12,27,0-.17,0-.43,0-.69A69.64,69.64,0,0,0,19,132q1.13,1.71,2.23,3.47a40.21,40.21,0,0,0,2.28,3.47l2.42,3.35,1.2,1.66c.42.53.88,1,1.31,1.54l2.59,3,1.27,1.43,1.36,1.26a49.32,49.32,0,0,0,5.22,4.33c2.14,1.24,4.1,2.49,6,3.72,2,1.08,3.81,2.16,5.61,3.23a17.15,17.15,0,0,0,1.62.9A21.66,21.66,0,0,0,54,164.68l.09.07h0a25.94,25.94,0,0,0,2.51,1.39c-.94-.5-1.74-1-2.47-1.43l.23-.26,1.59.76,2.08.94c.37.22.71.45,1.09.65l5,2.43c1.62.85,3.22,1.36,4.5,2a10.79,10.79,0,0,1,2.77,1.58c2.8-.76-2-1.85-6.08-3.07,2.15.61,4.56,1.12,7,1.7A34.44,34.44,0,0,0,76,172l3.69.58.88.15c-.52,0-1,0-1.5,0a8.37,8.37,0,0,1-4.33-.82c-1.27.27-.92.7.52,1.31,2.5.2,6,1.12,9,1.21,2.74.21,4.91.25,5.18-.26h0a22.17,22.17,0,0,1,2.49.63l2.39-1,1,.2a9.11,9.11,0,0,0-.9-.38l.7-.05,3-.17,3-.41a54.69,54.69,0,0,0,5.63-1,32.83,32.83,0,0,0,4.7-1.72,10,10,0,0,0,1-1c1.75.11-.78.79-1.26,1.47,1-.26,2-.48,2.92-.75s1.67-.62,2.36-.93a6.72,6.72,0,0,0,2.83-1.88l-3.78,1.13-1.88.56-1,.21a1.23,1.23,0,0,0,.32-.91c.39-.22.77-.46,1.12-.7a74.62,74.62,0,0,0,8-2.95c3.32-.81,6.21-1.55,9-2.3-.08.14-.16.28-.24.41l-1.26.62c-1.18.66-2.6,1.15-3.78,1.69l-2.85,1.21,5.12-1.06a15.24,15.24,0,0,0,1.3-1.35,2.15,2.15,0,0,1,1.26-.33.45.45,0,0,0,.24.13.62.62,0,0,1,.11.23l.26-.18a5,5,0,0,0,.55,0l0-.39,1.92-1.32c0-.1,0-.16,0-.21.85-.13,1.72-.27,2.67-.49a23.13,23.13,0,0,0,6-2.9c0-.06.06-.14.09-.21a42.49,42.49,0,0,0,6.78-4.33c.62-.28,1.79-2.09,2.76-3.92l.35-.36a7.53,7.53,0,0,0,1.13-2.73c.23-.6.35-1,.27-1.14-1.46.25-3.91,1.91-6.5,3.77l-.87.55.65-.58a4.2,4.2,0,0,1-.45.27l-.26.35c-1.07.67-2.17,1.34-3.21,2a33.75,33.75,0,0,1-3.37,1.86A75.07,75.07,0,0,0,167.21,95.45Z"/><path class="cls-1" d="M131.77,162.06v-.16h0l.62-.11Z"/><circle class="cls-2" cx="91.56" cy="92.43" r="70.38"/><rect class="cls-3" x="91.22" y="71.83" width="6.82" height="95.64" rx="1.73" ry="1.73" transform="translate(214.28 25.02) rotate(90)"/><circle class="cls-3" cx="66.64" cy="133.08" r="2.56"/><path class="cls-3" d="M124.7,134.79H77.44a2,2,0,1,1,0-3.94H124.7a2,2,0,1,1,0,3.94Z"/><path class="cls-3" d="M71.69,119.3a2,2,0,0,1-2-2V74a2,2,0,0,1,3.94,0v43.32A2,2,0,0,1,71.69,119.3Z"/><path class="cls-3" d="M57.9,121.27a2,2,0,0,1-2-2V99.61a2,2,0,0,1,3.94,0V119.3A2,2,0,0,1,57.9,121.27Z"/><path class="cls-3" d="M70.7,90.75a2,2,0,0,1-1.39-.58l-12.8-12.8a2,2,0,1,1,2.78-2.78l12.8,12.8a2,2,0,0,1-1.39,3.36Z"/><path class="cls-3" d="M71.69,108.47a2,2,0,0,1-1.39-3.36l12.8-12.8a2,2,0,0,1,2.78,2.78l-12.8,12.8A2,2,0,0,1,71.69,108.47Z"/><path class="cls-4" d="M143,79.17l-13.36-3.39c-.62-.15-1,.05-1.06.33s.09.65.69.87l13,4.71c.59.22,1.13-.31,1.35-1S143.62,79.32,143,79.17Z"/><path class="cls-4" d="M139.24,87.56l-11.38-7.77c-1.08-.71-1.71.19-.77,1l10.55,8.87C138.63,90.52,140.3,88.26,139.24,87.56Z"/><path class="cls-4" d="M132.82,94.12l-8.05-11.19c-.74-1-1.67-.42-1.06.69l6.9,11.93C131.23,96.68,133.62,95.19,132.82,94.12Z"/><path class="cls-4" d="M124.54,98.11l-3.73-13.27c-.37-1.22-1.41-.93-1.23.28L122,98.69C122.17,100,124.91,99.35,124.54,98.11Z"/><path class="cls-4" d="M115.41,99l1-13.75c.06-1.22-1-1.41-1.25-.16L112.8,98.69C112.55,100,115.34,100.35,115.41,99Z"/><path class="cls-4" d="M106.5,96.76l5.68-12.56c.5-1.17-.48-1.63-1.12-.58l-6.9,11.93C103.47,96.69,106,97.94,106.5,96.76Z"/><path class="cls-4" d="M98.91,91.59l9.63-9.87c.84-.9.14-1.74-.86-.93L97.12,89.66C96.13,90.46,98,92.55,98.91,91.59Z"/><path class="cls-4" d="M93.56,84.13l12.41-6c.57-.28.73-.68.6-.93s-.49-.44-1.08-.22l-13,4.71c-.6.21-.66,1-.41,1.61S93,84.41,93.56,84.13Z"/><path class="cls-4" d="M91.05,75.28l13.72-1.36c1.27-.15,1.22-1.25-.06-1.27H90.92C89.64,72.63,89.78,75.43,91.05,75.28Z"/><path class="cls-4" d="M91.76,66.13l13.36,3.39c.62.15,1-.05,1.06-.33s-.09-.65-.69-.87l-13-4.72c-.59-.22-1.13.31-1.35,1S91.14,66,91.76,66.13Z"/><path class="cls-4" d="M95.53,57.75l11.38,7.77c1.08.71,1.71-.19.77-1L97.12,55.65C96.13,54.79,94.46,57,95.53,57.75Z"/><path class="cls-4" d="M101.94,51.19,110,62.37c.74,1,1.67.42,1.06-.69l-6.9-11.93C103.53,48.63,101.14,50.12,101.94,51.19Z"/><path class="cls-4" d="M110.22,47.2l3.73,13.27c.37,1.22,1.41.93,1.23-.28L112.8,46.61C112.59,45.29,109.85,46,110.22,47.2Z"/><path class="cls-4" d="M119.35,46.29l-1,13.75c-.06,1.22,1,1.41,1.25.16L122,46.61C122.21,45.35,119.43,45,119.35,46.29Z"/><path class="cls-4" d="M128.26,48.55l-5.68,12.56c-.5,1.17.48,1.63,1.12.58l6.9-11.93C131.29,48.61,128.77,47.37,128.26,48.55Z"/><path class="cls-4" d="M135.85,53.72l-9.63,9.87c-.84.9-.14,1.74.86.93l10.55-8.87C138.63,54.85,136.76,52.75,135.85,53.72Z"/><path class="cls-4" d="M141.2,61.18l-12.41,6c-.57.28-.73.68-.6.93s.49.44,1.08.22l13-4.72c.6-.21.66-1,.41-1.61S141.77,60.9,141.2,61.18Z"/><path class="cls-4" d="M143.71,70,130,71.38c-1.27.15-1.22,1.25.06,1.27h13.78C145.12,72.68,145,69.88,143.71,70Z"/><circle class="cls-1" cx="117.38" cy="72.65" r="19.06"/></svg>