<svg id="Layer_1" data-name="Layer 1" xmlns="http://www.w3.org/2000/svg" viewBox="0 0 283.46 283.46"><defs><style>.cls-1{fill:#d8b840;}.cls-2{fill:#fff;}.cls-3{fill:#a2c636;}.cls-4{fill:#184f25;}.cls-5{fill:#ffda00;}.cls-6{fill:#bdbebf;}.cls-7{fill:#d1d2d4;}.cls-8{fill:#008d41;}</style></defs><title>52 Climate Actions icons F</title><path class="cls-1" d="M222.42,144.13c0,.5,0,1.07-.14,1.75,0,0,.05,0,.08,0l.14-1.61Z"/><path class="cls-1" d="M222.35,145.88l-.29,3.29a19.28,19.28,0,0,1,2.15-5.49c0,1.72-.28,4.48-.83,3.71l.55,2.5.5-7.85C223.77,143.51,223.25,146,222.35,145.88Z"/><path class="cls-1" d="M221.42,146.15c.41,2.85-.16-4.14,1-2a2.74,2.74,0,0,1,.3-1.48C222.06,141.36,221.71,143.48,221.42,146.15Z"/><path class="cls-1" d="M220.39,162.36c.22-.09.51-.41.92-1.17C221.14,161.09,220.78,161.68,220.39,162.36Z"/><path class="cls-1" d="M217.55,164.5c.75-1.36,1.5-2.75,1.89-1.92l-.54,1.52c.23.52.9-.72,1.49-1.74C219.5,162.73,219.62,159.43,217.55,164.5Z"/><path class="cls-1" d="M218.2,154.91l0,1.15,1.28-3.66.64-1.86c.19-.62.32-1.26.48-1.89-.77.28-.83,1.18-1.1,2.34A11.5,11.5,0,0,1,218.2,154.91Z"/><path class="cls-1" d="M174.4,218.06,174,218l-.62.5C173.69,218.35,174,218.24,174.4,218.06Z"/><path class="cls-1" d="M167.12,220.13c1.75-.28,3.53-.53,5.29-.89.34-.31.64-.52,1-.77a7.15,7.15,0,0,1-3,.58A8.48,8.48,0,0,0,167.12,220.13Z"/><path class="cls-1" d="M173.28,217.78l.71.18a16,16,0,0,1,5.26-2.4,27.51,27.51,0,0,0,6.42-3.4,65.62,65.62,0,0,0-6.53,2.94C177,216,175,216.91,173.28,217.78Z"/><path class="cls-1" d="M216.81,145.06c0-1.53-.06-3-.15-4.54a8.32,8.32,0,0,0,2.33-2.47,13.69,13.69,0,0,0,1.83-5.16A33.11,33.11,0,0,0,221,129q0-1.11-.05-2.37l-.07-1.29L220.7,124q-.36-2-.85-4c-.23-.91-.47-1.83-.75-2.74,0-.24,0-.47-.08-.71-.27-1.51-.59-3.1-.94-4.76l-.56-2.53c-.24-.84-.53-1.68-.81-2.54-2.7-3.5-6.11-8.55-10-13.19l-2.23-2.64-.61-1.42c-1-.87-2.54-2.11-4-3.43L198,84c-.92-.87-1.86-1.6-2.67-2.3a71.64,71.64,0,0,0-25.4-17.16,75.89,75.89,0,0,0-28.76-5.46,40.88,40.88,0,0,0-5.69.2l-2.84.23a19.66,19.66,0,0,0-2.83.37q-2.81.54-5.59,1.14l-1.39.3-1.36.43-2.69.88A71.27,71.27,0,0,0,108.48,67c-1.63.82-3.16,1.84-4.7,2.75l-2.27,1.4c-.75.46-1.43,1-2.14,1.56a21.71,21.71,0,0,0-4.65.77,13.83,13.83,0,0,0-1.46.47q-.72.32-1.49.73a26.59,26.59,0,0,0-3.21,2c-6,4.43-12.79,10.39-17.39,17.44l-.91,1.27-.78,1.34q-.76,1.34-1.47,2.66T66.65,102a27.24,27.24,0,0,0-1,2.64c-.62,1.75-1.14,3.43-1.53,5a24.76,24.76,0,0,0-.47,4.58,30.77,30.77,0,0,0-2,3.21,26,26,0,0,0-1.27,3.39,31.67,31.67,0,0,0-.8,3.15,9.51,9.51,0,0,0-.25,2.58c.08,2.2.07,4.42,0,6.65,0,1.63.07,3.29.1,5l-.07.76c-.81,9-.16,18.75,3.12,27,0-.17,0-.43,0-.69a69.64,69.64,0,0,0,6.16,16.35q1.13,1.71,2.23,3.47a40.21,40.21,0,0,0,2.28,3.47l2.42,3.35,1.2,1.66c.42.53.88,1,1.31,1.54l2.59,3,1.27,1.43,1.36,1.26a49.32,49.32,0,0,0,5.22,4.33c2.14,1.24,4.1,2.49,6,3.72,2,1.08,3.81,2.16,5.61,3.23a17.15,17.15,0,0,0,1.62.9,21.66,21.66,0,0,0,1.93,1.35l.09.07h0a25.94,25.94,0,0,0,2.51,1.39c-.94-.5-1.74-1-2.47-1.43l.23-.26,1.59.76,2.08.94c.37.22.71.45,1.09.65l5,2.43c1.62.85,3.22,1.36,4.5,2a10.79,10.79,0,0,1,2.77,1.58c2.8-.76-2-1.85-6.08-3.07,2.15.61,4.56,1.12,7,1.7a34.44,34.44,0,0,0,3.72.64l3.69.58.88.15c-.52,0-1,0-1.5,0a8.37,8.37,0,0,1-4.33-.82c-1.27.27-.92.7.52,1.31,2.5.2,6,1.12,9,1.21,2.74.21,4.91.25,5.18-.26h0a22.17,22.17,0,0,1,2.49.63l2.39-1,1,.2a9.11,9.11,0,0,0-.9-.38l.7-.05,3-.17,3-.41a54.69,54.69,0,0,0,5.63-1,32.83,32.83,0,0,0,4.7-1.72,10,10,0,0,0,1-1c1.75.11-.78.79-1.26,1.47,1-.26,2-.48,2.92-.75s1.67-.62,2.36-.93a6.72,6.72,0,0,0,2.83-1.88l-3.78,1.13-1.88.56-1,.21a1.23,1.23,0,0,0,.32-.91c.39-.22.77-.46,1.12-.7a74.62,74.62,0,0,0,8-2.95c3.32-.81,6.21-1.55,9-2.3-.08.14-.16.28-.24.41l-1.26.62c-1.18.66-2.6,1.15-3.78,1.69l-2.85,1.21,5.12-1.06a15.24,15.24,0,0,0,1.3-1.35,2.15,2.15,0,0,1,1.26-.33.45.45,0,0,0,.24.13.62.62,0,0,1,.11.23l.26-.18a5,5,0,0,0,.55,0l0-.39,1.92-1.32c0-.1,0-.16,0-.21.85-.13,1.72-.27,2.67-.49a23.13,23.13,0,0,0,6-2.9c0-.06.06-.14.09-.21a42.49,42.49,0,0,0,6.78-4.33c.62-.28,1.79-2.09,2.76-3.92l.35-.36a7.53,7.53,0,0,0,1.13-2.73c.23-.6.35-1,.27-1.14-1.46.25-3.91,1.91-6.5,3.77l-.87.55.65-.58a4.2,4.2,0,0,1-.45.27l-.26.35c-1.07.67-2.17,1.34-3.21,2a33.75,33.75,0,0,1-3.37,1.86A75.07,75.07,0,0,0,216.81,145.06Z"/><path class="cls-1" d="M181.37,211.67v-.16h0l.62-.11Z"/><circle class="cls-2" cx="141.17" cy="142.04" r="70.38"/><path class="cls-3" d="M162.41,148.8H137.87a27.19,27.19,0,0,1-.6,16.21h21.21a22.09,22.09,0,0,1-.25-3.34A21.8,21.8,0,0,1,162.41,148.8Z"/><path class="cls-1" d="M180.13,139.76a21.8,21.8,0,0,1,12,3.6v-2.55c0-8.27-8.47-8.47-8.47-8.47H143.53l-2.19-20.13c-.77-9.3-6.89-9.16-6.89-9.16H100.09v28a27.37,27.37,0,0,1,37.78,17.76h24.54A21.87,21.87,0,0,1,180.13,139.76Z"/><path class="cls-3" d="M111.41,128.57a27.46,27.46,0,0,0-18,6.73l-.43.39v12.58l4.27,12.47,40,4.27a27.35,27.35,0,0,0-25.86-36.44Z"/><path class="cls-4" d="M111.52,133a23,23,0,1,0,23,23A23,23,0,0,0,111.52,133Zm0,42.94a20,20,0,1,1,20-20A20,20,0,0,1,111.52,175.95Z"/><circle class="cls-4" cx="111.52" cy="155.97" r="19.97"/><circle class="cls-5" cx="111.52" cy="155.97" r="13.09"/><path class="cls-6" d="M118.52,146.79a11.48,11.48,0,0,1,2.62,7.26,11.59,11.59,0,0,1-11.59,11.59,11.47,11.47,0,0,1-7-2.4,11.55,11.55,0,1,0,16-16.44Z"/><path class="cls-7" d="M121.14,154a11.48,11.48,0,0,0-2.62-7.26,11.46,11.46,0,0,0-7-2.41,11.53,11.53,0,0,0-9,18.85,11.47,11.47,0,0,0,7,2.4A11.59,11.59,0,0,0,121.14,154Z"/><path class="cls-3" d="M192.16,143.36a21.9,21.9,0,0,0-33.93,18.3,22.09,22.09,0,0,0,.25,3.34h33.67Z"/><path class="cls-4" d="M180.13,144.38a17.28,17.28,0,1,0,17.28,17.28A17.28,17.28,0,0,0,180.13,144.38Zm0,32.31a15,15,0,1,1,15-15A15,15,0,0,1,180.13,176.69Z"/><circle class="cls-4" cx="180.13" cy="161.66" r="15.02"/><circle class="cls-5" cx="180.13" cy="161.66" r="9.85"/><path class="cls-6" d="M185.4,154.76a8.68,8.68,0,0,1-12,12.37,8.69,8.69,0,1,0,12-12.37Z"/><path class="cls-7" d="M187.37,160.22a8.68,8.68,0,1,0-8.72,8.72A8.64,8.64,0,0,0,187.37,160.22Z"/><path class="cls-5" d="M136.64,166.35a1.5,1.5,0,0,1-.49-.08,1.49,1.49,0,0,1-.91-1.89,25.9,25.9,0,0,0-41.44-28.1l-.26.24-.14.13a1.48,1.48,0,0,1-2-2.19l.13-.12.33-.3A28.85,28.85,0,0,1,138,165.35,1.49,1.49,0,0,1,136.64,166.35Z"/><path class="cls-5" d="M157.85,166.35a1.49,1.49,0,0,1-1.47-1.26,23.72,23.72,0,0,1-.27-3.57A23.38,23.38,0,0,1,192.34,142a1.48,1.48,0,0,1-1.63,2.48,20.42,20.42,0,0,0-31.63,17.06,20.73,20.73,0,0,0,.24,3.12,1.48,1.48,0,0,1-1.24,1.69Z"/><path class="cls-1" d="M183.63,135.31H140.87l-.71-6.54H124.9a30.42,30.42,0,0,1,15.15,17.06H161a24.87,24.87,0,0,1,27.75-7.52C187.58,135.73,184.7,135.36,183.63,135.31Z"/><path class="cls-2" d="M138.38,112.45c-.33-4-1.73-5.48-2.78-6.06l-14.47,20.26v.56a30.29,30.29,0,0,1,3.76,1.55h3.43l10.26-14.38Z"/><path class="cls-2" d="M135.61,106.39a2.75,2.75,0,0,0-1.16-.37H121.14v20.64Z"/><polygon class="cls-2" points="138.59 114.39 128.33 128.77 140.16 128.77 138.59 114.39"/><path class="cls-2" d="M120.81,127.11l.33.11v-.56Z"/><path class="cls-2" d="M121.14,106H103.06v20.77a30,30,0,0,1,17.75.33l.33-.46Z"/><path class="cls-4" d="M137.7,126.57c-.59-5.44.37-18.26-6.86-19.34-7.77-1.16-17,0-24.89,0a1.35,1.35,0,0,0,0,2.71h19.72c1.39,0,3.81-.44,5.17,0,2.79.9,2.8,4.33,3.09,6.77.38,3.28.71,6.57,1.07,9.86.19,1.71,2.9,1.73,2.71,0Z"/><path class="cls-5" d="M161.65,132.34H159.7v-29.2c0-2.27-1.21-2.82-1.52-2.92h-1.44V98.28l1.76,0c1.09.22,3.14,1.52,3.14,4.85Z"/><path class="cls-3" d="M157.28,109v16.28a3.41,3.41,0,0,0,2.07,3.14V105.85A3.41,3.41,0,0,0,157.28,109Z"/><path class="cls-3" d="M160.69,105.57a3.4,3.4,0,0,0-1.34.27V128.4a3.41,3.41,0,0,0,4.75-3.14V109A3.41,3.41,0,0,0,160.69,105.57Z"/><path class="cls-8" d="M138.46,166.35c.61.1.64-13.32.3-15a27,27,0,0,0-30.84-21.1c-5,.83-8.16,3.12-12.37,5.51-.87.49-1.8,1.65-1.39.06,1.05-4.1,11.59-6.08,15.26-6.47a27.42,27.42,0,0,1,23.39,8.76c4.69,5.12,12.81,22.65,4.82,28.33-1.13.8,0,2.68,1.09,1.87,4.61-3.27,4-11.91,3.07-16.92a30,30,0,0,0-31-24.42c-4.51.24-16.3,2.6-18.55,7.68-4.35,9.82,14.37-2,14.91-2.08,15.14-3.44,30.07,8.92,30,24.29,0,2.33-4,10.76.73,11.56C139.25,168.67,139.83,166.58,138.46,166.35Z"/><path class="cls-8" d="M159.67,166.35c-3.85-1.42,1.41-13.85,2.29-15.29a22.45,22.45,0,0,1,12.54-9.8,22.19,22.19,0,0,1,10.76-.6c1.17.23,8.44,1.94,5.46,2.71-.27.07-4.57-1.69-4.69-1.72a22,22,0,0,0-5-.59,21.54,21.54,0,0,0-20,13.71c-.21.55-2.42,11.6-1.62,11.54-1.38.11-1.39,2.28,0,2.17,3.05-.24,2.24-3,2.35-5.13.49-9.54,5.8-17.81,15.72-19.79a19.79,19.79,0,0,1,8,.18c-.1,0,5.5,2.78,6.49,2.8,1.33,0,1.77.55,2.89-.53,1.87-1.8,0-3.44-1.4-4.51-9-6.69-23.23-3.29-30.36,4.44-3.35,3.64-11.69,19.64-4,22.49C160.4,168.92,161,166.83,159.67,166.35Z"/><circle class="cls-4" cx="180.13" cy="162.08" r="2.81"/><circle class="cls-4" cx="111.52" cy="156.9" r="2.81"/></svg>