<svg id="Layer_1" data-name="Layer 1" xmlns="http://www.w3.org/2000/svg" viewBox="0 0 184.25 184.25"><defs><style>.cls-1{fill:#d8b840;}.cls-2{fill:#fff;}.cls-3{fill:#a2c636;}.cls-4{fill:#184f25;}.cls-5{fill:#ffda00;}.cls-6{fill:#bdbebf;}.cls-7{fill:#d1d2d4;}.cls-8{fill:#008d41;}</style></defs><title>52 Climate Actions icons F</title><path class="cls-1" d="M172.81,94.53c0,.5,0,1.07-.14,1.75,0,0,.05,0,.08,0l.14-1.61Z"/><path class="cls-1" d="M172.75,96.27l-.29,3.29a19.28,19.28,0,0,1,2.15-5.49c0,1.72-.28,4.48-.83,3.71l.55,2.5.5-7.85C174.16,93.91,173.64,96.42,172.75,96.27Z"/><path class="cls-1" d="M171.81,96.54c.41,2.85-.16-4.14,1-2a2.74,2.74,0,0,1,.3-1.48C172.46,91.75,172.1,93.87,171.81,96.54Z"/><path class="cls-1" d="M170.78,112.75c.22-.09.51-.41.92-1.17C171.53,111.49,171.18,112.07,170.78,112.75Z"/><path class="cls-1" d="M167.94,114.9c.75-1.36,1.5-2.75,1.89-1.92l-.54,1.52c.23.52.9-.72,1.49-1.74C169.9,113.12,170,109.82,167.94,114.9Z"/><path class="cls-1" d="M168.6,105.3l0,1.15,1.28-3.66.64-1.86c.19-.62.32-1.26.48-1.89-.77.28-.83,1.18-1.1,2.34A11.5,11.5,0,0,1,168.6,105.3Z"/><path class="cls-1" d="M124.8,168.46l-.41-.1-.62.5C124.08,168.75,124.39,168.63,124.8,168.46Z"/><path class="cls-1" d="M117.51,170.52c1.75-.28,3.53-.53,5.29-.89.34-.31.64-.52,1-.77a7.15,7.15,0,0,1-3,.58A8.48,8.48,0,0,0,117.51,170.52Z"/><path class="cls-1" d="M123.68,168.18l.71.18a16,16,0,0,1,5.26-2.4,27.51,27.51,0,0,0,6.42-3.4,65.62,65.62,0,0,0-6.53,2.94C127.41,166.39,125.41,167.31,123.68,168.18Z"/><path class="cls-1" d="M167.21,95.45c0-1.53-.06-3-.15-4.54a8.32,8.32,0,0,0,2.33-2.47,13.69,13.69,0,0,0,1.83-5.16,33.11,33.11,0,0,0,.22-3.92q0-1.11-.05-2.37l-.07-1.29-.22-1.34q-.36-2-.85-4c-.23-.91-.47-1.83-.75-2.74,0-.24,0-.47-.08-.71-.27-1.51-.59-3.1-.94-4.76l-.56-2.53c-.24-.84-.53-1.68-.81-2.54-2.7-3.5-6.11-8.55-10-13.19l-2.23-2.64-.61-1.42c-1-.87-2.54-2.11-4-3.43l-1.93-1.95c-.92-.87-1.86-1.6-2.67-2.3A71.64,71.64,0,0,0,120.29,15,75.89,75.89,0,0,0,91.53,9.5a40.88,40.88,0,0,0-5.69.2L83,9.93a19.66,19.66,0,0,0-2.83.37q-2.81.54-5.59,1.14l-1.39.3-1.36.43-2.69.88a71.27,71.27,0,0,0-10.27,4.31c-1.63.82-3.16,1.84-4.7,2.75l-2.27,1.4c-.75.46-1.43,1-2.14,1.56a21.71,21.71,0,0,0-4.65.77,13.83,13.83,0,0,0-1.46.47q-.72.32-1.49.73a26.59,26.59,0,0,0-3.21,2c-6,4.43-12.79,10.39-17.39,17.44l-.91,1.27-.78,1.34q-.76,1.34-1.47,2.66T17,52.42a27.24,27.24,0,0,0-1,2.64c-.62,1.75-1.14,3.43-1.53,5A24.76,24.76,0,0,0,14,64.66a30.77,30.77,0,0,0-2,3.21,26,26,0,0,0-1.27,3.39,31.67,31.67,0,0,0-.8,3.15A9.51,9.51,0,0,0,9.73,77c.08,2.2.07,4.42,0,6.65,0,1.63.07,3.29.1,5l-.07.76c-.81,9-.16,18.75,3.12,27,0-.17,0-.43,0-.69A69.64,69.64,0,0,0,19,132q1.13,1.71,2.23,3.47a40.21,40.21,0,0,0,2.28,3.47l2.42,3.35,1.2,1.66c.42.53.88,1,1.31,1.54l2.59,3,1.27,1.43,1.36,1.26a49.32,49.32,0,0,0,5.22,4.33c2.14,1.24,4.1,2.49,6,3.72,2,1.08,3.81,2.16,5.61,3.23a17.15,17.15,0,0,0,1.62.9A21.66,21.66,0,0,0,54,164.68l.09.07h0a25.94,25.94,0,0,0,2.51,1.39c-.94-.5-1.74-1-2.47-1.43l.23-.26,1.59.76,2.08.94c.37.22.71.45,1.09.65l5,2.43c1.62.85,3.22,1.36,4.5,2a10.79,10.79,0,0,1,2.77,1.58c2.8-.76-2-1.85-6.08-3.07,2.15.61,4.56,1.12,7,1.7A34.44,34.44,0,0,0,76,172l3.69.58.88.15c-.52,0-1,0-1.5,0a8.37,8.37,0,0,1-4.33-.82c-1.27.27-.92.7.52,1.31,2.5.2,6,1.12,9,1.21,2.74.21,4.91.25,5.18-.26h0a22.17,22.17,0,0,1,2.49.63l2.39-1,1,.2a9.11,9.11,0,0,0-.9-.38l.7-.05,3-.17,3-.41a54.69,54.69,0,0,0,5.63-1,32.83,32.83,0,0,0,4.7-1.72,10,10,0,0,0,1-1c1.75.11-.78.79-1.26,1.47,1-.26,2-.48,2.92-.75s1.67-.62,2.36-.93a6.72,6.72,0,0,0,2.83-1.88l-3.78,1.13-1.88.56-1,.21a1.23,1.23,0,0,0,.32-.91c.39-.22.77-.46,1.12-.7a74.62,74.62,0,0,0,8-2.95c3.32-.81,6.21-1.55,9-2.3-.08.14-.16.28-.24.41l-1.26.62c-1.18.66-2.6,1.15-3.78,1.69l-2.85,1.21,5.12-1.06a15.24,15.24,0,0,0,1.3-1.35,2.15,2.15,0,0,1,1.26-.33.45.45,0,0,0,.24.13.62.62,0,0,1,.11.23l.26-.18a5,5,0,0,0,.55,0l0-.39,1.92-1.32c0-.1,0-.16,0-.21.85-.13,1.72-.27,2.67-.49a23.13,23.13,0,0,0,6-2.9c0-.06.06-.14.09-.21a42.49,42.49,0,0,0,6.78-4.33c.62-.28,1.79-2.09,2.76-3.92l.35-.36a7.53,7.53,0,0,0,1.13-2.73c.23-.6.35-1,.27-1.14-1.46.25-3.91,1.91-6.5,3.77l-.87.55.65-.58a4.2,4.2,0,0,1-.45.27l-.26.35c-1.07.67-2.17,1.34-3.21,2a33.75,33.75,0,0,1-3.37,1.86A75.07,75.07,0,0,0,167.21,95.45Z"/><path class="cls-1" d="M131.77,162.06v-.16h0l.62-.11Z"/><circle class="cls-2" cx="91.56" cy="92.43" r="70.38"/><path class="cls-3" d="M112.8,99.19H88.26a27.19,27.19,0,0,1-.6,16.21h21.21a22.09,22.09,0,0,1-.25-3.34A21.8,21.8,0,0,1,112.8,99.19Z"/><path class="cls-1" d="M130.53,90.16a21.8,21.8,0,0,1,12,3.6V91.2c0-8.27-8.47-8.47-8.47-8.47H93.92L91.73,62.6c-.77-9.3-6.89-9.16-6.89-9.16H50.48v28A27.37,27.37,0,0,1,88.26,99.19H112.8A21.87,21.87,0,0,1,130.53,90.16Z"/><path class="cls-3" d="M61.81,79a27.46,27.46,0,0,0-18,6.73l-.43.39V98.66l4.27,12.47,40,4.27A27.35,27.35,0,0,0,61.81,79Z"/><path class="cls-4" d="M61.92,83.39a23,23,0,1,0,23,23A23,23,0,0,0,61.92,83.39Zm0,42.94a20,20,0,1,1,20-20A20,20,0,0,1,61.92,126.34Z"/><circle class="cls-4" cx="61.92" cy="106.37" r="19.97"/><circle class="cls-5" cx="61.92" cy="106.37" r="13.09"/><path class="cls-6" d="M68.91,97.18a11.48,11.48,0,0,1,2.62,7.26A11.59,11.59,0,0,1,59.94,116a11.47,11.47,0,0,1-7-2.4,11.55,11.55,0,1,0,16-16.44Z"/><path class="cls-7" d="M71.53,104.44a11.48,11.48,0,0,0-2.62-7.26,11.46,11.46,0,0,0-7-2.41,11.53,11.53,0,0,0-9,18.85,11.47,11.47,0,0,0,7,2.4A11.59,11.59,0,0,0,71.53,104.44Z"/><path class="cls-3" d="M142.55,93.75a21.9,21.9,0,0,0-33.93,18.3,22.09,22.09,0,0,0,.25,3.34h33.67Z"/><path class="cls-4" d="M130.53,94.78a17.28,17.28,0,1,0,17.28,17.28A17.28,17.28,0,0,0,130.53,94.78Zm0,32.31a15,15,0,1,1,15-15A15,15,0,0,1,130.53,127.08Z"/><circle class="cls-4" cx="130.53" cy="112.06" r="15.02"/><circle class="cls-5" cx="130.53" cy="112.06" r="9.85"/><path class="cls-6" d="M135.79,105.15a8.68,8.68,0,0,1-12,12.37,8.69,8.69,0,1,0,12-12.37Z"/><path class="cls-7" d="M137.76,110.61a8.64,8.64,0,0,0-2-5.46,8.67,8.67,0,0,0-12,12.37,8.68,8.68,0,0,0,14-6.91Z"/><path class="cls-5" d="M87,116.74a1.5,1.5,0,0,1-.49-.08,1.49,1.49,0,0,1-.91-1.89,25.9,25.9,0,0,0-41.44-28.1l-.26.24-.14.13a1.48,1.48,0,0,1-2-2.19l.13-.12.33-.3a28.85,28.85,0,0,1,46.19,31.32A1.49,1.49,0,0,1,87,116.74Z"/><path class="cls-5" d="M108.24,116.74a1.49,1.49,0,0,1-1.47-1.26,23.72,23.72,0,0,1-.27-3.57,23.38,23.38,0,0,1,36.23-19.54,1.48,1.48,0,0,1-1.63,2.48,20.42,20.42,0,0,0-31.63,17.06,20.73,20.73,0,0,0,.24,3.12,1.48,1.48,0,0,1-1.24,1.69Z"/><path class="cls-1" d="M134,85.71H91.26l-.71-6.54H75.3A30.42,30.42,0,0,1,90.45,96.23h20.91a24.87,24.87,0,0,1,27.75-7.52C138,86.13,135.1,85.75,134,85.71Z"/><path class="cls-2" d="M88.78,62.85c-.33-4-1.73-5.48-2.78-6.06L71.53,77v.56a30.29,30.29,0,0,1,3.76,1.55h3.43L89,64.79Z"/><path class="cls-2" d="M86,56.78a2.75,2.75,0,0,0-1.16-.37H71.53V77Z"/><polygon class="cls-2" points="88.99 64.79 78.72 79.16 90.55 79.16 88.99 64.79"/><path class="cls-2" d="M71.21,77.51l.33.11V77Z"/><path class="cls-2" d="M71.53,56.41H53.45V77.17a30,30,0,0,1,17.75.33l.33-.46Z"/><path class="cls-4" d="M88.09,77c-.59-5.44.37-18.26-6.86-19.34-7.77-1.16-17,0-24.89,0a1.35,1.35,0,0,0,0,2.71H76.06c1.39,0,3.81-.44,5.17,0,2.79.9,2.8,4.33,3.09,6.77.38,3.28.71,6.57,1.07,9.86.19,1.71,2.9,1.73,2.71,0Z"/><path class="cls-5" d="M112,82.74H110.1V53.53c0-2.27-1.21-2.82-1.52-2.92h-1.44V48.67l1.76,0c1.09.22,3.14,1.52,3.14,4.85Z"/><path class="cls-3" d="M107.67,59.38V75.66a3.41,3.41,0,0,0,2.07,3.14V56.24A3.41,3.41,0,0,0,107.67,59.38Z"/><path class="cls-3" d="M111.08,56a3.4,3.4,0,0,0-1.34.27V78.8a3.41,3.41,0,0,0,4.75-3.14V59.38A3.41,3.41,0,0,0,111.08,56Z"/><path class="cls-8" d="M88.85,116.74c.61.1.64-13.32.3-15a27,27,0,0,0-30.84-21.1c-5,.83-8.16,3.12-12.37,5.51-.87.49-1.8,1.65-1.39.06,1.05-4.1,11.59-6.08,15.26-6.47A27.42,27.42,0,0,1,83.2,88.52C87.89,93.65,96,111.18,88,116.85c-1.13.8,0,2.68,1.09,1.87,4.61-3.27,4-11.91,3.07-16.92a30,30,0,0,0-31-24.42c-4.51.24-16.3,2.6-18.55,7.68C38.27,94.88,57,83.1,57.53,83c15.14-3.44,30.07,8.92,30,24.29,0,2.33-4,10.76.73,11.56C89.64,119.06,90.23,117,88.85,116.74Z"/><path class="cls-8" d="M110.06,116.74c-3.85-1.42,1.41-13.85,2.29-15.29a22.45,22.45,0,0,1,12.54-9.8,22.19,22.19,0,0,1,10.76-.6c1.17.23,8.44,1.94,5.46,2.71-.27.07-4.57-1.69-4.69-1.72a22,22,0,0,0-5-.59,21.54,21.54,0,0,0-20,13.71c-.21.55-2.42,11.6-1.62,11.54-1.38.11-1.39,2.28,0,2.17,3.05-.24,2.24-3,2.35-5.13.49-9.54,5.8-17.81,15.72-19.79a19.79,19.79,0,0,1,8,.18c-.1,0,5.5,2.78,6.49,2.8,1.33,0,1.77.55,2.89-.53,1.87-1.8,0-3.44-1.4-4.51-9-6.69-23.23-3.29-30.36,4.44-3.35,3.64-11.69,19.64-4,22.49C110.8,119.31,111.36,117.22,110.06,116.74Z"/><circle class="cls-4" cx="130.53" cy="112.47" r="2.81"/><circle class="cls-4" cx="61.92" cy="107.3" r="2.81"/></svg>