<svg id="Layer_1" data-name="Layer 1" xmlns="http://www.w3.org/2000/svg" viewBox="0 0 184.25 184.25"><defs><style>.cls-1{fill:#a2c636;}.cls-2{fill:#00a45c;}.cls-3{fill:#fff;}.cls-4{fill:#184f25;}.cls-5{fill:#d8b840;}</style></defs><title>52 Climate Actions icons F</title><path class="cls-1" d="M115.05,53.59c.32-2.33-4.69-4-7.26-4.13a43.74,43.74,0,0,0-9.38,1.32c2,1.61,6.52.22,9.66.41,3.57.22,6.7,1.79,6,3.35a9.32,9.32,0,0,1-.93,2.31A4.69,4.69,0,0,0,115.05,53.59Z"/><path class="cls-2" d="M172.81,94.53c0,.5,0,1.07-.14,1.75,0,0,.05,0,.08,0l.14-1.61Z"/><path class="cls-2" d="M172.75,96.27l-.29,3.29a19.28,19.28,0,0,1,2.15-5.49c0,1.72-.28,4.48-.83,3.71l.55,2.5.5-7.85C174.16,93.91,173.64,96.42,172.75,96.27Z"/><path class="cls-2" d="M171.81,96.54c.41,2.85-.16-4.14,1-2a2.74,2.74,0,0,1,.3-1.48C172.46,91.75,172.1,93.87,171.81,96.54Z"/><path class="cls-2" d="M170.78,112.75c.22-.09.51-.41.92-1.17C171.53,111.49,171.18,112.07,170.78,112.75Z"/><path class="cls-2" d="M167.94,114.9c.75-1.36,1.5-2.75,1.89-1.92l-.54,1.52c.23.52.9-.72,1.49-1.74C169.9,113.12,170,109.82,167.94,114.9Z"/><path class="cls-2" d="M168.6,105.3l0,1.15,1.28-3.66.64-1.86c.19-.62.32-1.26.48-1.89-.77.28-.83,1.18-1.1,2.34A11.5,11.5,0,0,1,168.6,105.3Z"/><path class="cls-2" d="M124.8,168.46l-.41-.1-.62.5C124.08,168.75,124.39,168.63,124.8,168.46Z"/><path class="cls-2" d="M117.51,170.52c1.75-.28,3.53-.53,5.29-.89.34-.31.64-.52,1-.77a7.15,7.15,0,0,1-3,.58A8.48,8.48,0,0,0,117.51,170.52Z"/><path class="cls-2" d="M123.68,168.18l.71.18a16,16,0,0,1,5.26-2.4,27.51,27.51,0,0,0,6.42-3.4,65.62,65.62,0,0,0-6.53,2.94C127.41,166.39,125.41,167.31,123.68,168.18Z"/><path class="cls-2" d="M167.21,95.45c0-1.53-.06-3-.15-4.54a8.32,8.32,0,0,0,2.33-2.47,13.69,13.69,0,0,0,1.83-5.16,33.11,33.11,0,0,0,.22-3.92q0-1.11-.05-2.37l-.07-1.29-.22-1.34q-.36-2-.85-4c-.23-.91-.47-1.83-.75-2.74,0-.24,0-.47-.08-.71-.27-1.51-.59-3.1-.94-4.76l-.56-2.53c-.24-.84-.53-1.68-.81-2.54-2.7-3.5-6.11-8.55-10-13.19l-2.23-2.64-.61-1.42c-1-.87-2.54-2.11-4-3.43l-1.93-1.95c-.92-.87-1.86-1.6-2.67-2.3A71.64,71.64,0,0,0,120.29,15,75.89,75.89,0,0,0,91.53,9.5a40.88,40.88,0,0,0-5.69.2L83,9.93a19.66,19.66,0,0,0-2.83.37q-2.81.54-5.59,1.14l-1.39.3-1.36.43-2.69.88a71.27,71.27,0,0,0-10.27,4.31c-1.63.82-3.16,1.84-4.7,2.75l-2.27,1.4c-.75.46-1.43,1-2.14,1.56a21.71,21.71,0,0,0-4.65.77,13.83,13.83,0,0,0-1.46.47q-.72.32-1.49.73a26.59,26.59,0,0,0-3.21,2c-6,4.43-12.79,10.39-17.39,17.44l-.91,1.27-.78,1.34q-.76,1.34-1.47,2.66T17,52.42a27.24,27.24,0,0,0-1,2.64c-.62,1.75-1.14,3.43-1.53,5A24.76,24.76,0,0,0,14,64.66a30.77,30.77,0,0,0-2,3.21,26,26,0,0,0-1.27,3.39,31.67,31.67,0,0,0-.8,3.15A9.51,9.51,0,0,0,9.73,77c.08,2.2.07,4.42,0,6.65,0,1.63.07,3.29.1,5l-.07.76c-.81,9-.16,18.75,3.12,27,0-.17,0-.43,0-.69A69.64,69.64,0,0,0,19,132q1.13,1.71,2.23,3.47a40.21,40.21,0,0,0,2.28,3.47l2.42,3.35,1.2,1.66c.42.53.88,1,1.31,1.54l2.59,3,1.27,1.43,1.36,1.26a49.32,49.32,0,0,0,5.22,4.33c2.14,1.24,4.1,2.49,6,3.72,2,1.08,3.81,2.16,5.61,3.23a17.15,17.15,0,0,0,1.62.9A21.66,21.66,0,0,0,54,164.68l.09.07h0a25.94,25.94,0,0,0,2.51,1.39c-.94-.5-1.74-1-2.47-1.43l.23-.26,1.59.76,2.08.94c.37.22.71.45,1.09.65l5,2.43c1.62.85,3.22,1.36,4.5,2a10.79,10.79,0,0,1,2.77,1.58c2.8-.76-2-1.85-6.08-3.07,2.15.61,4.56,1.12,7,1.7A34.44,34.44,0,0,0,76,172l3.69.58.88.15c-.52,0-1,0-1.5,0a8.37,8.37,0,0,1-4.33-.82c-1.27.27-.92.7.52,1.31,2.5.2,6,1.12,9,1.21,2.74.21,4.91.25,5.18-.26h0a22.17,22.17,0,0,1,2.49.63l2.39-1,1,.2a9.11,9.11,0,0,0-.9-.38l.7-.05,3-.17,3-.41a54.69,54.69,0,0,0,5.63-1,32.83,32.83,0,0,0,4.7-1.72,10,10,0,0,0,1-1c1.75.11-.78.79-1.26,1.47,1-.26,2-.48,2.92-.75s1.67-.62,2.36-.93a6.72,6.72,0,0,0,2.83-1.88l-3.78,1.13-1.88.56-1,.21a1.23,1.23,0,0,0,.32-.91c.39-.22.77-.46,1.12-.7a74.62,74.62,0,0,0,8-2.95c3.32-.81,6.21-1.55,9-2.3-.08.14-.16.28-.24.41l-1.26.62c-1.18.66-2.6,1.15-3.78,1.69l-2.85,1.21,5.12-1.06a15.24,15.24,0,0,0,1.3-1.35,2.15,2.15,0,0,1,1.26-.33.45.45,0,0,0,.24.13.62.62,0,0,1,.11.23l.26-.18a5,5,0,0,0,.55,0l0-.39,1.92-1.32c0-.1,0-.16,0-.21.85-.13,1.72-.27,2.67-.49a23.13,23.13,0,0,0,6-2.9c0-.06.06-.14.09-.21a42.49,42.49,0,0,0,6.78-4.33c.62-.28,1.79-2.09,2.76-3.92l.35-.36a7.53,7.53,0,0,0,1.13-2.73c.23-.6.35-1,.27-1.14-1.46.25-3.91,1.91-6.5,3.77l-.87.55.65-.58a4.2,4.2,0,0,1-.45.27l-.26.35c-1.07.67-2.17,1.34-3.21,2a33.75,33.75,0,0,1-3.37,1.86A75.07,75.07,0,0,0,167.21,95.45Z"/><path class="cls-2" d="M131.77,162.06v-.16h0l.62-.11Z"/><circle class="cls-3" cx="91.56" cy="92.43" r="70.38"/><circle class="cls-4" cx="132.87" cy="123.28" r="2.81"/><path class="cls-4" d="M29.89,85c7.24-.13,14.94.52,22.1-.39,13.57-1.73,13.08-23.09,28.73-18l-.32-2.47C73.65,67.76,73.67,76.78,79,81.76c6.69,6.22,20.73,4,25-3.86.83-1.53-1.51-2.9-2.34-1.37-2.92,5.41-8.8,6.2-14.1,5.6-6.92-.79-13.74-11.38-5.79-15.67A1.37,1.37,0,0,0,81.45,64c-5.21-1.71-9.52-1.53-14,2-5.92,4.64-6.12,14-14.58,15.86-7.06,1.52-15.71.28-23,.41a1.35,1.35,0,0,0,0,2.71Z"/><path class="cls-4" d="M57.42,133.76c7.17,0,14.63.65,21.77,0,12-1.09,13.1-20,26.16-15.92l-.32-2.47c-6.09,3.33-6.08,11.42-1.22,15.92,6.06,5.61,18.49,3.47,22.37-3.48.85-1.52-1.49-2.89-2.34-1.37-2.84,5.09-9.51,6-14.44,4.37-5.16-1.68-8.51-10.09-3-13.1a1.37,1.37,0,0,0-.32-2.47c-15.61-4.88-14,12.89-25.83,15.83-6.73,1.67-15.88,0-22.82,0a1.35,1.35,0,0,0,0,2.71Z"/><polygon class="cls-5" points="145.43 105.53 92.15 105.97 91.79 64.11 117.76 39.62 145.08 63.66 145.43 105.53"/><rect class="cls-4" x="97.47" y="43.67" width="7.37" height="12.61" transform="matrix(1, -0.01, 0.01, 1, -0.42, 0.86)"/><polygon class="cls-1" points="88.55 64.14 117.67 36.13 148.55 63.63 88.55 64.14"/><rect class="cls-4" x="111.3" y="71.14" width="14.51" height="14.5" transform="matrix(1, -0.01, 0.01, 1, -0.66, 1)"/><rect class="cls-3" x="110.13" y="77.86" width="16.86" height="1.07" transform="matrix(1, -0.01, 0.01, 1, -0.66, 1)"/><polygon class="cls-3" points="119.02 69.96 119.16 86.82 118.09 86.83 117.95 69.97 119.02 69.96"/><path class="cls-3" d="M149.72,105.63c-2,.06-15.46-.23-16.78-.46a7.34,7.34,0,0,1-4.34-3.32c-3.91-6.91,2.19-9.83,2.19-9.83-6.67-3-12,2.07-14.51,8.84-2.39,6.3-11.39,4.68-13.85,4.11a7.05,7.05,0,0,1-3.76-3.12c-3.91-6.91,2.18-9.83,2.18-9.83-6.67-3-12,2.07-14.51,8.84-2.14,5.63-10.32,4.94-14,4.32A7.33,7.33,0,0,1,68,101.84C64.12,94.93,70.21,92,70.21,92c-6.67-3-12,2.06-14.51,8.84-.84,2.27-3.13,3.63-6,4.42H29.89"/><path class="cls-4" d="M149.72,104.27c-3.25,0-6.51-.06-9.76-.15-1.4,0-3.66.27-5-.17-3.56-1.19-8.8-7.83-3.53-10.77a1.37,1.37,0,0,0-.32-2.47c-4.29-1.26-7.59-1.06-11.14,1.92-2.49,2.09-2.86,5.35-4.9,7.54q-4.91,5.23-11.12,3.74-7.6-8.06-2.46-10.72a1.37,1.37,0,0,0-.32-2.47c-4.29-1.26-7.59-1.06-11.14,1.92-2.52,2.11-2.93,5.17-4.9,7.54a8.69,8.69,0,0,1-8.81,4q-11.23-8-5.45-11a1.37,1.37,0,0,0-.32-2.47c-13.24-3.88-11.24,10.15-21.16,13.21-5.4,1.67-13.8,0-19.52,0a1.35,1.35,0,0,0,0,2.71c5.92,0,12.22.65,18.09,0,8.26-.91,14.5-15.47,21.87-13.3l-.32-2.47c-5.4,3-5.29,10.74-.32,14.27,3.17,2.25,8.63,2.42,12.23,1.3,7.66-2.38,8.52-16.18,19-13.1l-.32-2.47c-5.82,3.25-5,11.54.52,14.69,2.81,1.61,7,1.81,10.12,1,7.95-1.94,9.58-16.21,19.63-13.26l-.32-2.47c-4.94,2.75-5.28,9-1.52,13,4.69,5,15,3.18,21.14,3.13a1.35,1.35,0,0,0,0-2.71Z"/></svg>