<svg id="Layer_1" data-name="Layer 1" xmlns="http://www.w3.org/2000/svg" viewBox="0 0 283.46 283.46"><defs><style>.cls-1{fill:#d8b840;}.cls-2{fill:#fff;}.cls-3{fill:#a2c636;}.cls-4{fill:#008d41;}.cls-5{fill:#ffda00;}.cls-6{fill:#184f25;}</style></defs><title>52 Climate Actions icons F</title><path class="cls-1" d="M222.42,144.13c0,.5,0,1.07-.14,1.75,0,0,.05,0,.08,0l.14-1.61Z"/><path class="cls-1" d="M222.35,145.88l-.29,3.29a19.28,19.28,0,0,1,2.15-5.49c0,1.72-.28,4.48-.83,3.71l.55,2.5.5-7.85C223.77,143.51,223.25,146,222.35,145.88Z"/><path class="cls-1" d="M221.42,146.15c.41,2.85-.16-4.14,1-2a2.74,2.74,0,0,1,.3-1.48C222.06,141.36,221.71,143.48,221.42,146.15Z"/><path class="cls-1" d="M220.39,162.36c.22-.09.51-.41.92-1.17C221.14,161.09,220.78,161.68,220.39,162.36Z"/><path class="cls-1" d="M217.55,164.5c.75-1.36,1.5-2.75,1.89-1.92l-.54,1.52c.23.52.9-.72,1.49-1.74C219.5,162.73,219.62,159.43,217.55,164.5Z"/><path class="cls-1" d="M218.2,154.91l0,1.15,1.28-3.66.64-1.86c.19-.62.32-1.26.48-1.89-.77.28-.83,1.18-1.1,2.34A11.5,11.5,0,0,1,218.2,154.91Z"/><path class="cls-1" d="M174.4,218.06,174,218l-.62.5C173.69,218.35,174,218.24,174.4,218.06Z"/><path class="cls-1" d="M167.12,220.13c1.75-.28,3.53-.53,5.29-.89.34-.31.64-.52,1-.77a7.15,7.15,0,0,1-3,.58A8.48,8.48,0,0,0,167.12,220.13Z"/><path class="cls-1" d="M173.28,217.78l.71.18a16,16,0,0,1,5.26-2.4,27.51,27.51,0,0,0,6.42-3.4,65.62,65.62,0,0,0-6.53,2.94C177,216,175,216.91,173.28,217.78Z"/><path class="cls-1" d="M216.81,145.06c0-1.53-.06-3-.15-4.54a8.32,8.32,0,0,0,2.33-2.47,13.69,13.69,0,0,0,1.83-5.16A33.11,33.11,0,0,0,221,129q0-1.11-.05-2.37l-.07-1.29L220.7,124q-.36-2-.85-4c-.23-.91-.47-1.83-.75-2.74,0-.24,0-.47-.08-.71-.27-1.51-.59-3.1-.94-4.76l-.56-2.53c-.24-.84-.53-1.68-.81-2.54-2.7-3.5-6.11-8.55-10-13.19l-2.23-2.64-.61-1.42c-1-.87-2.54-2.11-4-3.43L198,84c-.92-.87-1.86-1.6-2.67-2.3a71.64,71.64,0,0,0-25.4-17.16,75.89,75.89,0,0,0-28.76-5.46,40.88,40.88,0,0,0-5.69.2l-2.84.23a19.66,19.66,0,0,0-2.83.37q-2.81.54-5.59,1.14l-1.39.3-1.36.43-2.69.88A71.27,71.27,0,0,0,108.48,67c-1.63.82-3.16,1.84-4.7,2.75l-2.27,1.4c-.75.46-1.43,1-2.14,1.56a21.71,21.71,0,0,0-4.65.77,13.83,13.83,0,0,0-1.46.47q-.72.32-1.49.73a26.59,26.59,0,0,0-3.21,2c-6,4.43-12.79,10.39-17.39,17.44l-.91,1.27-.78,1.34q-.76,1.34-1.47,2.66T66.65,102a27.24,27.24,0,0,0-1,2.64c-.62,1.75-1.14,3.43-1.53,5a24.76,24.76,0,0,0-.47,4.58,30.77,30.77,0,0,0-2,3.21,26,26,0,0,0-1.27,3.39,31.67,31.67,0,0,0-.8,3.15,9.51,9.51,0,0,0-.25,2.58c.08,2.2.07,4.42,0,6.65,0,1.63.07,3.29.1,5l-.07.76c-.81,9-.16,18.75,3.12,27,0-.17,0-.43,0-.69a69.64,69.64,0,0,0,6.16,16.35q1.13,1.71,2.23,3.47a40.21,40.21,0,0,0,2.28,3.47l2.42,3.35,1.2,1.66c.42.53.88,1,1.31,1.54l2.59,3,1.27,1.43,1.36,1.26a49.32,49.32,0,0,0,5.22,4.33c2.14,1.24,4.1,2.49,6,3.72,2,1.08,3.81,2.16,5.61,3.23a17.15,17.15,0,0,0,1.62.9,21.66,21.66,0,0,0,1.93,1.35l.09.07h0a25.94,25.94,0,0,0,2.51,1.39c-.94-.5-1.74-1-2.47-1.43l.23-.26,1.59.76,2.08.94c.37.22.71.45,1.09.65l5,2.43c1.62.85,3.22,1.36,4.5,2a10.79,10.79,0,0,1,2.77,1.58c2.8-.76-2-1.85-6.08-3.07,2.15.61,4.56,1.12,7,1.7a34.44,34.44,0,0,0,3.72.64l3.69.58.88.15c-.52,0-1,0-1.5,0a8.37,8.37,0,0,1-4.33-.82c-1.27.27-.92.7.52,1.31,2.5.2,6,1.12,9,1.21,2.74.21,4.91.25,5.18-.26h0a22.17,22.17,0,0,1,2.49.63l2.39-1,1,.2a9.11,9.11,0,0,0-.9-.38l.7-.05,3-.17,3-.41a54.69,54.69,0,0,0,5.63-1,32.83,32.83,0,0,0,4.7-1.72,10,10,0,0,0,1-1c1.75.11-.78.79-1.26,1.47,1-.26,2-.48,2.92-.75s1.67-.62,2.36-.93a6.72,6.72,0,0,0,2.83-1.88l-3.78,1.13-1.88.56-1,.21a1.23,1.23,0,0,0,.32-.91c.39-.22.77-.46,1.12-.7a74.62,74.62,0,0,0,8-2.95c3.32-.81,6.21-1.55,9-2.3-.08.14-.16.28-.24.41l-1.26.62c-1.18.66-2.6,1.15-3.78,1.69l-2.85,1.21,5.12-1.06a15.24,15.24,0,0,0,1.3-1.35,2.15,2.15,0,0,1,1.26-.33.45.45,0,0,0,.24.13.62.62,0,0,1,.11.23l.26-.18a5,5,0,0,0,.55,0l0-.39,1.92-1.32c0-.1,0-.16,0-.21.85-.13,1.72-.27,2.67-.49a23.13,23.13,0,0,0,6-2.9c0-.06.06-.14.09-.21a42.49,42.49,0,0,0,6.78-4.33c.62-.28,1.79-2.09,2.76-3.92l.35-.36a7.53,7.53,0,0,0,1.13-2.73c.23-.6.35-1,.27-1.14-1.46.25-3.91,1.91-6.5,3.77l-.87.55.65-.58a4.2,4.2,0,0,1-.45.27l-.26.35c-1.07.67-2.17,1.34-3.21,2a33.75,33.75,0,0,1-3.37,1.86A75.07,75.07,0,0,0,216.81,145.06Z"/><path class="cls-1" d="M181.37,211.67v-.16h0l.62-.11Z"/><circle class="cls-2" cx="141.17" cy="142.04" r="70.38"/><path class="cls-3" d="M100.24,102.24l.25,14.75h0l0,2.1h0a.89.89,0,0,1-.88,1,.92.92,0,0,1-.91-.93l0-.93h0l-.27-15.81a.67.67,0,0,0-1.35,0l.27,15.77h0l0,.9a.93.93,0,1,1-1.86,0l0-2.1v0l-.25-14.62a.67.67,0,0,0-1.35,0l.25,14.73v0l0,2.25a.92.92,0,1,1-1.84.07h0v0h0l0-2.25h0l-.25-14.73a.67.67,0,1,0-1.35,0l.36,21.08a.61.61,0,0,0,0,.07c0,.08,0,.16,0,.24v.27c.05,3.07,1.68,5.53,3.65,5.5h.06L94.31,180c0,.11,0,.22,0,.33a3.2,3.2,0,0,0,6.4,0v0s0,0,0-.06,0-.13,0-.19l-2.19-50.47h0c2,0,3.51-2.55,3.46-5.62v-.27c0-.09,0-.18,0-.28a.7.7,0,0,0,0-.09l-.36-21.08a.67.67,0,0,0-1.35,0Z"/><path class="cls-3" d="M183.11,102.34a4.69,4.69,0,0,0-.58,1.47,16.2,16.2,0,0,1,1.67-2.81,3.31,3.31,0,0,1,2.52-1.64C185.77,99,184.43,99.83,183.11,102.34Z"/><path class="cls-3" d="M183.95,139.39l3,0a.26.26,0,0,0,.29-.26.25.25,0,0,0-.28-.24l-3,0a1.24,1.24,0,0,1-.76-.27.85.85,0,0,0,0,.19A.7.7,0,0,0,183.95,139.39Z"/><path class="cls-3" d="M188.3,178a9.42,9.42,0,0,1-2.36,4.47,7.22,7.22,0,0,0,2.77-6.42,9.53,9.53,0,0,0-.36-2.11A17.19,17.19,0,0,1,188.3,178Z"/><path class="cls-3" d="M182.93,101.64c-3.74,6.48-5,26.42-.16,36.58.08.24.13.34.18.57l0,.08c1.11,5,0,29.76-.68,37.62a7.35,7.35,0,0,0,3.57,6.79h0a7.37,7.37,0,0,0,3.49-6.83c-.43-4.2-1.51-21.28-1.82-37.34,0-.14,0-.27,0-.41,1.19-16.45,0-34.51.16-37.41C187.86,98.15,185.2,97.71,182.93,101.64ZM188.71,176a7.22,7.22,0,0,1-2.77,6.42A9.42,9.42,0,0,0,188.3,178a17.19,17.19,0,0,0,.05-4.06A9.53,9.53,0,0,1,188.71,176ZM184,138.88l3,0a.25.25,0,0,1,.28.24.26.26,0,0,1-.29.26l-3,0a.7.7,0,0,1-.69-.59.85.85,0,0,1,0-.19A1.24,1.24,0,0,0,184,138.88Zm2.72-39.53a3.31,3.31,0,0,0-2.52,1.64,16.2,16.2,0,0,0-1.67,2.81,4.69,4.69,0,0,1,.58-1.47C184.43,99.83,185.77,99,186.72,99.36Z"/><path class="cls-4" d="M176.07,144c-.44,18.79-14.55,34.75-33.91,35.08a34.84,34.84,0,0,1-35.08-33.91c-.32-18.62,15.1-35,33.91-35.08C160.38,110,175,125,176.07,144c.08,1.39,2.25,1.36,2.17,0-1.15-20-16.73-36.31-37.28-36-19.9.26-36.45,17.38-36,37.28s17.27,36.38,37.28,36c20.56-.35,35.57-17.34,36-37.28C178.27,142.56,176.1,142.6,176.07,144Z"/><circle class="cls-5" cx="141.57" cy="144.58" r="30.99" transform="translate(-2.44 2.43) rotate(-0.97)"/><circle class="cls-6" cx="141.45" cy="110.29" r="1.53" transform="translate(-1.85 2.42) rotate(-0.97)"/><path class="cls-6" d="M157.3,118.09l0-.14a8.11,8.11,0,0,0,.19-1l0-.14a8.31,8.31,0,0,0,0-1s0,0,0,0,0-.09,0-.13,0-.27,0-.39,0-.15,0-.22,0-.24,0-.35l0-.22c0-.11,0-.21-.07-.32l-.05-.2c0-.1-.06-.19-.09-.29l-.06-.18-.11-.26L157,113l-.13-.23-.08-.13a2.25,2.25,0,0,0-.16-.2l-.07-.09a1.5,1.5,0,0,0-.25-.21c-1.3-.86-5.38,0-7.42,3.08-1.85,2.78-1.48,6.35-.34,7.69l-5.71,8.59-.3-17.54c2.73-.75,6.32-4.46,6.23-9.91-.1-6.09-6.87-10.54-7.49-10.53l-.09,0h0v0h-.05a2.51,2.51,0,0,0-.51.25,14.8,14.8,0,0,0-5.57,6.32,9.57,9.57,0,0,0-.95,4.19,7.63,7.63,0,0,0,.16,1.36c.66,4.87,4.28,8,6.77,8.4l.29,17.28-6-8.28c1-1.43,1.24-4.93-.67-7.59-2.14-3-6.25-3.73-7.52-2.82a1.49,1.49,0,0,0-.24.22l-.07.09a2.26,2.26,0,0,0-.15.2l-.08.13-.12.23-.07.17-.1.25-.06.19c0,.09-.05.18-.08.28l0,.22c0,.1,0,.2-.06.3l0,.24c0,.11,0,.21,0,.32s0,.17,0,.26,0,.22,0,.34,0,.12,0,.18,0,0,0,.06a8.32,8.32,0,0,0,.08,1l0,.17a8.14,8.14,0,0,0,.22,1l0,.16a7.61,7.61,0,0,0,.38,1l.05.1a7.13,7.13,0,0,0,.59,1,7.23,7.23,0,0,0,.58.7l.15.16a7.67,7.67,0,0,0,.62.57l0,0a7.93,7.93,0,0,0,.69.49l.18.11c.22.14.45.26.68.38l0,0c.24.12.48.21.73.3l.18.06c.22.08.45.14.67.2h0a6.72,6.72,0,0,0,.68.12l.16,0a5.39,5.39,0,0,0,.59,0h0a3.88,3.88,0,0,0,.55-.05l.13,0a2.52,2.52,0,0,0,.39-.11l.06,0h0l.13-.06,6.68,9.25V133l1.51,0h0l0,0,6.36-9.55h0l.06,0a2.51,2.51,0,0,0,.39.1l.13,0a3.88,3.88,0,0,0,.55,0h0a5.39,5.39,0,0,0,.58-.05l.17,0a6.74,6.74,0,0,0,.67-.14l.06,0c.21-.06.43-.13.65-.22l.19-.07c.24-.1.47-.2.71-.33l0,0c.22-.12.44-.25.66-.39l.18-.12a7.93,7.93,0,0,0,.67-.52l0,0a7.65,7.65,0,0,0,.6-.59l.15-.17a7.21,7.21,0,0,0,.55-.72,7.13,7.13,0,0,0,.56-1l0-.1A7.62,7.62,0,0,0,157.3,118.09Z"/><path class="cls-2" d="M140.35,133c-7.88.88-14.55,5.72-12.67,15.87.94,5.09,5.16,7.37,8.84,10.26,1.63,1.28,3.8,3.35,6,3.39s4.28-2.1,6-3.34c3-2.19,6-5,7.67-8.31a12.78,12.78,0,0,0-1.12-13C151.66,133.27,145.66,132.42,140.35,133Z"/><path class="cls-4" d="M140.33,131.93c-7.18,1-13.59,5-14,12.84a13.55,13.55,0,0,0,4,10.83c2.66,2.62,7.95,7.8,11.91,8,3.74.17,7.38-3.67,9.94-6,3.35-3.07,6.12-7,6.31-11.63.43-10.49-9.07-14.75-18.16-14-1.38.11-1.36,2.28,0,2.17,7.75-.64,15.4,2.07,15.94,11,.45,7.41-10.53,18.94-17.76,14.25-5-3.27-10.06-7.35-10.11-13.86-.06-6.92,5.75-10.52,11.93-11.4C141.73,133.9,141.71,131.73,140.33,131.93Z"/><path class="cls-4" d="M149.76,151.29a1.08,1.08,0,0,0,0-2.17,1.08,1.08,0,0,0,0,2.17Z"/><path class="cls-2" d="M155.72,151.63a19.06,19.06,0,0,1-2.33,3.18,18,18,0,0,0,2.74-3.92,12.78,12.78,0,0,0-1.12-13c-3.36-4.57-9.36-5.42-14.67-4.83-.73.08-1.44.2-2.14.35"/><path class="cls-4" d="M154.78,151.1a16.83,16.83,0,0,1-2.16,3c-.89,1.06.65,2.57,1.56,1.51,4.44-5.21,6.06-12.35,1.77-18.28-4.09-5.65-11.75-6.14-18-5-1.37.26-.75,2.33.61,2.08,5-.95,11.16-.75,14.93,3.23,4.61,4.86,3.1,11.8-.83,16.42l1.56,1.51a30.08,30.08,0,0,0,2.49-3.4c.74-1.18-1.15-2.24-1.89-1.06Z"/><path class="cls-2" d="M152.43,155.83q-.43.43-.89.85C151.84,156.4,152.14,156.12,152.43,155.83Z"/><path class="cls-4" d="M151.65,155.08l-.89.85c-1,1,.54,2.46,1.56,1.51l.89-.85c1-1-.57-2.49-1.56-1.51l-.89.85,1.56,1.51.89-.85C154.2,155.6,152.64,154.1,151.65,155.08Z"/><path class="cls-2" d="M150.16,157.87l-.64.52Z"/><path class="cls-4" d="M149.38,157.12l-.64.52,1.56,1.51.64-.52c1.08-.89-.49-2.38-1.56-1.51l-.64.52c-1.08.87.48,2.37,1.56,1.51l.64-.52C152,157.74,150.45,156.24,149.38,157.12Z"/><path class="cls-2" d="M151.37,156.84l-.82.72Z"/><path class="cls-4" d="M150.59,156.08l-.82.72c-1.06.91.51,2.41,1.56,1.51l.82-.72c1-.93-.52-2.43-1.56-1.51l-.82.72,1.56,1.51.82-.72C153.18,156.66,151.62,155.15,150.59,156.08Z"/><path class="cls-2" d="M153.38,154.82q-.43.48-.89.94C152.8,155.46,153.09,155.14,153.38,154.82Z"/><path class="cls-4" d="M152.6,154.07q-.44.48-.89.94c-1,1,.58,2.5,1.56,1.51q.46-.46.89-.94c.94-1-.62-2.54-1.56-1.51q-.44.48-.89.94l1.56,1.51q.45-.46.89-.94C155.1,154.54,153.54,153,152.6,154.07Z"/><path class="cls-2" d="M151.54,156.68l-.17.16Z"/><path class="cls-4" d="M150.76,155.93l-.17.16c-1,.93.52,2.43,1.56,1.51l.17-.16c1-.93-.52-2.43-1.56-1.51l-.17.16c-1,.93.52,2.43,1.56,1.51l.17-.16C153.36,156.5,151.8,155,150.76,155.93Z"/><path class="cls-2" d="M153.38,154.82v0Z"/><path class="cls-4" d="M154.16,155.57v0c.94-1-.62-2.54-1.56-1.51v0c-.94,1,.62,2.54,1.56,1.51v0c.94-1-.62-2.54-1.56-1.51v0C151.67,155.1,153.22,156.61,154.16,155.57Z"/><path class="cls-2" d="M152.49,155.76l-.07.07Z"/><path class="cls-4" d="M151.71,155l-.07.07c-1,1,.56,2.48,1.56,1.51l.07-.07c1-1-.56-2.48-1.56-1.51l-.07.07c-1,1,.56,2.48,1.56,1.51l.07-.07C154.27,155.54,152.71,154,151.71,155Z"/><path class="cls-2" d="M136.52,159.14l-1.09-.83Z"/><path class="cls-4" d="M137.27,158.36l-1.09-.83c-1.1-.83-2.62.72-1.51,1.56l1.09.83c1.09.85,2.61-.7,1.51-1.56l-1.09-.83-1.51,1.56,1.09.83C136.86,160.77,138.37,159.22,137.27,158.36Z"/><path class="cls-2" d="M149.52,158.39l-1.05.8Z"/><path class="cls-4" d="M149,157.47l-1.05.8c-1.11.83,0,2.69,1.13,1.85l1.05-.8c1.08-.85,0-2.71-1.13-1.85l-1.05.8,1.13,1.85,1.05-.8C151.17,158.47,150.06,156.61,149,157.47Z"/><path class="cls-2" d="M150.55,157.56l-.39.32Z"/><path class="cls-4" d="M149.77,156.8l-.39.32c-1.08.88.49,2.38,1.56,1.51l.39-.32c1.07-.89-.49-2.39-1.56-1.51l-.39.32,1.56,1.51.39-.32C152.4,157.42,150.83,155.92,149.77,156.8Z"/></svg>