<svg id="Layer_1" data-name="Layer 1" xmlns="http://www.w3.org/2000/svg" viewBox="0 0 184.25 184.25"><defs><style>.cls-1{fill:#d8b840;}.cls-2{fill:#fff;}.cls-3{fill:#a2c636;}.cls-4{fill:#008d41;}.cls-5{fill:#ffda00;}.cls-6{fill:#184f25;}</style></defs><title>52 Climate Actions icons F</title><path class="cls-1" d="M172.81,94.53c0,.5,0,1.07-.14,1.75,0,0,.05,0,.08,0l.14-1.61Z"/><path class="cls-1" d="M172.75,96.27l-.29,3.29a19.28,19.28,0,0,1,2.15-5.49c0,1.72-.28,4.48-.83,3.71l.55,2.5.5-7.85C174.16,93.91,173.64,96.42,172.75,96.27Z"/><path class="cls-1" d="M171.81,96.54c.41,2.85-.16-4.14,1-2a2.74,2.74,0,0,1,.3-1.48C172.46,91.75,172.1,93.87,171.81,96.54Z"/><path class="cls-1" d="M170.78,112.75c.22-.09.51-.41.92-1.17C171.53,111.49,171.18,112.07,170.78,112.75Z"/><path class="cls-1" d="M167.94,114.9c.75-1.36,1.5-2.75,1.89-1.92l-.54,1.52c.23.52.9-.72,1.49-1.74C169.9,113.12,170,109.82,167.94,114.9Z"/><path class="cls-1" d="M168.6,105.3l0,1.15,1.28-3.66.64-1.86c.19-.62.32-1.26.48-1.89-.77.28-.83,1.18-1.1,2.34A11.5,11.5,0,0,1,168.6,105.3Z"/><path class="cls-1" d="M124.8,168.46l-.41-.1-.62.5C124.08,168.75,124.39,168.63,124.8,168.46Z"/><path class="cls-1" d="M117.51,170.52c1.75-.28,3.53-.53,5.29-.89.34-.31.64-.52,1-.77a7.15,7.15,0,0,1-3,.58A8.48,8.48,0,0,0,117.51,170.52Z"/><path class="cls-1" d="M123.68,168.18l.71.18a16,16,0,0,1,5.26-2.4,27.51,27.51,0,0,0,6.42-3.4,65.62,65.62,0,0,0-6.53,2.94C127.41,166.39,125.41,167.31,123.68,168.18Z"/><path class="cls-1" d="M167.21,95.45c0-1.53-.06-3-.15-4.54a8.32,8.32,0,0,0,2.33-2.47,13.69,13.69,0,0,0,1.83-5.16,33.11,33.11,0,0,0,.22-3.92q0-1.11-.05-2.37l-.07-1.29-.22-1.34q-.36-2-.85-4c-.23-.91-.47-1.83-.75-2.74,0-.24,0-.47-.08-.71-.27-1.51-.59-3.1-.94-4.76l-.56-2.53c-.24-.84-.53-1.68-.81-2.54-2.7-3.5-6.11-8.55-10-13.19l-2.23-2.64-.61-1.42c-1-.87-2.54-2.11-4-3.43l-1.93-1.95c-.92-.87-1.86-1.6-2.67-2.3A71.64,71.64,0,0,0,120.29,15,75.89,75.89,0,0,0,91.53,9.5a40.88,40.88,0,0,0-5.69.2L83,9.93a19.66,19.66,0,0,0-2.83.37q-2.81.54-5.59,1.14l-1.39.3-1.36.43-2.69.88a71.27,71.27,0,0,0-10.27,4.31c-1.63.82-3.16,1.84-4.7,2.75l-2.27,1.4c-.75.46-1.43,1-2.14,1.56a21.71,21.71,0,0,0-4.65.77,13.83,13.83,0,0,0-1.46.47q-.72.32-1.49.73a26.59,26.59,0,0,0-3.21,2c-6,4.43-12.79,10.39-17.39,17.44l-.91,1.27-.78,1.34q-.76,1.34-1.47,2.66T17,52.42a27.24,27.24,0,0,0-1,2.64c-.62,1.75-1.14,3.43-1.53,5A24.76,24.76,0,0,0,14,64.66a30.77,30.77,0,0,0-2,3.21,26,26,0,0,0-1.27,3.39,31.67,31.67,0,0,0-.8,3.15A9.51,9.51,0,0,0,9.73,77c.08,2.2.07,4.42,0,6.65,0,1.63.07,3.29.1,5l-.07.76c-.81,9-.16,18.75,3.12,27,0-.17,0-.43,0-.69A69.64,69.64,0,0,0,19,132q1.13,1.71,2.23,3.47a40.21,40.21,0,0,0,2.28,3.47l2.42,3.35,1.2,1.66c.42.53.88,1,1.31,1.54l2.59,3,1.27,1.43,1.36,1.26a49.32,49.32,0,0,0,5.22,4.33c2.14,1.24,4.1,2.49,6,3.72,2,1.08,3.81,2.16,5.61,3.23a17.15,17.15,0,0,0,1.62.9A21.66,21.66,0,0,0,54,164.68l.09.07h0a25.94,25.94,0,0,0,2.51,1.39c-.94-.5-1.74-1-2.47-1.43l.23-.26,1.59.76,2.08.94c.37.22.71.45,1.09.65l5,2.43c1.62.85,3.22,1.36,4.5,2a10.79,10.79,0,0,1,2.77,1.58c2.8-.76-2-1.85-6.08-3.07,2.15.61,4.56,1.12,7,1.7A34.44,34.44,0,0,0,76,172l3.69.58.88.15c-.52,0-1,0-1.5,0a8.37,8.37,0,0,1-4.33-.82c-1.27.27-.92.7.52,1.31,2.5.2,6,1.12,9,1.21,2.74.21,4.91.25,5.18-.26h0a22.17,22.17,0,0,1,2.49.63l2.39-1,1,.2a9.11,9.11,0,0,0-.9-.38l.7-.05,3-.17,3-.41a54.69,54.69,0,0,0,5.63-1,32.83,32.83,0,0,0,4.7-1.72,10,10,0,0,0,1-1c1.75.11-.78.79-1.26,1.47,1-.26,2-.48,2.92-.75s1.67-.62,2.36-.93a6.72,6.72,0,0,0,2.83-1.88l-3.78,1.13-1.88.56-1,.21a1.23,1.23,0,0,0,.32-.91c.39-.22.77-.46,1.12-.7a74.62,74.62,0,0,0,8-2.95c3.32-.81,6.21-1.55,9-2.3-.08.14-.16.28-.24.41l-1.26.62c-1.18.66-2.6,1.15-3.78,1.69l-2.85,1.21,5.12-1.06a15.24,15.24,0,0,0,1.3-1.35,2.15,2.15,0,0,1,1.26-.33.45.45,0,0,0,.24.13.62.62,0,0,1,.11.23l.26-.18a5,5,0,0,0,.55,0l0-.39,1.92-1.32c0-.1,0-.16,0-.21.85-.13,1.72-.27,2.67-.49a23.13,23.13,0,0,0,6-2.9c0-.06.06-.14.09-.21a42.49,42.49,0,0,0,6.78-4.33c.62-.28,1.79-2.09,2.76-3.92l.35-.36a7.53,7.53,0,0,0,1.13-2.73c.23-.6.35-1,.27-1.14-1.46.25-3.91,1.91-6.5,3.77l-.87.55.65-.58a4.2,4.2,0,0,1-.45.27l-.26.35c-1.07.67-2.17,1.34-3.21,2a33.75,33.75,0,0,1-3.37,1.86A75.07,75.07,0,0,0,167.21,95.45Z"/><path class="cls-1" d="M131.77,162.06v-.16h0l.62-.11Z"/><circle class="cls-2" cx="91.56" cy="92.43" r="70.38"/><path class="cls-3" d="M50.63,52.63l.25,14.75h0l0,2.1h0a.89.89,0,0,1-.88,1,.92.92,0,0,1-.91-.93l0-.93h0l-.27-15.81a.67.67,0,0,0-1.35,0l.27,15.77h0l0,.9a.93.93,0,1,1-1.86,0l0-2.1v0l-.25-14.62a.67.67,0,0,0-1.35,0l.25,14.73v0l0,2.25a.92.92,0,1,1-1.84.07h0v0h0l0-2.25h0l-.25-14.73a.67.67,0,1,0-1.35,0l.36,21.08a.61.61,0,0,0,0,.07c0,.08,0,.16,0,.24v.27c.05,3.07,1.68,5.53,3.65,5.5h.06l-.48,50.38c0,.11,0,.22,0,.33a3.2,3.2,0,0,0,6.4,0v0s0,0,0-.06,0-.13,0-.19L48.89,79.95h0c2,0,3.51-2.55,3.46-5.62v-.27c0-.09,0-.18,0-.28a.7.7,0,0,0,0-.09L52,52.61a.67.67,0,0,0-1.35,0Z"/><path class="cls-3" d="M133.5,52.74a4.69,4.69,0,0,0-.58,1.47,16.2,16.2,0,0,1,1.67-2.81,3.31,3.31,0,0,1,2.52-1.64C136.16,49.36,134.83,50.23,133.5,52.74Z"/><path class="cls-3" d="M134.34,89.78l3,0a.26.26,0,0,0,.29-.26.25.25,0,0,0-.28-.24l-3,0a1.24,1.24,0,0,1-.76-.27.85.85,0,0,0,0,.19A.7.7,0,0,0,134.34,89.78Z"/><path class="cls-3" d="M138.69,128.38a9.42,9.42,0,0,1-2.36,4.47,7.22,7.22,0,0,0,2.77-6.42,9.53,9.53,0,0,0-.36-2.11A17.19,17.19,0,0,1,138.69,128.38Z"/><path class="cls-3" d="M133.32,52c-3.74,6.48-5,26.42-.16,36.58.08.24.13.34.18.57l0,.08c1.11,5,0,29.76-.68,37.62a7.35,7.35,0,0,0,3.57,6.79h0a7.37,7.37,0,0,0,3.49-6.83c-.43-4.2-1.51-21.28-1.82-37.34,0-.14,0-.27,0-.41,1.19-16.45,0-34.51.16-37.41C138.26,48.54,135.59,48.1,133.32,52Zm5.78,74.41a7.22,7.22,0,0,1-2.77,6.42,9.42,9.42,0,0,0,2.36-4.47,17.19,17.19,0,0,0,.05-4.06A9.53,9.53,0,0,1,139.1,126.44Zm-4.72-37.16,3,0a.25.25,0,0,1,.28.24.26.26,0,0,1-.29.26l-3,0a.7.7,0,0,1-.69-.59.85.85,0,0,1,0-.19A1.24,1.24,0,0,0,134.39,89.28Zm2.72-39.53a3.31,3.31,0,0,0-2.52,1.64,16.2,16.2,0,0,0-1.67,2.81,4.69,4.69,0,0,1,.58-1.47C134.83,50.23,136.16,49.36,137.11,49.75Z"/><path class="cls-4" d="M126.46,94.39c-.44,18.79-14.55,34.75-33.91,35.08A34.84,34.84,0,0,1,57.47,95.56c-.32-18.62,15.1-35,33.91-35.08,19.39-.11,34,14.94,35.08,33.91.08,1.39,2.25,1.36,2.17,0-1.15-20-16.73-36.31-37.28-36-19.9.26-36.45,17.38-36,37.28s17.27,36.38,37.28,36c20.56-.35,35.57-17.34,36-37.28C128.66,93,126.5,93,126.46,94.39Z"/><circle class="cls-5" cx="91.97" cy="94.97" r="30.99" transform="translate(-1.6 1.58) rotate(-0.97)"/><circle class="cls-6" cx="91.84" cy="60.69" r="1.53" transform="translate(-1.02 1.57) rotate(-0.97)"/><path class="cls-6" d="M107.69,68.48l0-.14a8.11,8.11,0,0,0,.19-1l0-.14a8.31,8.31,0,0,0,0-1s0,0,0,0,0-.09,0-.13,0-.27,0-.39,0-.15,0-.22,0-.24,0-.35l0-.22c0-.11,0-.21-.07-.32l-.05-.2c0-.1-.06-.19-.09-.29l-.06-.18-.11-.26-.07-.16-.13-.23-.08-.13a2.25,2.25,0,0,0-.16-.2L107,62.8a1.5,1.5,0,0,0-.25-.21c-1.3-.86-5.38,0-7.42,3.08-1.85,2.78-1.48,6.35-.34,7.69l-5.71,8.59-.3-17.54c2.73-.75,6.32-4.46,6.23-9.91C99.07,48.41,92.3,44,91.68,44l-.09,0h0v0h-.05a2.51,2.51,0,0,0-.51.25,14.8,14.8,0,0,0-5.57,6.32,9.57,9.57,0,0,0-.95,4.19,7.63,7.63,0,0,0,.16,1.36c.66,4.87,4.28,8,6.77,8.4l.29,17.28-6-8.28c1-1.43,1.24-4.93-.67-7.59-2.14-3-6.25-3.73-7.52-2.82a1.49,1.49,0,0,0-.24.22l-.07.09a2.26,2.26,0,0,0-.15.2l-.08.13-.12.23-.07.17-.1.25-.06.19c0,.09-.05.18-.08.28l0,.22c0,.1,0,.2-.06.3l0,.24c0,.11,0,.21,0,.32s0,.17,0,.26,0,.22,0,.34,0,.12,0,.18,0,0,0,.06a8.32,8.32,0,0,0,.08,1l0,.17a8.14,8.14,0,0,0,.22,1l0,.16a7.61,7.61,0,0,0,.38,1l.05.1a7.13,7.13,0,0,0,.59,1,7.23,7.23,0,0,0,.58.7l.15.16a7.67,7.67,0,0,0,.62.57l0,0a7.93,7.93,0,0,0,.69.49l.18.11c.22.14.45.26.68.38l0,0c.24.12.48.21.73.3l.18.06c.22.08.45.14.67.2h0a6.72,6.72,0,0,0,.68.12l.16,0a5.39,5.39,0,0,0,.59,0h0a3.88,3.88,0,0,0,.55-.05l.13,0a2.52,2.52,0,0,0,.39-.11l.06,0h0l.13-.06,6.68,9.25v.13l1.51,0h0l0,0,6.36-9.55h0l.06,0a2.51,2.51,0,0,0,.39.1l.13,0a3.88,3.88,0,0,0,.55,0h0a5.39,5.39,0,0,0,.58-.05l.17,0a6.74,6.74,0,0,0,.67-.14l.06,0c.21-.06.43-.13.65-.22l.19-.07c.24-.1.47-.2.71-.33l0,0c.22-.12.44-.25.66-.39l.18-.12a7.93,7.93,0,0,0,.67-.52l0,0a7.65,7.65,0,0,0,.6-.59l.15-.17a7.21,7.21,0,0,0,.55-.72,7.13,7.13,0,0,0,.56-1l0-.1A7.62,7.62,0,0,0,107.69,68.48Z"/><path class="cls-2" d="M90.75,83.41c-7.88.88-14.55,5.72-12.67,15.87.94,5.09,5.16,7.37,8.84,10.26,1.63,1.28,3.8,3.35,6,3.39s4.28-2.1,6-3.34c3-2.19,6-5,7.67-8.31a12.78,12.78,0,0,0-1.12-13C102.05,83.66,96,82.81,90.75,83.41Z"/><path class="cls-4" d="M90.73,82.33c-7.18,1-13.59,5-14,12.84a13.55,13.55,0,0,0,4,10.83c2.66,2.62,7.95,7.8,11.91,8,3.74.17,7.38-3.67,9.94-6,3.35-3.07,6.12-7,6.31-11.63.43-10.49-9.07-14.75-18.16-14-1.38.11-1.36,2.28,0,2.17,7.75-.64,15.4,2.07,15.94,11,.45,7.41-10.53,18.94-17.76,14.25-5-3.27-10.06-7.35-10.11-13.86-.06-6.92,5.75-10.52,11.93-11.4C92.13,84.3,92.11,82.13,90.73,82.33Z"/><path class="cls-4" d="M100.15,101.68a1.08,1.08,0,0,0,0-2.17,1.08,1.08,0,0,0,0,2.17Z"/><path class="cls-2" d="M106.12,102a19.06,19.06,0,0,1-2.33,3.18,18,18,0,0,0,2.74-3.92,12.78,12.78,0,0,0-1.12-13c-3.36-4.57-9.36-5.42-14.67-4.83-.73.08-1.44.2-2.14.35"/><path class="cls-4" d="M105.17,101.49a16.83,16.83,0,0,1-2.16,3c-.89,1.06.65,2.57,1.56,1.51,4.44-5.21,6.06-12.35,1.77-18.28-4.09-5.65-11.75-6.14-18-5-1.37.26-.75,2.33.61,2.08,5-.95,11.16-.75,14.93,3.23,4.61,4.86,3.1,11.8-.83,16.42l1.56,1.51a30.08,30.08,0,0,0,2.49-3.4c.74-1.18-1.15-2.24-1.89-1.06Z"/><path class="cls-2" d="M102.82,106.22q-.43.43-.89.85C102.24,106.8,102.53,106.51,102.82,106.22Z"/><path class="cls-4" d="M102,105.47l-.89.85c-1,1,.54,2.46,1.56,1.51l.89-.85c1-1-.57-2.49-1.56-1.51l-.89.85,1.56,1.51.89-.85C104.59,106,103,104.49,102,105.47Z"/><path class="cls-2" d="M100.56,108.27l-.64.52Z"/><path class="cls-4" d="M99.78,107.51l-.64.52,1.56,1.51.64-.52c1.08-.89-.49-2.38-1.56-1.51l-.64.52c-1.08.87.48,2.37,1.56,1.51l.64-.52C102.41,108.13,100.84,106.64,99.78,107.51Z"/><path class="cls-2" d="M101.76,107.23l-.82.72Z"/><path class="cls-4" d="M101,106.48l-.82.72c-1.06.91.51,2.41,1.56,1.51l.82-.72c1-.93-.52-2.43-1.56-1.51l-.82.72,1.56,1.51.82-.72C103.58,107,102,105.55,101,106.48Z"/><path class="cls-2" d="M103.78,105.21q-.43.48-.89.94C103.19,105.85,103.49,105.54,103.78,105.21Z"/><path class="cls-4" d="M103,104.46q-.44.48-.89.94c-1,1,.58,2.5,1.56,1.51q.46-.46.89-.94c.94-1-.62-2.54-1.56-1.51q-.44.48-.89.94l1.56,1.51q.45-.46.89-.94C105.49,104.93,103.94,103.43,103,104.46Z"/><path class="cls-2" d="M101.93,107.07l-.17.16Z"/><path class="cls-4" d="M101.16,106.32l-.17.16c-1,.93.52,2.43,1.56,1.51l.17-.16c1-.93-.52-2.43-1.56-1.51l-.17.16c-1,.93.52,2.43,1.56,1.51l.17-.16C103.75,106.9,102.19,105.4,101.16,106.32Z"/><path class="cls-2" d="M103.78,105.21v0Z"/><path class="cls-4" d="M104.56,106v0c.94-1-.62-2.54-1.56-1.51v0c-.94,1,.62,2.54,1.56,1.51v0c.94-1-.62-2.54-1.56-1.51v0C102.06,105.49,103.62,107,104.56,106Z"/><path class="cls-2" d="M102.89,106.16l-.07.07Z"/><path class="cls-4" d="M102.11,105.41l-.07.07c-1,1,.56,2.48,1.56,1.51l.07-.07c1-1-.56-2.48-1.56-1.51l-.07.07c-1,1,.56,2.48,1.56,1.51l.07-.07C104.66,105.93,103.1,104.43,102.11,105.41Z"/><path class="cls-2" d="M86.91,109.54l-1.09-.83Z"/><path class="cls-4" d="M87.66,108.76l-1.09-.83c-1.1-.83-2.62.72-1.51,1.56l1.09.83c1.09.85,2.61-.7,1.51-1.56l-1.09-.83-1.51,1.56,1.09.83C87.25,111.16,88.77,109.61,87.66,108.76Z"/><path class="cls-2" d="M99.92,108.79l-1.05.8Z"/><path class="cls-4" d="M99.36,107.86l-1.05.8c-1.11.83,0,2.69,1.13,1.85l1.05-.8c1.08-.85,0-2.71-1.13-1.85l-1.05.8,1.13,1.85,1.05-.8C101.57,108.86,100.46,107,99.36,107.86Z"/><path class="cls-2" d="M100.94,107.95l-.39.32Z"/><path class="cls-4" d="M100.16,107.2l-.39.32c-1.08.88.49,2.38,1.56,1.51l.39-.32c1.07-.89-.49-2.39-1.56-1.51l-.39.32,1.56,1.51.39-.32C102.8,107.81,101.23,106.32,100.16,107.2Z"/></svg>