<svg id="Layer_1" data-name="Layer 1" xmlns="http://www.w3.org/2000/svg" viewBox="0 0 283.46 283.46"><defs><style>.cls-1{fill:#00a45c;}.cls-2{fill:#fff;}.cls-3{fill:#a2c636;}.cls-4{fill:#184f25;}.cls-5{fill:#008d41;}.cls-6{fill:#ffda00;}</style></defs><title>52 Climate Actions icons F</title><path class="cls-1" d="M222.42,144.13c0,.5,0,1.07-.14,1.75,0,0,.05,0,.08,0l.14-1.61Z"/><path class="cls-1" d="M222.35,145.88l-.29,3.29a19.28,19.28,0,0,1,2.15-5.49c0,1.72-.28,4.48-.83,3.71l.55,2.5.5-7.85C223.77,143.51,223.25,146,222.35,145.88Z"/><path class="cls-1" d="M221.42,146.15c.41,2.85-.16-4.14,1-2a2.74,2.74,0,0,1,.3-1.48C222.06,141.36,221.71,143.48,221.42,146.15Z"/><path class="cls-1" d="M220.39,162.36c.22-.09.51-.41.92-1.17C221.14,161.09,220.78,161.68,220.39,162.36Z"/><path class="cls-1" d="M217.55,164.5c.75-1.36,1.5-2.75,1.89-1.92l-.54,1.52c.23.52.9-.72,1.49-1.74C219.5,162.73,219.62,159.43,217.55,164.5Z"/><path class="cls-1" d="M218.2,154.91l0,1.15,1.28-3.66.64-1.86c.19-.62.32-1.26.48-1.89-.77.28-.83,1.18-1.1,2.34A11.5,11.5,0,0,1,218.2,154.91Z"/><path class="cls-1" d="M174.4,218.06,174,218l-.62.5C173.69,218.35,174,218.24,174.4,218.06Z"/><path class="cls-1" d="M167.12,220.13c1.75-.28,3.53-.53,5.29-.89.34-.31.64-.52,1-.77a7.15,7.15,0,0,1-3,.58A8.48,8.48,0,0,0,167.12,220.13Z"/><path class="cls-1" d="M173.28,217.78l.71.18a16,16,0,0,1,5.26-2.4,27.51,27.51,0,0,0,6.42-3.4,65.62,65.62,0,0,0-6.53,2.94C177,216,175,216.91,173.28,217.78Z"/><path class="cls-1" d="M216.81,145.06c0-1.53-.06-3-.15-4.54a8.32,8.32,0,0,0,2.33-2.47,13.69,13.69,0,0,0,1.83-5.16A33.11,33.11,0,0,0,221,129q0-1.11-.05-2.37l-.07-1.29L220.7,124q-.36-2-.85-4c-.23-.91-.47-1.83-.75-2.74,0-.24,0-.47-.08-.71-.27-1.51-.59-3.1-.94-4.76l-.56-2.53c-.24-.84-.53-1.68-.81-2.54-2.7-3.5-6.11-8.55-10-13.19l-2.23-2.64-.61-1.42c-1-.87-2.54-2.11-4-3.43L198,84c-.92-.87-1.86-1.6-2.67-2.3a71.64,71.64,0,0,0-25.4-17.16,75.89,75.89,0,0,0-28.76-5.46,40.88,40.88,0,0,0-5.69.2l-2.84.23a19.66,19.66,0,0,0-2.83.37q-2.81.54-5.59,1.14l-1.39.3-1.36.43-2.69.88A71.27,71.27,0,0,0,108.48,67c-1.63.82-3.16,1.84-4.7,2.75l-2.27,1.4c-.75.46-1.43,1-2.14,1.56a21.71,21.71,0,0,0-4.65.77,13.83,13.83,0,0,0-1.46.47q-.72.32-1.49.73a26.59,26.59,0,0,0-3.21,2c-6,4.43-12.79,10.39-17.39,17.44l-.91,1.27-.78,1.34q-.76,1.34-1.47,2.66T66.65,102a27.24,27.24,0,0,0-1,2.64c-.62,1.75-1.14,3.43-1.53,5a24.76,24.76,0,0,0-.47,4.58,30.77,30.77,0,0,0-2,3.21,26,26,0,0,0-1.27,3.39,31.67,31.67,0,0,0-.8,3.15,9.51,9.51,0,0,0-.25,2.58c.08,2.2.07,4.42,0,6.65,0,1.63.07,3.29.1,5l-.07.76c-.81,9-.16,18.75,3.12,27,0-.17,0-.43,0-.69a69.64,69.64,0,0,0,6.16,16.35q1.13,1.71,2.23,3.47a40.21,40.21,0,0,0,2.28,3.47l2.42,3.35,1.2,1.66c.42.53.88,1,1.31,1.54l2.59,3,1.27,1.43,1.36,1.26a49.32,49.32,0,0,0,5.22,4.33c2.14,1.24,4.1,2.49,6,3.72,2,1.08,3.81,2.16,5.61,3.23a17.15,17.15,0,0,0,1.62.9,21.66,21.66,0,0,0,1.93,1.35l.09.07h0a25.94,25.94,0,0,0,2.51,1.39c-.94-.5-1.74-1-2.47-1.43l.23-.26,1.59.76,2.08.94c.37.22.71.45,1.09.65l5,2.43c1.62.85,3.22,1.36,4.5,2a10.79,10.79,0,0,1,2.77,1.58c2.8-.76-2-1.85-6.08-3.07,2.15.61,4.56,1.12,7,1.7a34.44,34.44,0,0,0,3.72.64l3.69.58.88.15c-.52,0-1,0-1.5,0a8.37,8.37,0,0,1-4.33-.82c-1.27.27-.92.7.52,1.31,2.5.2,6,1.12,9,1.21,2.74.21,4.91.25,5.18-.26h0a22.17,22.17,0,0,1,2.49.63l2.39-1,1,.2a9.11,9.11,0,0,0-.9-.38l.7-.05,3-.17,3-.41a54.69,54.69,0,0,0,5.63-1,32.83,32.83,0,0,0,4.7-1.72,10,10,0,0,0,1-1c1.75.11-.78.79-1.26,1.47,1-.26,2-.48,2.92-.75s1.67-.62,2.36-.93a6.72,6.72,0,0,0,2.83-1.88l-3.78,1.13-1.88.56-1,.21a1.23,1.23,0,0,0,.32-.91c.39-.22.77-.46,1.12-.7a74.62,74.62,0,0,0,8-2.95c3.32-.81,6.21-1.55,9-2.3-.08.14-.16.28-.24.41l-1.26.62c-1.18.66-2.6,1.15-3.78,1.69l-2.85,1.21,5.12-1.06a15.24,15.24,0,0,0,1.3-1.35,2.15,2.15,0,0,1,1.26-.33.45.45,0,0,0,.24.13.62.62,0,0,1,.11.23l.26-.18a5,5,0,0,0,.55,0l0-.39,1.92-1.32c0-.1,0-.16,0-.21.85-.13,1.72-.27,2.67-.49a23.13,23.13,0,0,0,6-2.9c0-.06.06-.14.09-.21a42.49,42.49,0,0,0,6.78-4.33c.62-.28,1.79-2.09,2.76-3.92l.35-.36a7.53,7.53,0,0,0,1.13-2.73c.23-.6.35-1,.27-1.14-1.46.25-3.91,1.91-6.5,3.77l-.87.55.65-.58a4.2,4.2,0,0,1-.45.27l-.26.35c-1.07.67-2.17,1.34-3.21,2a33.75,33.75,0,0,1-3.37,1.86A75.07,75.07,0,0,0,216.81,145.06Z"/><path class="cls-1" d="M181.37,211.67v-.16h0l.62-.11Z"/><circle class="cls-2" cx="141.17" cy="142.04" r="70.38"/><path class="cls-3" d="M112.17,148.07h0a24.14,24.14,0,0,0,24.14,24.14h0A24.14,24.14,0,0,0,112.17,148.07Z"/><path class="cls-3" d="M166.54,148.07h0a24.14,24.14,0,0,1-24.14,24.14h0A24.14,24.14,0,0,1,166.54,148.07Z"/><rect class="cls-4" x="136.14" y="135.06" width="7.02" height="57.94" rx="1.73" ry="1.73"/><circle class="cls-4" cx="176.48" cy="180.75" r="2.63"/><circle class="cls-4" cx="103.47" cy="180.75" r="2.63"/><path class="cls-4" d="M164.32,182.77H115.64a2,2,0,1,1,0-4.06h48.67a2,2,0,1,1,0,4.06Z"/><path class="cls-5" d="M158.25,109c1.28-4.18,1-8.73.37-13a1,1,0,0,0-1-.74,21.06,21.06,0,0,0-12.16,4.88c-1,.86.45,2.29,1.43,1.43a18.75,18.75,0,0,1,10.73-4.29l-1-.74c.59,3.9.79,8.09-.37,11.91-.38,1.25,1.57,1.79,2,.54Z"/><path class="cls-5" d="M133.83,100.13a21.07,21.07,0,0,0-12.16-4.88,1,1,0,0,0-1,.74c-.65,4.26-.92,8.82.37,13,.38,1.24,2.34.71,2-.54-1.18-3.82-1-8-.37-11.92l-1,.74a18.75,18.75,0,0,1,10.73,4.29c1,.85,2.42-.57,1.43-1.43Z"/><path class="cls-6" d="M125.14,113.26c0-8,14.51-30.19,14.51-30.19s14.51,22.18,14.51,30.19a14.51,14.51,0,0,1-29,0Z"/><path class="cls-4" d="M166.79,103.84a38.08,38.08,0,0,0-12.68,5l-.36.24-.23.16-.27.2-.22.17a.35.35,0,0,1-.11.13A27.06,27.06,0,0,0,141.14,131v6.57a27,27,0,0,0,9.15-2,15,15,0,0,0,9.06-11.44C161.53,113.49,164.85,107,166.79,103.84Z"/><path class="cls-4" d="M112.51,103.84c1.94,3.12,5.25,9.62,7.43,20.27a15.26,15.26,0,0,0,9.2,11.44,25.42,25.42,0,0,0,9.35,2,46.82,46.82,0,0,1,.05-5.33l0-.43c0-.33-.06-.66-.09-1s-.05-.47-.08-.7,0-.38-.08-.57c-.05-.37-.11-.73-.18-1.1,0-.15-.05-.29-.08-.43-.08-.4-.15-.8-.24-1.19l0-.13q-.14-.63-.31-1.25l0-.11c-.13-.45-.26-.9-.4-1.34a27.83,27.83,0,0,0-4.53-8.57,28.11,28.11,0,0,0-2.75-3l-.3-.27-.34-.31-.61-.53,0,0a31.07,31.07,0,0,0-2.74-2l-.06,0a34.24,34.24,0,0,0-4.84-2.66l-.17-.08c-.66-.3-1.35-.58-2-.83A38.94,38.94,0,0,0,112.51,103.84Z"/></svg>