<svg id="Layer_1" data-name="Layer 1" xmlns="http://www.w3.org/2000/svg" viewBox="0 0 184.25 184.25"><defs><style>.cls-1{fill:#00a45c;}.cls-2{fill:#fff;}.cls-3{fill:#ffda00;}.cls-4{fill:#184f25;}.cls-5{fill:#008d41;}</style></defs><title>52 Climate Actions icons F</title><path class="cls-1" d="M172.81,94.53c0,.5,0,1.07-.14,1.75,0,0,.05,0,.08,0l.14-1.61Z"/><path class="cls-1" d="M172.75,96.27l-.29,3.29a19.28,19.28,0,0,1,2.15-5.49c0,1.72-.28,4.48-.83,3.71l.55,2.5.5-7.85C174.16,93.91,173.64,96.42,172.75,96.27Z"/><path class="cls-1" d="M171.81,96.54c.41,2.85-.16-4.14,1-2a2.74,2.74,0,0,1,.3-1.48C172.46,91.75,172.1,93.87,171.81,96.54Z"/><path class="cls-1" d="M170.78,112.75c.22-.09.51-.41.92-1.17C171.53,111.49,171.18,112.07,170.78,112.75Z"/><path class="cls-1" d="M167.94,114.9c.75-1.36,1.5-2.75,1.89-1.92l-.54,1.52c.23.52.9-.72,1.49-1.74C169.9,113.12,170,109.82,167.94,114.9Z"/><path class="cls-1" d="M168.6,105.3l0,1.15,1.28-3.66.64-1.86c.19-.62.32-1.26.48-1.89-.77.28-.83,1.18-1.1,2.34A11.5,11.5,0,0,1,168.6,105.3Z"/><path class="cls-1" d="M124.8,168.46l-.41-.1-.62.5C124.08,168.75,124.39,168.63,124.8,168.46Z"/><path class="cls-1" d="M117.51,170.52c1.75-.28,3.53-.53,5.29-.89.34-.31.64-.52,1-.77a7.15,7.15,0,0,1-3,.58A8.48,8.48,0,0,0,117.51,170.52Z"/><path class="cls-1" d="M123.68,168.18l.71.18a16,16,0,0,1,5.26-2.4,27.51,27.51,0,0,0,6.42-3.4,65.62,65.62,0,0,0-6.53,2.94C127.41,166.39,125.41,167.31,123.68,168.18Z"/><path class="cls-1" d="M167.21,95.45c0-1.53-.06-3-.15-4.54a8.32,8.32,0,0,0,2.33-2.47,13.69,13.69,0,0,0,1.83-5.16,33.11,33.11,0,0,0,.22-3.92q0-1.11-.05-2.37l-.07-1.29-.22-1.34q-.36-2-.85-4c-.23-.91-.47-1.83-.75-2.74,0-.24,0-.47-.08-.71-.27-1.51-.59-3.1-.94-4.76l-.56-2.53c-.24-.84-.53-1.68-.81-2.54-2.7-3.5-6.11-8.55-10-13.19l-2.23-2.64-.61-1.42c-1-.87-2.54-2.11-4-3.43l-1.93-1.95c-.92-.87-1.86-1.6-2.67-2.3A71.64,71.64,0,0,0,120.29,15,75.89,75.89,0,0,0,91.53,9.5a40.88,40.88,0,0,0-5.69.2L83,9.93a19.66,19.66,0,0,0-2.83.37q-2.81.54-5.59,1.14l-1.39.3-1.36.43-2.69.88a71.27,71.27,0,0,0-10.27,4.31c-1.63.82-3.16,1.84-4.7,2.75l-2.27,1.4c-.75.46-1.43,1-2.14,1.56a21.71,21.71,0,0,0-4.65.77,13.83,13.83,0,0,0-1.46.47q-.72.32-1.49.73a26.59,26.59,0,0,0-3.21,2c-6,4.43-12.79,10.39-17.39,17.44l-.91,1.27-.78,1.34q-.76,1.34-1.47,2.66T17,52.42a27.24,27.24,0,0,0-1,2.64c-.62,1.75-1.14,3.43-1.53,5A24.76,24.76,0,0,0,14,64.66a30.77,30.77,0,0,0-2,3.21,26,26,0,0,0-1.27,3.39,31.67,31.67,0,0,0-.8,3.15A9.51,9.51,0,0,0,9.73,77c.08,2.2.07,4.42,0,6.65,0,1.63.07,3.29.1,5l-.07.76c-.81,9-.16,18.75,3.12,27,0-.17,0-.43,0-.69A69.64,69.64,0,0,0,19,132q1.13,1.71,2.23,3.47a40.21,40.21,0,0,0,2.28,3.47l2.42,3.35,1.2,1.66c.42.53.88,1,1.31,1.54l2.59,3,1.27,1.43,1.36,1.26a49.32,49.32,0,0,0,5.22,4.33c2.14,1.24,4.1,2.49,6,3.72,2,1.08,3.81,2.16,5.61,3.23a17.15,17.15,0,0,0,1.62.9A21.66,21.66,0,0,0,54,164.68l.09.07h0a25.94,25.94,0,0,0,2.51,1.39c-.94-.5-1.74-1-2.47-1.43l.23-.26,1.59.76,2.08.94c.37.22.71.45,1.09.65l5,2.43c1.62.85,3.22,1.36,4.5,2a10.79,10.79,0,0,1,2.77,1.58c2.8-.76-2-1.85-6.08-3.07,2.15.61,4.56,1.12,7,1.7A34.44,34.44,0,0,0,76,172l3.69.58.88.15c-.52,0-1,0-1.5,0a8.37,8.37,0,0,1-4.33-.82c-1.27.27-.92.7.52,1.31,2.5.2,6,1.12,9,1.21,2.74.21,4.91.25,5.18-.26h0a22.17,22.17,0,0,1,2.49.63l2.39-1,1,.2a9.11,9.11,0,0,0-.9-.38l.7-.05,3-.17,3-.41a54.69,54.69,0,0,0,5.63-1,32.83,32.83,0,0,0,4.7-1.72,10,10,0,0,0,1-1c1.75.11-.78.79-1.26,1.47,1-.26,2-.48,2.92-.75s1.67-.62,2.36-.93a6.72,6.72,0,0,0,2.83-1.88l-3.78,1.13-1.88.56-1,.21a1.23,1.23,0,0,0,.32-.91c.39-.22.77-.46,1.12-.7a74.62,74.62,0,0,0,8-2.95c3.32-.81,6.21-1.55,9-2.3-.08.14-.16.28-.24.41l-1.26.62c-1.18.66-2.6,1.15-3.78,1.69l-2.85,1.21,5.12-1.06a15.24,15.24,0,0,0,1.3-1.35,2.15,2.15,0,0,1,1.26-.33.45.45,0,0,0,.24.13.62.62,0,0,1,.11.23l.26-.18a5,5,0,0,0,.55,0l0-.39,1.92-1.32c0-.1,0-.16,0-.21.85-.13,1.72-.27,2.67-.49a23.13,23.13,0,0,0,6-2.9c0-.06.06-.14.09-.21a42.49,42.49,0,0,0,6.78-4.33c.62-.28,1.79-2.09,2.76-3.92l.35-.36a7.53,7.53,0,0,0,1.13-2.73c.23-.6.35-1,.27-1.14-1.46.25-3.91,1.91-6.5,3.77l-.87.55.65-.58a4.2,4.2,0,0,1-.45.27l-.26.35c-1.07.67-2.17,1.34-3.21,2a33.75,33.75,0,0,1-3.37,1.86A75.07,75.07,0,0,0,167.21,95.45Z"/><path class="cls-1" d="M131.77,162.06v-.16h0l.62-.11Z"/><circle class="cls-2" cx="91.56" cy="92.13" r="70.38"/><circle class="cls-3" cx="90.52" cy="88.53" r="15.89"/><rect class="cls-4" x="87.85" y="97.47" width="6.01" height="49.56" rx="1.51" ry="1.51"/><circle class="cls-4" cx="91.14" cy="88.71" r="2.25"/><path class="cls-4" d="M83.07,89.66a54.64,54.64,0,0,0-47.78,4.77,55.07,55.07,0,0,0,46.64-3.81Z"/><path class="cls-4" d="M133.87,125.79a54.64,54.64,0,0,0-36.71-31,55.07,55.07,0,0,0,35.23,30.8Z"/><path class="cls-4" d="M111.57,37.21A54.64,54.64,0,0,0,91.93,81a55.07,55.07,0,0,0,19.91-42.35Z"/><path class="cls-5" d="M101.42,107.7c-11.95,5.58-25,.54-30.17-11.49-.5-1.17-2.22-.16-1.71,1,5.65,13.1,20.07,18.19,32.88,12.2,1.16-.54.15-2.25-1-1.71Z"/><path class="cls-5" d="M105.73,72.45a22.23,22.23,0,0,1,6.76,20.79c-.23,1.25,1.68,1.79,1.91.53A24.27,24.27,0,0,0,107.14,71c-.93-.88-2.34.53-1.4,1.4Z"/><path class="cls-5" d="M71.41,80.59A22.09,22.09,0,0,1,91.44,67a1,1,0,0,0,0-2A24,24,0,0,0,69.69,79.58c-.51,1.16,1.2,2.17,1.71,1Z"/><path class="cls-5" d="M119.74,83.95a30.41,30.41,0,0,1-.93,13.2,1,1,0,0,0,1.91.53,32.75,32.75,0,0,0,.93-14.25c-.19-1.26-2.1-.72-1.91.53Z"/><path class="cls-5" d="M109.67,66.45a30.38,30.38,0,0,1,7.59,9.65c.57,1.14,2.29.14,1.71-1A31.77,31.77,0,0,0,111.07,65c-1-.82-2.38.58-1.4,1.4Z"/><path class="cls-5" d="M82.82,61.24a30.75,30.75,0,0,1,8.62-1.32,1,1,0,0,0,0-2,32.7,32.7,0,0,0-9.15,1.39,1,1,0,0,0,.53,1.91Z"/><path class="cls-5" d="M64,80.35a29.9,29.9,0,0,1,5-9.62c.78-1-.62-2.41-1.4-1.4a32.61,32.61,0,0,0-5.54,10.5c-.38,1.22,1.53,1.75,1.91.53Z"/><path class="cls-5" d="M86.22,116.79a29.57,29.57,0,0,1-20.8-16.13c-.57-1.14-2.28-.14-1.71,1a31.46,31.46,0,0,0,22,17c1.25.26,1.78-1.65.53-1.91Z"/><path class="cls-5" d="M91.44,119.24a1,1,0,0,0,0-2,1,1,0,0,0,0,2Z"/><path class="cls-5" d="M103.69,114.52a30.37,30.37,0,0,1-7.17,2.29c-1.25.24-.72,2.15.53,1.91a32.42,32.42,0,0,0,7.64-2.49c1.16-.54.15-2.25-1-1.71Z"/></svg>