<svg id="Layer_1" data-name="Layer 1" xmlns="http://www.w3.org/2000/svg" viewBox="0 0 184.25 184.25"><defs><style>.cls-1{fill:#a2c636;}.cls-2{fill:#ffda00;}.cls-3{fill:#fff;}.cls-4{fill:#184f25;}.cls-5{fill:#008d41;}</style></defs><title>52 Climate Actions icons F</title><path class="cls-1" d="M115.05,53.59c.32-2.33-4.69-4-7.26-4.13a43.74,43.74,0,0,0-9.38,1.32c2,1.61,6.52.22,9.66.41,3.57.22,6.7,1.79,6,3.35a9.32,9.32,0,0,1-.93,2.31A4.69,4.69,0,0,0,115.05,53.59Z"/><path class="cls-2" d="M172.81,94.53c0,.5,0,1.07-.14,1.75,0,0,.05,0,.08,0l.14-1.61Z"/><path class="cls-2" d="M172.75,96.27l-.29,3.29a19.28,19.28,0,0,1,2.15-5.49c0,1.72-.28,4.48-.83,3.71l.55,2.5.5-7.85C174.16,93.91,173.64,96.42,172.75,96.27Z"/><path class="cls-2" d="M171.81,96.54c.41,2.85-.16-4.14,1-2a2.74,2.74,0,0,1,.3-1.48C172.46,91.75,172.1,93.87,171.81,96.54Z"/><path class="cls-2" d="M170.78,112.75c.22-.09.51-.41.92-1.17C171.53,111.49,171.18,112.07,170.78,112.75Z"/><path class="cls-2" d="M167.94,114.9c.75-1.36,1.5-2.75,1.89-1.92l-.54,1.52c.23.52.9-.72,1.49-1.74C169.9,113.12,170,109.82,167.94,114.9Z"/><path class="cls-2" d="M168.6,105.3l0,1.15,1.28-3.66.64-1.86c.19-.62.32-1.26.48-1.89-.77.28-.83,1.18-1.1,2.34A11.5,11.5,0,0,1,168.6,105.3Z"/><path class="cls-2" d="M124.8,168.46l-.41-.1-.62.5C124.08,168.75,124.39,168.63,124.8,168.46Z"/><path class="cls-2" d="M117.51,170.52c1.75-.28,3.53-.53,5.29-.89.34-.31.64-.52,1-.77a7.15,7.15,0,0,1-3,.58A8.48,8.48,0,0,0,117.51,170.52Z"/><path class="cls-2" d="M123.68,168.18l.71.18a16,16,0,0,1,5.26-2.4,27.51,27.51,0,0,0,6.42-3.4,65.62,65.62,0,0,0-6.53,2.94C127.41,166.39,125.41,167.31,123.68,168.18Z"/><path class="cls-2" d="M167.21,95.45c0-1.53-.06-3-.15-4.54a8.32,8.32,0,0,0,2.33-2.47,13.69,13.69,0,0,0,1.83-5.16,33.11,33.11,0,0,0,.22-3.92q0-1.11-.05-2.37l-.07-1.29-.22-1.34q-.36-2-.85-4c-.23-.91-.47-1.83-.75-2.74,0-.24,0-.47-.08-.71-.27-1.51-.59-3.1-.94-4.76l-.56-2.53c-.24-.84-.53-1.68-.81-2.54-2.7-3.5-6.11-8.55-10-13.19l-2.23-2.64-.61-1.42c-1-.87-2.54-2.11-4-3.43l-1.93-1.95c-.92-.87-1.86-1.6-2.67-2.3A71.64,71.64,0,0,0,120.29,15,75.89,75.89,0,0,0,91.53,9.5a40.88,40.88,0,0,0-5.69.2L83,9.93a19.66,19.66,0,0,0-2.83.37q-2.81.54-5.59,1.14l-1.39.3-1.36.43-2.69.88a71.27,71.27,0,0,0-10.27,4.31c-1.63.82-3.16,1.84-4.7,2.75l-2.27,1.4c-.75.46-1.43,1-2.14,1.56a21.71,21.71,0,0,0-4.65.77,13.83,13.83,0,0,0-1.46.47q-.72.32-1.49.73a26.59,26.59,0,0,0-3.21,2c-6,4.43-12.79,10.39-17.39,17.44l-.91,1.27-.78,1.34q-.76,1.34-1.47,2.66T17,52.42a27.24,27.24,0,0,0-1,2.64c-.62,1.75-1.14,3.43-1.53,5A24.76,24.76,0,0,0,14,64.66a30.77,30.77,0,0,0-2,3.21,26,26,0,0,0-1.27,3.39,31.67,31.67,0,0,0-.8,3.15A9.51,9.51,0,0,0,9.73,77c.08,2.2.07,4.42,0,6.65,0,1.63.07,3.29.1,5l-.07.76c-.81,9-.16,18.75,3.12,27,0-.17,0-.43,0-.69A69.64,69.64,0,0,0,19,132q1.13,1.71,2.23,3.47a40.21,40.21,0,0,0,2.28,3.47l2.42,3.35,1.2,1.66c.42.53.88,1,1.31,1.54l2.59,3,1.27,1.43,1.36,1.26a49.32,49.32,0,0,0,5.22,4.33c2.14,1.24,4.1,2.49,6,3.72,2,1.08,3.81,2.16,5.61,3.23a17.15,17.15,0,0,0,1.62.9A21.66,21.66,0,0,0,54,164.68l.09.07h0a25.94,25.94,0,0,0,2.51,1.39c-.94-.5-1.74-1-2.47-1.43l.23-.26,1.59.76,2.08.94c.37.22.71.45,1.09.65l5,2.43c1.62.85,3.22,1.36,4.5,2a10.79,10.79,0,0,1,2.77,1.58c2.8-.76-2-1.85-6.08-3.07,2.15.61,4.56,1.12,7,1.7A34.44,34.44,0,0,0,76,172l3.69.58.88.15c-.52,0-1,0-1.5,0a8.37,8.37,0,0,1-4.33-.82c-1.27.27-.92.7.52,1.31,2.5.2,6,1.12,9,1.21,2.74.21,4.91.25,5.18-.26h0a22.17,22.17,0,0,1,2.49.63l2.39-1,1,.2a9.11,9.11,0,0,0-.9-.38l.7-.05,3-.17,3-.41a54.69,54.69,0,0,0,5.63-1,32.83,32.83,0,0,0,4.7-1.72,10,10,0,0,0,1-1c1.75.11-.78.79-1.26,1.47,1-.26,2-.48,2.92-.75s1.67-.62,2.36-.93a6.72,6.72,0,0,0,2.83-1.88l-3.78,1.13-1.88.56-1,.21a1.23,1.23,0,0,0,.32-.91c.39-.22.77-.46,1.12-.7a74.62,74.62,0,0,0,8-2.95c3.32-.81,6.21-1.55,9-2.3-.08.14-.16.28-.24.41l-1.26.62c-1.18.66-2.6,1.15-3.78,1.69l-2.85,1.21,5.12-1.06a15.24,15.24,0,0,0,1.3-1.35,2.15,2.15,0,0,1,1.26-.33.45.45,0,0,0,.24.13.62.62,0,0,1,.11.23l.26-.18a5,5,0,0,0,.55,0l0-.39,1.92-1.32c0-.1,0-.16,0-.21.85-.13,1.72-.27,2.67-.49a23.13,23.13,0,0,0,6-2.9c0-.06.06-.14.09-.21a42.49,42.49,0,0,0,6.78-4.33c.62-.28,1.79-2.09,2.76-3.92l.35-.36a7.53,7.53,0,0,0,1.13-2.73c.23-.6.35-1,.27-1.14-1.46.25-3.91,1.91-6.5,3.77l-.87.55.65-.58a4.2,4.2,0,0,1-.45.27l-.26.35c-1.07.67-2.17,1.34-3.21,2a33.75,33.75,0,0,1-3.37,1.86A75.07,75.07,0,0,0,167.21,95.45Z"/><path class="cls-2" d="M131.77,162.06v-.16h0l.62-.11Z"/><circle class="cls-3" cx="91.56" cy="92.43" r="70.38"/><rect class="cls-2" x="87" y="87.03" width="3.8" height="3.51" transform="translate(-36.75 88.88) rotate(-45)"/><rect class="cls-2" x="93.97" y="80.06" width="3.8" height="3.51" transform="translate(-29.78 91.77) rotate(-45)"/><rect class="cls-2" x="89.35" y="83.55" width="6.06" height="3.51" transform="translate(-33.26 90.32) rotate(-45)"/><path class="cls-1" d="M118.83,121.4a6.83,6.83,0,0,0,9.66-9.65L104.58,87.84l-9.66,9.65Z"/><polygon class="cls-1" points="90.7 89.47 94.92 97.49 104.58 87.84 96.55 83.63 90.7 89.47"/><path class="cls-4" d="M120.27,117h0a1.23,1.23,0,0,1-1.73,0L97,95.44l1.73-1.73,21.56,21.56A1.23,1.23,0,0,1,120.27,117Z"/><path class="cls-4" d="M124.08,113.19h0a1.23,1.23,0,0,1-1.73,0L100.79,91.63l1.73-1.73,21.56,21.56A1.23,1.23,0,0,1,124.08,113.19Z"/><rect class="cls-4" x="75.87" y="51.02" width="3.16" height="38.71" transform="translate(-27.08 75.35) rotate(-44.98)"/><polygon class="cls-4" points="62.91 50.81 57.88 55.84 62.65 57.81 64.89 55.58 62.91 50.81"/><polygon class="cls-4" points="62.91 50.81 57.88 55.84 52.94 48.1 55.17 45.87 62.91 50.81"/><path class="cls-2" d="M103,81.4s17-22.19,30.08-8.18,7.52,28-1.64,39c-10.69,12.78-28,30.54-28,30.54S79.36,124.4,69.08,111.35c-8.81-11.19-13.89-25.33-.42-39s29.81,9,29.81,9l1.91,3.88Z"/><path class="cls-5" d="M100.24,78.65c3.55-4.51,8.21-8.85,13.54-11,9.51-3.89,17,2.64,20.52,11.46,3.42,8.61,1.17,16.63-3.66,24.16-5.81,9-14.18,16.91-21.5,24.71-2.52,2.69-5,5.61-7.69,8.1-2.91,2.65-.29,2.17-2.63.94-6.45-3.41-12.56-10.15-17.93-15-8.41-7.6-18.08-16.27-21.63-27.4-4.93-15.45,9.13-36.26,25.29-25.43a32.74,32.74,0,0,1,11.38,13.1,1.09,1.09,0,0,0,1.87,0l2.61-3.82c.79-1.15-1.09-2.24-1.87-1.09-2.73,4-.45,3.12-2.15.95-.5-.64-.93-1.52-1.42-2.2a36.47,36.47,0,0,0-10.21-9.37C73.53,59.83,63,65.73,57.9,77.24c-11.37,25.56,24.6,50,41.47,62.89a1.08,1.08,0,0,0,1.31-.17c8.28-8.51,16.44-17.17,24.23-26.12s16-19.8,12.67-32.49c-6-23-27-19.35-38.87-4.23C97.86,78.2,99.38,79.74,100.24,78.65Z"/><path class="cls-3" d="M73,71.58l15.2,15.19a3.24,3.24,0,0,0,4.58-4.58L77.56,67"/><path class="cls-4" d="M90.47,89.67a5.17,5.17,0,0,1-3.66-1.51L71.61,73a2,2,0,0,1,2.76-2.76l15.2,15.19a1.31,1.31,0,0,0,1.82,0,1.3,1.3,0,0,0,0-1.82L76.18,68.38a2,2,0,1,1,2.76-2.76l15.2,15.19a5.18,5.18,0,0,1-3.67,8.85Z"/><path class="cls-3" d="M68.45,76.12,86.89,94.54A3.24,3.24,0,0,0,91.46,90L73,71.54"/><path class="cls-4" d="M89.17,97.44a5.15,5.15,0,0,1-3.67-1.51L67.07,77.5a2,2,0,0,1,2.76-2.76L88.26,93.16a1.33,1.33,0,0,0,1.82,0,1.29,1.29,0,0,0,0-1.82L71.65,72.92a2,2,0,0,1,2.76-2.76L92.84,88.58a5.18,5.18,0,0,1-3.67,8.85Z"/><path class="cls-3" d="M57.37,83.09l-6.9-6.9c-5-5-4.4-12.66.65-17.71,4.2-4.2,6.36-6.37,15.43-3.78l19,6a3.21,3.21,0,0,1,2.14,4l-.16.52a3.22,3.22,0,0,1-4,2.14l-7.94-2.31,1.3,1.29"/><path class="cls-4" d="M57.38,85A1.94,1.94,0,0,1,56,84.47l-6.9-6.9a13.49,13.49,0,0,1-4-10.33,15.55,15.55,0,0,1,4.68-10.13c4.72-4.71,7.63-7,17.34-4.27l19.07,6a5.16,5.16,0,0,1,3.42,6.42l-.16.52A5.16,5.16,0,0,1,83,69.23l-4.81-1.4a2,2,0,0,1-2.65-.1l-1.3-1.29a1.95,1.95,0,0,1,1.92-3.25l7.94,2.31a1.28,1.28,0,0,0,1-.09,1.24,1.24,0,0,0,.61-.74l.16-.52A1.27,1.27,0,0,0,85,62.58l-19-6c-7.92-2.26-9.42-.74-13.46,3.3A11.66,11.66,0,0,0,49,67.44a9.51,9.51,0,0,0,2.89,7.37l6.9,6.9A2,2,0,0,1,57.38,85Z"/><path class="cls-3" d="M59.43,85.14l-7.89-7.88a10.94,10.94,0,0,1-.88-.79L66.16,92a3.24,3.24,0,0,0,4.58-4.58L64,80.61"/><path class="cls-4" d="M68.45,94.85a5.17,5.17,0,0,1-3.67-1.51L49.28,77.85a2,2,0,0,1,0-2.76,2.1,2.1,0,0,1,2.86.06l.5.47a2.11,2.11,0,0,1,.32.26l7.89,7.88a2,2,0,0,1,.31.4l6.42,6.42a1.31,1.31,0,0,0,1.82,0,1.29,1.29,0,0,0,0-1.82L62.58,82a2,2,0,0,1,2.76-2.76L72.12,86a5.18,5.18,0,0,1-3.67,8.85Z"/><path class="cls-3" d="M63.92,80.65,78.47,95.19A3.24,3.24,0,0,0,83,90.61L68.49,76.07"/><path class="cls-4" d="M80.75,98.09a5.17,5.17,0,0,1-3.67-1.51L62.54,82a2,2,0,0,1,2.76-2.76L79.84,93.81a1.31,1.31,0,0,0,1.82,0,1.3,1.3,0,0,0,0-1.82L67.12,77.45a2,2,0,0,1,2.76-2.76L84.42,89.24a5.18,5.18,0,0,1-3.67,8.85Z"/><path class="cls-5" d="M47.69,123.43l7.59-3.24c1.28-.55.18-2.41-1.09-1.87l-7.59,3.24c-1.28.55-.18,2.41,1.09,1.87Z"/><path class="cls-5" d="M54.56,136.43l7.68-6.52c1.06-.9-.47-2.43-1.53-1.53L53,134.9c-1.06.9.47,2.43,1.53,1.53Z"/><path class="cls-3" d="M124.42,81.9c11,5.25-5.51,21.37-10.15,25.94-1.49,1.47.81,3.77,2.3,2.3,6-5.92,23.77-24.22,9.5-31-1.88-.9-3.53,1.9-1.64,2.81Z"/><path class="cls-3" d="M116.85,120.43l-15.2-15.19a3.24,3.24,0,0,0-4.58,4.58L112.27,125"/><path class="cls-4" d="M112.27,127a1.94,1.94,0,0,1-1.38-.57L95.7,111.2a5.19,5.19,0,0,1,7.34-7.34L118.23,119a2,2,0,0,1-2.76,2.76l-15.2-15.18a1.3,1.3,0,0,0-1.82,0,1.29,1.29,0,0,0,0,1.82l15.2,15.18a2,2,0,0,1-1.38,3.33Z"/><path class="cls-3" d="M121.39,115.89,103,97.47A3.24,3.24,0,0,0,98.37,102l18.43,18.42"/><path class="cls-4" d="M116.81,122.42a1.94,1.94,0,0,1-1.38-.57L97,103.43a5.18,5.18,0,0,1,3.67-8.85h0a5.15,5.15,0,0,1,3.67,1.51l18.43,18.42a2,2,0,0,1-2.76,2.76L101.57,98.85a1.32,1.32,0,0,0-1.82,0,1.29,1.29,0,0,0,0,1.82l18.43,18.42a2,2,0,0,1-1.38,3.33Z"/><path class="cls-3" d="M132.46,108.93l6.9,6.89c5,5,4.4,12.66-.65,17.7-4.2,4.2-6.36,6.36-15.43,3.78l-19-6a3.21,3.21,0,0,1-2.14-4l.16-.52a3.22,3.22,0,0,1,4-2.14l7.94,2.31-1.3-1.29"/><path class="cls-4" d="M129.78,140.37a26.12,26.12,0,0,1-7-1.19l-19.07-6a5.16,5.16,0,0,1-3.42-6.42l.16-.52a5.17,5.17,0,0,1,6.42-3.45l4.82,1.4a2,2,0,0,1,2.65.1l1.29,1.29a2,2,0,0,1-1.92,3.25l-7.94-2.31a1.28,1.28,0,0,0-1.59.83l-.16.52a1.26,1.26,0,0,0,.84,1.56l19,6c7.91,2.26,9.42.74,13.47-3.3a11.65,11.65,0,0,0,3.54-7.57A9.51,9.51,0,0,0,138,117.2l-6.9-6.89a2,2,0,0,1,2.76-2.76l6.9,6.89a13.49,13.49,0,0,1,4,10.33,15.54,15.54,0,0,1-4.68,10.13C136.76,138.23,134.34,140.37,129.78,140.37Z"/><path class="cls-3" d="M130.41,106.87l7.89,7.88a10.94,10.94,0,0,1,.88.79l-15.5-15.49a3.24,3.24,0,0,0-4.58,4.58l6.78,6.77"/><path class="cls-4" d="M139.23,117.46a2.15,2.15,0,0,1-1.48-.58l-.53-.5a2,2,0,0,1-.31-.25L129,108.25a1.92,1.92,0,0,1-.31-.4l-6.42-6.42a1.33,1.33,0,0,0-1.82,0,1.29,1.29,0,0,0,0,1.82l6.78,6.77a2,2,0,0,1-2.76,2.76L117.72,106a5.18,5.18,0,0,1,3.67-8.85h0a5.15,5.15,0,0,1,3.67,1.51l15.5,15.49a2,2,0,0,1,0,2.75A1.88,1.88,0,0,1,139.23,117.46Z"/><path class="cls-3" d="M125.92,111.36,111.37,96.82a3.24,3.24,0,0,0-4.58,4.58l14.55,14.54"/><path class="cls-4" d="M121.34,117.89a1.94,1.94,0,0,1-1.38-.57l-14.55-14.54a5.19,5.19,0,0,1,7.34-7.34L127.3,110a2,2,0,0,1-2.76,2.76L110,98.2a1.29,1.29,0,0,0-1.82,1.82l14.55,14.54a2,2,0,0,1-1.38,3.33Z"/><path class="cls-5" d="M69.65,137.57a14,14,0,0,0-1.91,3.51c-.5,1.3,1.6,1.87,2.09.58a12.09,12.09,0,0,1,1.7-3c.84-1.11-1-2.19-1.87-1.09Z"/><path class="cls-5" d="M64.78,33.4a35.19,35.19,0,0,1-.88,5.17c-.33,1.35,1.76,1.93,2.09.58a39.11,39.11,0,0,0,1-5.74c.13-1.39-2-1.38-2.17,0Z"/><path class="cls-5" d="M77.13,41l6.5-6.5A1.08,1.08,0,0,0,82.09,33l-6.5,6.5A1.08,1.08,0,0,0,77.13,41Z"/><path class="cls-5" d="M90.27,46.25A28.21,28.21,0,0,0,97,42.12c1.08-.88-.46-2.41-1.53-1.53a26.33,26.33,0,0,1-6.29,3.79c-1.28.55-.17,2.42,1.09,1.87Z"/></svg>