<svg id="Layer_1" data-name="Layer 1" xmlns="http://www.w3.org/2000/svg" viewBox="0 0 283.46 283.46"><defs><style>.cls-1{fill:#008d41;}.cls-2{fill:#a2c636;}.cls-3{fill:#ffda00;}.cls-4{fill:#fff;}.cls-5{fill:#184f25;}</style></defs><title>52 Climate Actions icons F</title><path class="cls-1" d="M274.24,34.48a1.08,1.08,0,0,0,0-2.17,1.08,1.08,0,0,0,0,2.17Z"/><path class="cls-2" d="M164.66,103.2c.32-2.33-4.69-4-7.26-4.13A43.74,43.74,0,0,0,148,100.4c2,1.61,6.52.22,9.66.41,3.57.22,6.7,1.79,6,3.35a9.32,9.32,0,0,1-.93,2.31A4.69,4.69,0,0,0,164.66,103.2Z"/><path class="cls-3" d="M222.42,144.13c0,.5,0,1.07-.14,1.75,0,0,.05,0,.08,0l.14-1.61Z"/><path class="cls-3" d="M222.35,145.88l-.29,3.29a19.28,19.28,0,0,1,2.15-5.49c0,1.72-.28,4.48-.83,3.71l.55,2.5.5-7.85C223.77,143.51,223.25,146,222.35,145.88Z"/><path class="cls-3" d="M221.42,146.15c.41,2.85-.16-4.14,1-2a2.74,2.74,0,0,1,.3-1.48C222.06,141.36,221.71,143.48,221.42,146.15Z"/><path class="cls-3" d="M220.39,162.36c.22-.09.51-.41.92-1.17C221.14,161.09,220.78,161.68,220.39,162.36Z"/><path class="cls-3" d="M217.55,164.5c.75-1.36,1.5-2.75,1.89-1.92l-.54,1.52c.23.52.9-.72,1.49-1.74C219.5,162.73,219.62,159.43,217.55,164.5Z"/><path class="cls-3" d="M218.2,154.91l0,1.15,1.28-3.66.64-1.86c.19-.62.32-1.26.48-1.89-.77.28-.83,1.18-1.1,2.34A11.5,11.5,0,0,1,218.2,154.91Z"/><path class="cls-3" d="M174.4,218.06,174,218l-.62.5C173.69,218.35,174,218.24,174.4,218.06Z"/><path class="cls-3" d="M167.12,220.13c1.75-.28,3.53-.53,5.29-.89.34-.31.64-.52,1-.77a7.15,7.15,0,0,1-3,.58A8.48,8.48,0,0,0,167.12,220.13Z"/><path class="cls-3" d="M173.28,217.78l.71.18a16,16,0,0,1,5.26-2.4,27.51,27.51,0,0,0,6.42-3.4,65.62,65.62,0,0,0-6.53,2.94C177,216,175,216.91,173.28,217.78Z"/><path class="cls-3" d="M216.81,145.06c0-1.53-.06-3-.15-4.54a8.32,8.32,0,0,0,2.33-2.47,13.69,13.69,0,0,0,1.83-5.16A33.11,33.11,0,0,0,221,129q0-1.11-.05-2.37l-.07-1.29L220.7,124q-.36-2-.85-4c-.23-.91-.47-1.83-.75-2.74,0-.24,0-.47-.08-.71-.27-1.51-.59-3.1-.94-4.76l-.56-2.53c-.24-.84-.53-1.68-.81-2.54-2.7-3.5-6.11-8.55-10-13.19l-2.23-2.64-.61-1.42c-1-.87-2.54-2.11-4-3.43L198,84c-.92-.87-1.86-1.6-2.67-2.3a71.64,71.64,0,0,0-25.4-17.16,75.89,75.89,0,0,0-28.76-5.46,40.88,40.88,0,0,0-5.69.2l-2.84.23a19.66,19.66,0,0,0-2.83.37q-2.81.54-5.59,1.14l-1.39.3-1.36.43-2.69.88A71.27,71.27,0,0,0,108.48,67c-1.63.82-3.16,1.84-4.7,2.75l-2.27,1.4c-.75.46-1.43,1-2.14,1.56a21.71,21.71,0,0,0-4.65.77,13.83,13.83,0,0,0-1.46.47q-.72.32-1.49.73a26.59,26.59,0,0,0-3.21,2c-6,4.43-12.79,10.39-17.39,17.44l-.91,1.27-.78,1.34q-.76,1.34-1.47,2.66T66.65,102a27.24,27.24,0,0,0-1,2.64c-.62,1.75-1.14,3.43-1.53,5a24.76,24.76,0,0,0-.47,4.58,30.77,30.77,0,0,0-2,3.21,26,26,0,0,0-1.27,3.39,31.67,31.67,0,0,0-.8,3.15,9.51,9.51,0,0,0-.25,2.58c.08,2.2.07,4.42,0,6.65,0,1.63.07,3.29.1,5l-.07.76c-.81,9-.16,18.75,3.12,27,0-.17,0-.43,0-.69a69.64,69.64,0,0,0,6.16,16.35q1.13,1.71,2.23,3.47a40.21,40.21,0,0,0,2.28,3.47l2.42,3.35,1.2,1.66c.42.53.88,1,1.31,1.54l2.59,3,1.27,1.43,1.36,1.26a49.32,49.32,0,0,0,5.22,4.33c2.14,1.24,4.1,2.49,6,3.72,2,1.08,3.81,2.16,5.61,3.23a17.15,17.15,0,0,0,1.62.9,21.66,21.66,0,0,0,1.93,1.35l.09.07h0a25.94,25.94,0,0,0,2.51,1.39c-.94-.5-1.74-1-2.47-1.43l.23-.26,1.59.76,2.08.94c.37.22.71.45,1.09.65l5,2.43c1.62.85,3.22,1.36,4.5,2a10.79,10.79,0,0,1,2.77,1.58c2.8-.76-2-1.85-6.08-3.07,2.15.61,4.56,1.12,7,1.7a34.44,34.44,0,0,0,3.72.64l3.69.58.88.15c-.52,0-1,0-1.5,0a8.37,8.37,0,0,1-4.33-.82c-1.27.27-.92.7.52,1.31,2.5.2,6,1.12,9,1.21,2.74.21,4.91.25,5.18-.26h0a22.17,22.17,0,0,1,2.49.63l2.39-1,1,.2a9.11,9.11,0,0,0-.9-.38l.7-.05,3-.17,3-.41a54.69,54.69,0,0,0,5.63-1,32.83,32.83,0,0,0,4.7-1.72,10,10,0,0,0,1-1c1.75.11-.78.79-1.26,1.47,1-.26,2-.48,2.92-.75s1.67-.62,2.36-.93a6.72,6.72,0,0,0,2.83-1.88l-3.78,1.13-1.88.56-1,.21a1.23,1.23,0,0,0,.32-.91c.39-.22.77-.46,1.12-.7a74.62,74.62,0,0,0,8-2.95c3.32-.81,6.21-1.55,9-2.3-.08.14-.16.28-.24.41l-1.26.62c-1.18.66-2.6,1.15-3.78,1.69l-2.85,1.21,5.12-1.06a15.24,15.24,0,0,0,1.3-1.35,2.15,2.15,0,0,1,1.26-.33.45.45,0,0,0,.24.13.62.62,0,0,1,.11.23l.26-.18a5,5,0,0,0,.55,0l0-.39,1.92-1.32c0-.1,0-.16,0-.21.85-.13,1.72-.27,2.67-.49a23.13,23.13,0,0,0,6-2.9c0-.06.06-.14.09-.21a42.49,42.49,0,0,0,6.78-4.33c.62-.28,1.79-2.09,2.76-3.92l.35-.36a7.53,7.53,0,0,0,1.13-2.73c.23-.6.35-1,.27-1.14-1.46.25-3.91,1.91-6.5,3.77l-.87.55.65-.58a4.2,4.2,0,0,1-.45.27l-.26.35c-1.07.67-2.17,1.34-3.21,2a33.75,33.75,0,0,1-3.37,1.86A75.07,75.07,0,0,0,216.81,145.06Z"/><path class="cls-3" d="M181.37,211.67v-.16h0l.62-.11Z"/><circle class="cls-4" cx="141.17" cy="142.04" r="70.38"/><rect class="cls-3" x="136.6" y="136.64" width="3.8" height="3.51" transform="translate(-57.29 138.49) rotate(-45)"/><rect class="cls-3" x="143.58" y="129.67" width="3.8" height="3.51" transform="translate(-50.32 141.38) rotate(-45)"/><rect class="cls-3" x="138.96" y="133.15" width="6.06" height="3.51" transform="translate(-53.81 139.93) rotate(-45)"/><path class="cls-2" d="M168.43,171a6.83,6.83,0,0,0,9.66-9.65l-23.91-23.91-9.66,9.65Z"/><polygon class="cls-2" points="140.31 139.07 144.52 147.1 154.18 137.45 146.16 133.23 140.31 139.07"/><path class="cls-5" d="M169.87,166.61h0a1.23,1.23,0,0,1-1.73,0L146.58,145l1.73-1.73,21.56,21.56A1.23,1.23,0,0,1,169.87,166.61Z"/><path class="cls-5" d="M173.69,162.79h0a1.23,1.23,0,0,1-1.73,0l-21.56-21.56,1.73-1.73,21.56,21.56A1.23,1.23,0,0,1,173.69,162.79Z"/><rect class="cls-5" x="125.48" y="100.63" width="3.16" height="38.71" transform="translate(-47.63 124.93) rotate(-44.98)"/><polygon class="cls-5" points="112.52 100.42 107.49 105.44 112.25 107.42 114.49 105.18 112.52 100.42"/><polygon class="cls-5" points="112.52 100.42 107.49 105.44 102.55 97.71 104.78 95.47 112.52 100.42"/><path class="cls-3" d="M152.6,131s17-22.19,30.08-8.18,7.52,28-1.64,39c-10.69,12.78-28,30.54-28,30.54S129,174,118.69,161c-8.81-11.19-13.89-25.33-.42-39s29.81,9,29.81,9l1.91,3.88Z"/><path class="cls-1" d="M149.85,128.25c3.55-4.51,8.21-8.85,13.54-11,9.51-3.89,17,2.64,20.52,11.46,3.42,8.61,1.17,16.63-3.66,24.16-5.81,9-14.18,16.91-21.5,24.71-2.52,2.69-5,5.61-7.69,8.1-2.91,2.65-.29,2.17-2.63.94-6.45-3.41-12.56-10.15-17.93-15-8.41-7.6-18.08-16.27-21.63-27.4-4.93-15.45,9.13-36.26,25.29-25.43a32.74,32.74,0,0,1,11.38,13.1,1.09,1.09,0,0,0,1.87,0L150,128c.79-1.15-1.09-2.24-1.87-1.09-2.73,4-.45,3.12-2.15.95-.5-.64-.93-1.52-1.42-2.2a36.47,36.47,0,0,0-10.21-9.37c-11.23-6.89-21.74-1-26.86,10.53-11.37,25.56,24.6,50,41.47,62.89a1.08,1.08,0,0,0,1.31-.17c8.28-8.51,16.44-17.17,24.23-26.12s16-19.8,12.67-32.49c-6-23-27-19.35-38.87-4.23C147.46,127.81,149,129.35,149.85,128.25Z"/><path class="cls-4" d="M122.59,121.19l15.2,15.19a3.24,3.24,0,0,0,4.58-4.58l-15.2-15.19"/><path class="cls-5" d="M140.07,139.27a5.17,5.17,0,0,1-3.66-1.51l-15.2-15.19a2,2,0,0,1,2.76-2.76L139.17,135a1.31,1.31,0,0,0,1.82,0,1.3,1.3,0,0,0,0-1.82L125.79,118a2,2,0,1,1,2.76-2.76l15.2,15.19a5.18,5.18,0,0,1-3.67,8.85Z"/><path class="cls-4" d="M118.06,125.73l18.44,18.42a3.24,3.24,0,0,0,4.58-4.58l-18.44-18.42"/><path class="cls-5" d="M138.78,147a5.15,5.15,0,0,1-3.67-1.51l-18.43-18.42a2,2,0,0,1,2.76-2.76l18.43,18.42a1.33,1.33,0,0,0,1.82,0,1.29,1.29,0,0,0,0-1.82l-18.44-18.42a2,2,0,0,1,2.76-2.76l18.44,18.42a5.18,5.18,0,0,1-3.67,8.85Z"/><path class="cls-4" d="M107,132.69l-6.9-6.9c-5-5-4.4-12.66.65-17.71,4.2-4.2,6.36-6.37,15.43-3.78l19,6a3.21,3.21,0,0,1,2.14,4l-.16.52a3.22,3.22,0,0,1-4,2.14l-7.94-2.31,1.3,1.29"/><path class="cls-5" d="M107,134.64a1.94,1.94,0,0,1-1.38-.57l-6.9-6.9a13.49,13.49,0,0,1-4-10.33,15.55,15.55,0,0,1,4.68-10.13c4.72-4.71,7.63-7,17.34-4.27l19.07,6a5.16,5.16,0,0,1,3.42,6.42l-.16.52a5.16,5.16,0,0,1-6.43,3.44l-4.81-1.4a2,2,0,0,1-2.65-.1l-1.3-1.29a1.95,1.95,0,0,1,1.92-3.25l7.94,2.31a1.28,1.28,0,0,0,1-.09,1.24,1.24,0,0,0,.61-.74l.16-.52a1.27,1.27,0,0,0-.84-1.57l-19-6c-7.92-2.26-9.42-.74-13.46,3.3A11.66,11.66,0,0,0,98.57,117a9.51,9.51,0,0,0,2.89,7.37l6.9,6.9a2,2,0,0,1-1.38,3.33Z"/><path class="cls-4" d="M109,134.75l-7.89-7.88a10.94,10.94,0,0,1-.88-.79l15.5,15.49a3.24,3.24,0,0,0,4.58-4.58l-6.78-6.77"/><path class="cls-5" d="M118.05,144.46a5.17,5.17,0,0,1-3.67-1.51l-15.5-15.49a2,2,0,0,1,0-2.76,2.1,2.1,0,0,1,2.86.06l.5.47a2.11,2.11,0,0,1,.32.26l7.89,7.88a2,2,0,0,1,.31.4l6.42,6.42a1.31,1.31,0,0,0,1.82,0,1.29,1.29,0,0,0,0-1.82l-6.78-6.77a2,2,0,0,1,2.76-2.76l6.78,6.77a5.18,5.18,0,0,1-3.67,8.85Z"/><path class="cls-4" d="M113.52,130.26l14.55,14.54a3.24,3.24,0,0,0,4.58-4.58L118.1,125.68"/><path class="cls-5" d="M130.36,147.69a5.17,5.17,0,0,1-3.67-1.51l-14.55-14.54a2,2,0,0,1,2.76-2.76l14.55,14.54a1.31,1.31,0,0,0,1.82,0,1.3,1.3,0,0,0,0-1.82l-14.55-14.54a2,2,0,0,1,2.76-2.76L134,138.84a5.18,5.18,0,0,1-3.67,8.85Z"/><path class="cls-1" d="M97.3,173l7.59-3.24c1.28-.55.18-2.41-1.09-1.87l-7.59,3.24c-1.28.55-.18,2.41,1.09,1.87Z"/><path class="cls-1" d="M104.16,186l7.68-6.52c1.06-.9-.47-2.43-1.53-1.53l-7.68,6.52c-1.06.9.47,2.43,1.53,1.53Z"/><path class="cls-4" d="M174,131.5c11,5.25-5.51,21.37-10.15,25.94-1.49,1.47.81,3.77,2.3,2.3,6-5.92,23.77-24.22,9.5-31-1.88-.9-3.53,1.9-1.64,2.81Z"/><path class="cls-4" d="M166.46,170l-15.2-15.19a3.24,3.24,0,0,0-4.58,4.58l15.2,15.19"/><path class="cls-5" d="M161.88,176.56a1.94,1.94,0,0,1-1.38-.57l-15.2-15.18a5.19,5.19,0,0,1,7.34-7.34l15.2,15.18a2,2,0,0,1-2.76,2.76l-15.2-15.18a1.3,1.3,0,0,0-1.82,0,1.29,1.29,0,0,0,0,1.82l15.2,15.18a2,2,0,0,1-1.38,3.33Z"/><path class="cls-4" d="M171,165.5l-18.43-18.42a3.24,3.24,0,0,0-4.58,4.58l18.43,18.42"/><path class="cls-5" d="M166.41,172a1.94,1.94,0,0,1-1.38-.57L146.6,153a5.18,5.18,0,0,1,3.67-8.85h0a5.15,5.15,0,0,1,3.67,1.51l18.43,18.42a2,2,0,0,1-2.76,2.76l-18.43-18.42a1.32,1.32,0,0,0-1.82,0,1.29,1.29,0,0,0,0,1.82l18.43,18.42a2,2,0,0,1-1.38,3.33Z"/><path class="cls-4" d="M182.07,158.53l6.9,6.89c5,5,4.4,12.66-.65,17.7-4.2,4.2-6.36,6.36-15.43,3.78l-19-6a3.21,3.21,0,0,1-2.14-4l.16-.52a3.22,3.22,0,0,1,4-2.14l7.94,2.31-1.3-1.29"/><path class="cls-5" d="M179.39,190a26.12,26.12,0,0,1-7-1.19l-19.07-6a5.16,5.16,0,0,1-3.42-6.42l.16-.52a5.17,5.17,0,0,1,6.42-3.45l4.82,1.4a2,2,0,0,1,2.65.1l1.29,1.29a2,2,0,0,1-1.92,3.25l-7.94-2.31a1.28,1.28,0,0,0-1.59.83l-.16.52a1.26,1.26,0,0,0,.84,1.56l19,6c7.91,2.26,9.42.74,13.47-3.3a11.65,11.65,0,0,0,3.54-7.57,9.51,9.51,0,0,0-2.89-7.37l-6.9-6.89a2,2,0,0,1,2.76-2.76l6.9,6.89a13.49,13.49,0,0,1,4,10.33,15.54,15.54,0,0,1-4.68,10.13C186.37,187.83,183.94,190,179.39,190Z"/><path class="cls-4" d="M180,156.48l7.89,7.88a10.94,10.94,0,0,1,.88.79l-15.5-15.49a3.24,3.24,0,0,0-4.58,4.58l6.78,6.77"/><path class="cls-5" d="M188.83,167.07a2.15,2.15,0,0,1-1.48-.58l-.53-.5a2,2,0,0,1-.31-.25l-7.89-7.88a1.92,1.92,0,0,1-.31-.4L171.9,151a1.33,1.33,0,0,0-1.82,0,1.29,1.29,0,0,0,0,1.82l6.78,6.77a2,2,0,0,1-2.76,2.76l-6.78-6.77a5.18,5.18,0,0,1,3.67-8.85h0a5.15,5.15,0,0,1,3.67,1.51l15.5,15.49a2,2,0,0,1,0,2.75A1.88,1.88,0,0,1,188.83,167.07Z"/><path class="cls-4" d="M175.53,161,161,146.43A3.24,3.24,0,0,0,156.4,151l14.55,14.54"/><path class="cls-5" d="M170.95,167.5a1.94,1.94,0,0,1-1.38-.57L155,152.38a5.19,5.19,0,0,1,7.34-7.34l14.55,14.54a2,2,0,0,1-2.76,2.76L159.6,147.81a1.29,1.29,0,0,0-1.82,1.82l14.55,14.54a2,2,0,0,1-1.38,3.33Z"/><path class="cls-1" d="M119.25,187.18a14,14,0,0,0-1.91,3.51c-.5,1.3,1.6,1.87,2.09.58a12.09,12.09,0,0,1,1.7-3c.84-1.11-1-2.19-1.87-1.09Z"/><path class="cls-1" d="M114.39,83a35.19,35.19,0,0,1-.88,5.17c-.33,1.35,1.76,1.93,2.09.58a39.11,39.11,0,0,0,1-5.74c.13-1.39-2-1.38-2.17,0Z"/><path class="cls-1" d="M126.73,90.64l6.5-6.5a1.08,1.08,0,0,0-1.53-1.53l-6.5,6.5a1.08,1.08,0,0,0,1.53,1.53Z"/><path class="cls-1" d="M139.87,95.86a28.21,28.21,0,0,0,6.72-4.13c1.08-.88-.46-2.41-1.53-1.53A26.33,26.33,0,0,1,138.78,94c-1.28.55-.17,2.42,1.09,1.87Z"/></svg>