<svg id="Layer_1" data-name="Layer 1" xmlns="http://www.w3.org/2000/svg" viewBox="0 0 283.46 283.46"><defs><style>.cls-1{fill:#008d41;}.cls-2{fill:#d8b840;}.cls-3{fill:#fff;}.cls-4{fill:#184f25;}.cls-5{fill:#ffda00;}</style></defs><title>52 Climate Actions icons F</title><path class="cls-1" d="M274.24,34.48a1.08,1.08,0,0,0,0-2.17,1.08,1.08,0,0,0,0,2.17Z"/><path class="cls-2" d="M222.42,144.13c0,.5,0,1.07-.14,1.75,0,0,.05,0,.08,0l.14-1.61Z"/><path class="cls-2" d="M222.35,145.88l-.29,3.29a19.28,19.28,0,0,1,2.15-5.49c0,1.72-.28,4.48-.83,3.71l.55,2.5.5-7.85C223.77,143.51,223.25,146,222.35,145.88Z"/><path class="cls-2" d="M221.42,146.15c.41,2.85-.16-4.14,1-2a2.74,2.74,0,0,1,.3-1.48C222.06,141.36,221.71,143.48,221.42,146.15Z"/><path class="cls-2" d="M220.39,162.36c.22-.09.51-.41.92-1.17C221.14,161.09,220.78,161.68,220.39,162.36Z"/><path class="cls-2" d="M217.55,164.5c.75-1.36,1.5-2.75,1.89-1.92l-.54,1.52c.23.52.9-.72,1.49-1.74C219.5,162.73,219.62,159.43,217.55,164.5Z"/><path class="cls-2" d="M218.2,154.91l0,1.15,1.28-3.66.64-1.86c.19-.62.32-1.26.48-1.89-.77.28-.83,1.18-1.1,2.34A11.5,11.5,0,0,1,218.2,154.91Z"/><path class="cls-2" d="M174.4,218.06,174,218l-.62.5C173.69,218.35,174,218.24,174.4,218.06Z"/><path class="cls-2" d="M167.12,220.13c1.75-.28,3.53-.53,5.29-.89.34-.31.64-.52,1-.77a7.15,7.15,0,0,1-3,.58A8.48,8.48,0,0,0,167.12,220.13Z"/><path class="cls-2" d="M173.28,217.78l.71.18a16,16,0,0,1,5.26-2.4,27.51,27.51,0,0,0,6.42-3.4,65.62,65.62,0,0,0-6.53,2.94C177,216,175,216.91,173.28,217.78Z"/><path class="cls-2" d="M216.81,145.06c0-1.53-.06-3-.15-4.54a8.32,8.32,0,0,0,2.33-2.47,13.69,13.69,0,0,0,1.83-5.16A33.11,33.11,0,0,0,221,129q0-1.11-.05-2.37l-.07-1.29L220.7,124q-.36-2-.85-4c-.23-.91-.47-1.83-.75-2.74,0-.24,0-.47-.08-.71-.27-1.51-.59-3.1-.94-4.76l-.56-2.53c-.24-.84-.53-1.68-.81-2.54-2.7-3.5-6.11-8.55-10-13.19l-2.23-2.64-.61-1.42c-1-.87-2.54-2.11-4-3.43L198,84c-.92-.87-1.86-1.6-2.67-2.3a71.64,71.64,0,0,0-25.4-17.16,75.89,75.89,0,0,0-28.76-5.46,40.88,40.88,0,0,0-5.69.2l-2.84.23a19.66,19.66,0,0,0-2.83.37q-2.81.54-5.59,1.14l-1.39.3-1.36.43-2.69.88A71.27,71.27,0,0,0,108.48,67c-1.63.82-3.16,1.84-4.7,2.75l-2.27,1.4c-.75.46-1.43,1-2.14,1.56a21.71,21.71,0,0,0-4.65.77,13.83,13.83,0,0,0-1.46.47q-.72.32-1.49.73a26.59,26.59,0,0,0-3.21,2c-6,4.43-12.79,10.39-17.39,17.44l-.91,1.27-.78,1.34q-.76,1.34-1.47,2.66T66.65,102a27.24,27.24,0,0,0-1,2.64c-.62,1.75-1.14,3.43-1.53,5a24.76,24.76,0,0,0-.47,4.58,30.77,30.77,0,0,0-2,3.21,26,26,0,0,0-1.27,3.39,31.67,31.67,0,0,0-.8,3.15,9.51,9.51,0,0,0-.25,2.58c.08,2.2.07,4.42,0,6.65,0,1.63.07,3.29.1,5l-.07.76c-.81,9-.16,18.75,3.12,27,0-.17,0-.43,0-.69a69.64,69.64,0,0,0,6.16,16.35q1.13,1.71,2.23,3.47a40.21,40.21,0,0,0,2.28,3.47l2.42,3.35,1.2,1.66c.42.53.88,1,1.31,1.54l2.59,3,1.27,1.43,1.36,1.26a49.32,49.32,0,0,0,5.22,4.33c2.14,1.24,4.1,2.49,6,3.72,2,1.08,3.81,2.16,5.61,3.23a17.15,17.15,0,0,0,1.62.9,21.66,21.66,0,0,0,1.93,1.35l.09.07h0a25.94,25.94,0,0,0,2.51,1.39c-.94-.5-1.74-1-2.47-1.43l.23-.26,1.59.76,2.08.94c.37.22.71.45,1.09.65l5,2.43c1.62.85,3.22,1.36,4.5,2a10.79,10.79,0,0,1,2.77,1.58c2.8-.76-2-1.85-6.08-3.07,2.15.61,4.56,1.12,7,1.7a34.44,34.44,0,0,0,3.72.64l3.69.58.88.15c-.52,0-1,0-1.5,0a8.37,8.37,0,0,1-4.33-.82c-1.27.27-.92.7.52,1.31,2.5.2,6,1.12,9,1.21,2.74.21,4.91.25,5.18-.26h0a22.17,22.17,0,0,1,2.49.63l2.39-1,1,.2a9.11,9.11,0,0,0-.9-.38l.7-.05,3-.17,3-.41a54.69,54.69,0,0,0,5.63-1,32.83,32.83,0,0,0,4.7-1.72,10,10,0,0,0,1-1c1.75.11-.78.79-1.26,1.47,1-.26,2-.48,2.92-.75s1.67-.62,2.36-.93a6.72,6.72,0,0,0,2.83-1.88l-3.78,1.13-1.88.56-1,.21a1.23,1.23,0,0,0,.32-.91c.39-.22.77-.46,1.12-.7a74.62,74.62,0,0,0,8-2.95c3.32-.81,6.21-1.55,9-2.3-.08.14-.16.28-.24.41l-1.26.62c-1.18.66-2.6,1.15-3.78,1.69l-2.85,1.21,5.12-1.06a15.24,15.24,0,0,0,1.3-1.35,2.15,2.15,0,0,1,1.26-.33.45.45,0,0,0,.24.13.62.62,0,0,1,.11.23l.26-.18a5,5,0,0,0,.55,0l0-.39,1.92-1.32c0-.1,0-.16,0-.21.85-.13,1.72-.27,2.67-.49a23.13,23.13,0,0,0,6-2.9c0-.06.06-.14.09-.21a42.49,42.49,0,0,0,6.78-4.33c.62-.28,1.79-2.09,2.76-3.92l.35-.36a7.53,7.53,0,0,0,1.13-2.73c.23-.6.35-1,.27-1.14-1.46.25-3.91,1.91-6.5,3.77l-.87.55.65-.58a4.2,4.2,0,0,1-.45.27l-.26.35c-1.07.67-2.17,1.34-3.21,2a33.75,33.75,0,0,1-3.37,1.86A75.07,75.07,0,0,0,216.81,145.06Z"/><path class="cls-2" d="M181.37,211.67v-.16h0l.62-.11Z"/><circle class="cls-3" cx="141.17" cy="142.04" r="70.38"/><path class="cls-4" d="M178.14,179.24H100.38a2,2,0,0,1-2-2.13l5.62-65a2,2,0,0,1,2-1.79h66.52a2,2,0,0,1,2,1.79l5.62,65a2,2,0,0,1-2,2.13Zm-75.62-3.93H176l-5.28-61.08H107.8Z"/><path class="cls-4" d="M120.15,126.42a4.8,4.8,0,1,1,4.8-4.8A4.81,4.81,0,0,1,120.15,126.42Zm0-5.68a.88.88,0,1,0,.88.88A.88.88,0,0,0,120.15,120.74Z"/><path class="cls-4" d="M159.52,126.42a4.8,4.8,0,1,1,4.8-4.8A4.81,4.81,0,0,1,159.52,126.42Zm0-5.68a.88.88,0,1,0,.88.88A.88.88,0,0,0,159.52,120.74Z"/><path class="cls-4" d="M160,113.42a2,2,0,0,1-2-2V110.3c0-12.35-8.37-22.4-18.66-22.4s-18.66,10.05-18.66,22.4v1.16a2,2,0,0,1-3.93,0V110.3C116.77,95.78,126.9,84,139.35,84s22.58,11.81,22.58,26.33v1.16A2,2,0,0,1,160,113.42Z"/><polygon class="cls-5" points="165.67 187.52 162.52 151.15 120.39 151.15 117.24 187.52 116.83 192.33 166.09 192.33 165.67 187.52"/><circle class="cls-4" cx="133.27" cy="153.14" r="1.8"/><circle class="cls-4" cx="158.22" cy="153.14" r="1.8"/><path class="cls-1" d="M159.49,146.71c0-8.06-5-17.15-14-17.15s-14,9.09-14,17.15a1,1,0,0,0,2,0c0-7,4.11-15.19,12.08-15.19s12.08,8.23,12.08,15.19a1,1,0,0,0,2,0Z"/><path class="cls-1" d="M170.58,183.6l-3.15-36.38a1,1,0,0,0-1-1H124.31a1,1,0,0,0-1,1l-3.56,41.18a1,1,0,0,0,1,1H170a1,1,0,0,0,1-1l-.42-4.81c-.11-1.25-2.07-1.26-2,0,.23,2.63.82,3.65.52,3.82-1.43.82-6,0-7.57,0H138.66c-3.75,0-13.72,1.89-17,0-.26-.15.3-1.27.53-3.89l.49-5.62,2-22.66c.14-1.62-.26-6,.65-7.5-.59,1-.28.1,2.2.45,6.63.95,14.1,0,20.79,0,4.13,0,13.91-1.88,17.76,0,.81.4-1.15-1.69-.46-.14.39.88.22,2.49.3,3.45l1,11.95,1.74,20.13C168.72,184.85,170.69,184.86,170.58,183.6Z"/></svg>