<svg id="Layer_1" data-name="Layer 1" xmlns="http://www.w3.org/2000/svg" viewBox="0 0 283.46 283.46"><defs><style>.cls-1{fill:#008d41;}.cls-2{fill:#a2c636;}.cls-3{fill:#fff;}.cls-4{fill:#ffda00;}.cls-5{fill:#184f25;}</style></defs><title>52 Climate Actions icons F</title><path class="cls-1" d="M274.24,34.48a1.08,1.08,0,0,0,0-2.17,1.08,1.08,0,0,0,0,2.17Z"/><path class="cls-2" d="M222.42,144.13c0,.5,0,1.07-.14,1.75,0,0,.05,0,.08,0l.14-1.61Z"/><path class="cls-2" d="M222.35,145.88l-.29,3.29a19.28,19.28,0,0,1,2.15-5.49c0,1.72-.28,4.48-.83,3.71l.55,2.5.5-7.85C223.77,143.51,223.25,146,222.35,145.88Z"/><path class="cls-2" d="M221.42,146.15c.41,2.85-.16-4.14,1-2a2.74,2.74,0,0,1,.3-1.48C222.06,141.36,221.71,143.48,221.42,146.15Z"/><path class="cls-2" d="M220.39,162.36c.22-.09.51-.41.92-1.17C221.14,161.09,220.78,161.68,220.39,162.36Z"/><path class="cls-2" d="M217.55,164.5c.75-1.36,1.5-2.75,1.89-1.92l-.54,1.52c.23.52.9-.72,1.49-1.74C219.5,162.73,219.62,159.43,217.55,164.5Z"/><path class="cls-2" d="M218.2,154.91l0,1.15,1.28-3.66.64-1.86c.19-.62.32-1.26.48-1.89-.77.28-.83,1.18-1.1,2.34A11.5,11.5,0,0,1,218.2,154.91Z"/><path class="cls-2" d="M174.4,218.06,174,218l-.62.5C173.69,218.35,174,218.24,174.4,218.06Z"/><path class="cls-2" d="M167.12,220.13c1.75-.28,3.53-.53,5.29-.89.34-.31.64-.52,1-.77a7.15,7.15,0,0,1-3,.58A8.48,8.48,0,0,0,167.12,220.13Z"/><path class="cls-2" d="M173.28,217.78l.71.18a16,16,0,0,1,5.26-2.4,27.51,27.51,0,0,0,6.42-3.4,65.62,65.62,0,0,0-6.53,2.94C177,216,175,216.91,173.28,217.78Z"/><path class="cls-2" d="M216.81,145.06c0-1.53-.06-3-.15-4.54a8.32,8.32,0,0,0,2.33-2.47,13.69,13.69,0,0,0,1.83-5.16A33.11,33.11,0,0,0,221,129q0-1.11-.05-2.37l-.07-1.29L220.7,124q-.36-2-.85-4c-.23-.91-.47-1.83-.75-2.74,0-.24,0-.47-.08-.71-.27-1.51-.59-3.1-.94-4.76l-.56-2.53c-.24-.84-.53-1.68-.81-2.54-2.7-3.5-6.11-8.55-10-13.19l-2.23-2.64-.61-1.42c-1-.87-2.54-2.11-4-3.43L198,84c-.92-.87-1.86-1.6-2.67-2.3a71.64,71.64,0,0,0-25.4-17.16,75.89,75.89,0,0,0-28.76-5.46,40.88,40.88,0,0,0-5.69.2l-2.84.23a19.66,19.66,0,0,0-2.83.37q-2.81.54-5.59,1.14l-1.39.3-1.36.43-2.69.88A71.27,71.27,0,0,0,108.48,67c-1.63.82-3.16,1.84-4.7,2.75l-2.27,1.4c-.75.46-1.43,1-2.14,1.56a21.71,21.71,0,0,0-4.65.77,13.83,13.83,0,0,0-1.46.47q-.72.32-1.49.73a26.59,26.59,0,0,0-3.21,2c-6,4.43-12.79,10.39-17.39,17.44l-.91,1.27-.78,1.34q-.76,1.34-1.47,2.66T66.65,102a27.24,27.24,0,0,0-1,2.64c-.62,1.75-1.14,3.43-1.53,5a24.76,24.76,0,0,0-.47,4.58,30.77,30.77,0,0,0-2,3.21,26,26,0,0,0-1.27,3.39,31.67,31.67,0,0,0-.8,3.15,9.51,9.51,0,0,0-.25,2.58c.08,2.2.07,4.42,0,6.65,0,1.63.07,3.29.1,5l-.07.76c-.81,9-.16,18.75,3.12,27,0-.17,0-.43,0-.69a69.64,69.64,0,0,0,6.16,16.35q1.13,1.71,2.23,3.47a40.21,40.21,0,0,0,2.28,3.47l2.42,3.35,1.2,1.66c.42.53.88,1,1.31,1.54l2.59,3,1.27,1.43,1.36,1.26a49.32,49.32,0,0,0,5.22,4.33c2.14,1.24,4.1,2.49,6,3.72,2,1.08,3.81,2.16,5.61,3.23a17.15,17.15,0,0,0,1.62.9,21.66,21.66,0,0,0,1.93,1.35l.09.07h0a25.94,25.94,0,0,0,2.51,1.39c-.94-.5-1.74-1-2.47-1.43l.23-.26,1.59.76,2.08.94c.37.22.71.45,1.09.65l5,2.43c1.62.85,3.22,1.36,4.5,2a10.79,10.79,0,0,1,2.77,1.58c2.8-.76-2-1.85-6.08-3.07,2.15.61,4.56,1.12,7,1.7a34.44,34.44,0,0,0,3.72.64l3.69.58.88.15c-.52,0-1,0-1.5,0a8.37,8.37,0,0,1-4.33-.82c-1.27.27-.92.7.52,1.31,2.5.2,6,1.12,9,1.21,2.74.21,4.91.25,5.18-.26h0a22.17,22.17,0,0,1,2.49.63l2.39-1,1,.2a9.11,9.11,0,0,0-.9-.38l.7-.05,3-.17,3-.41a54.69,54.69,0,0,0,5.63-1,32.83,32.83,0,0,0,4.7-1.72,10,10,0,0,0,1-1c1.75.11-.78.79-1.26,1.47,1-.26,2-.48,2.92-.75s1.67-.62,2.36-.93a6.72,6.72,0,0,0,2.83-1.88l-3.78,1.13-1.88.56-1,.21a1.23,1.23,0,0,0,.32-.91c.39-.22.77-.46,1.12-.7a74.62,74.62,0,0,0,8-2.95c3.32-.81,6.21-1.55,9-2.3-.08.14-.16.28-.24.41l-1.26.62c-1.18.66-2.6,1.15-3.78,1.69l-2.85,1.21,5.12-1.06a15.24,15.24,0,0,0,1.3-1.35,2.15,2.15,0,0,1,1.26-.33.45.45,0,0,0,.24.13.62.62,0,0,1,.11.23l.26-.18a5,5,0,0,0,.55,0l0-.39,1.92-1.32c0-.1,0-.16,0-.21.85-.13,1.72-.27,2.67-.49a23.13,23.13,0,0,0,6-2.9c0-.06.06-.14.09-.21a42.49,42.49,0,0,0,6.78-4.33c.62-.28,1.79-2.09,2.76-3.92l.35-.36a7.53,7.53,0,0,0,1.13-2.73c.23-.6.35-1,.27-1.14-1.46.25-3.91,1.91-6.5,3.77l-.87.55.65-.58a4.2,4.2,0,0,1-.45.27l-.26.35c-1.07.67-2.17,1.34-3.21,2a33.75,33.75,0,0,1-3.37,1.86A75.07,75.07,0,0,0,216.81,145.06Z"/><path class="cls-2" d="M181.37,211.67v-.16h0l.62-.11Z"/><circle class="cls-3" cx="141.17" cy="142.04" r="70.38"/><polygon class="cls-4" points="117.86 125.1 132.27 133.38 141.82 116.61 141.83 116.61 150.1 102.19 131.02 102.19 117.86 125.1"/><polygon class="cls-4" points="170.35 137.07 155.99 145.43 165.75 162.08 165.75 162.08 174.11 176.44 183.64 159.91 170.35 137.07"/><polygon class="cls-4" points="133.65 176.43 133.64 159.81 96.49 159.86 107.23 176.43 133.65 176.43"/><polygon class="cls-5" points="161.63 113.9 161.48 113.99 152.23 97.95 142.67 114.59 147.08 122.24 140.29 126.13 162.49 132.16 168.53 109.95 161.63 113.9"/><path class="cls-1" d="M119.44,121.78,133.86,130a1.08,1.08,0,0,0,1.45-.38l9.55-16.77H143a1.07,1.07,0,0,0,1.83,0l8.27-14.42a1.07,1.07,0,0,0-.92-1.6H133.14a1.07,1.07,0,0,0-.92.53l-13.16,22.91a1.06,1.06,0,0,0,1.83,1.07c4.11-7.17,8.69-14.21,12.4-21.59,1-2-.33-.6.73-.8,1.92-.36,4.24,0,6.19,0h12l-.92-1.6L143,111.83h1.83a1.07,1.07,0,0,0-1.83,0c-3,5.35-5.66,11.49-9.34,16.41.69-.92,1.39.73-.25-.88-1.13-1.11-3.26-1.87-4.63-2.66l-8.29-4.75A1.06,1.06,0,0,0,119.44,121.78Z"/><polygon class="cls-5" points="157.75 155.6 157.77 147.78 141.46 164.01 157.68 180.32 157.7 172.37 157.7 172.2 176.22 172.2 166.58 155.62 157.75 155.6"/><path class="cls-1" d="M171.94,131.91l-14.36,8.36a1.08,1.08,0,0,0-.38,1.45l4.88,8.32,3.21,5.47a10.15,10.15,0,0,0,1,1.74c1.52,1.64-1,.39,1.28-.44a1.08,1.08,0,0,0-.63,1.56l8.36,14.36a1.07,1.07,0,0,0,1.83,0l9.53-16.53a1.07,1.07,0,0,0,0-1.07l-13.28-22.84a1.06,1.06,0,0,0-1.83,1.07c4.06,7,9.25,14,12.44,21.39.83,1.92.63.53.55.9-.39,1.83-2.44,4.23-3.35,5.81l-5.88,10.21h1.83L173,164.48c-.86-1.48-1.68-3.72-2.87-4.94-2.25-2.31.44-1.54-1.94-.69a1.08,1.08,0,0,0,.63-1.56c-2.8-4.78-8.09-10.79-9.46-16.13-.08-.31-1.16,1.35.64.16,1.45-1,3-1.76,4.52-2.63l8.52-5A1.06,1.06,0,0,0,171.94,131.91Z"/><path class="cls-1" d="M136.83,172.19V155.57a1.08,1.08,0,0,0-1.06-1.06l-37.15,0a1.07,1.07,0,0,0-.92,1.6l7.71,11.9c1.2,1.86,2.15,4.44,4.2,5.19,3.52,1.3,9.94,0,13.68,0h12.48a1.06,1.06,0,0,0,0-2.12c-8.22,0-16.65.57-24.85,0-2.2-.15-.3.57-1.13-.21-1.35-1.28-2.3-3.55-3.3-5.1l-7-10.74-.92,1.6,29.61,0a45.18,45.18,0,0,0,6.08,0c2-.28.61-1.39.39.31-.62,4.93,0,10.28,0,15.25A1.06,1.06,0,0,0,136.83,172.19Z"/><polygon class="cls-5" points="123.42 148.11 130.18 152.06 124.35 129.8 102.09 135.63 108.95 139.64 109.1 139.73 98.61 155.65 119.1 155.59 123.42 148.11"/></svg>